%TF.GenerationSoftware,KiCad,Pcbnew,10.0.6*%
%TF.CreationDate,2026-09-24T23:22:25+09:00*%
%TF.ProjectId,kvm_switch,6b766d5f-7377-4697-9463-682e6b696361,Rev1*%
%TF.SameCoordinates,Original*%
%TF.FileFunction,Copper,L2,Bot*%
%TF.FilePolarity,Positive*%
%FSLAX46Y46*%
G04 Gerber Fmt 4.6, Leading zero omitted, Abs format (unit mm)*
G04 Created by KiCad (PCBNEW 10.0.6) date 2026-09-24 23:22:25*
%MOMM*%
%LPD*%
G01*
G04 APERTURE LIST*
G04 Aperture macros list*
%AMRoundRect*
0 Rectangle with rounded corners*
0 $1 Rounding radius*
0 $2 $3 $4 $5 $6 $7 $8 $9 X,Y pos of 4 corners*
0 Add a 4 corners polygon primitive as box body*
4,1,4,$2,$3,$4,$5,$6,$7,$8,$9,$2,$3,0*
0 Add four circle primitives for the rounded corners*
1,1,$1+$1,$2,$3*
1,1,$1+$1,$4,$5*
1,1,$1+$1,$6,$7*
1,1,$1+$1,$8,$9*
0 Add four rect primitives between the rounded corners*
20,1,$1+$1,$2,$3,$4,$5,0*
20,1,$1+$1,$4,$5,$6,$7,0*
20,1,$1+$1,$6,$7,$8,$9,0*
20,1,$1+$1,$8,$9,$2,$3,0*%
G04 Aperture macros list end*
%TA.AperFunction,ComponentPad*%
%ADD10RoundRect,0.200000X-0.450000X0.200000X-0.450000X-0.200000X0.450000X-0.200000X0.450000X0.200000X0*%
%TD*%
%TA.AperFunction,ComponentPad*%
%ADD11O,1.300000X0.800000*%
%TD*%
%TA.AperFunction,ComponentPad*%
%ADD12RoundRect,0.200000X0.450000X-0.200000X0.450000X0.200000X-0.450000X0.200000X-0.450000X-0.200000X0*%
%TD*%
%TA.AperFunction,ComponentPad*%
%ADD13R,1.350000X1.350000*%
%TD*%
%TA.AperFunction,ComponentPad*%
%ADD14C,1.350000*%
%TD*%
%TA.AperFunction,ComponentPad*%
%ADD15R,1.700000X1.700000*%
%TD*%
%TA.AperFunction,ComponentPad*%
%ADD16C,1.700000*%
%TD*%
%TA.AperFunction,Conductor*%
%ADD17C,0.200000*%
%TD*%
G04 APERTURE END LIST*
D10*
%TO.P,J4,1,Pin_1*%
%TO.N,/ATX_PWRSW_A*%
X151400298Y-83790057D03*
D11*
%TO.P,J4,2,Pin_2*%
%TO.N,/ATX_PWRSW_B*%
X151400298Y-85040057D03*
%TO.P,J4,3,Pin_3*%
%TO.N,/ATX_RSTSW_A*%
X151400298Y-86290057D03*
%TO.P,J4,4,Pin_4*%
%TO.N,/ATX_PWRLED-*%
X151400298Y-87540057D03*
%TO.P,J4,5,Pin_5*%
X151400298Y-88790057D03*
%TO.P,J4,6,Pin_6*%
%TO.N,/ATX_PWRLED+*%
X151400298Y-90040057D03*
%TD*%
D12*
%TO.P,J2,1,Pin_1*%
%TO.N,/ATX_PWRLED+*%
X142900298Y-89990057D03*
D11*
%TO.P,J2,2,Pin_2*%
%TO.N,/ATX_PWRLED-*%
X142900298Y-88740057D03*
%TO.P,J2,3,Pin_3*%
X142900298Y-87490057D03*
%TO.P,J2,4,Pin_4*%
%TO.N,/ATX_RSTSW_A*%
X142900298Y-86240057D03*
%TO.P,J2,5,Pin_5*%
%TO.N,/ATX_PWRSW_B*%
X142900298Y-84990057D03*
%TO.P,J2,6,Pin_6*%
%TO.N,/ATX_PWRSW_A*%
X142900298Y-83740057D03*
%TD*%
D10*
%TO.P,J1,1,Pin_1*%
%TO.N,/GPIO_PWRSW*%
X120075000Y-84925000D03*
D11*
%TO.P,J1,2,Pin_2*%
%TO.N,/GPIO_RSTSW*%
X120075000Y-86175000D03*
%TO.P,J1,3,Pin_3*%
%TO.N,GND*%
X120075000Y-87425000D03*
%TO.P,J1,4,Pin_4*%
%TO.N,/GPIO_PWRLED*%
X120075000Y-88675000D03*
%TD*%
D13*
%TO.P,J3,1,Pin_1*%
%TO.N,unconnected-(J3-Pin_1-Pad1)*%
X148100298Y-90840057D03*
D14*
%TO.P,J3,2,Pin_2*%
%TO.N,/ATX_PWRLED+*%
X146100298Y-90840057D03*
%TO.P,J3,3,Pin_3*%
%TO.N,unconnected-(J3-Pin_3-Pad3)*%
X148100298Y-88840057D03*
%TO.P,J3,4,Pin_4*%
%TO.N,unconnected-(J3-Pin_4-Pad4)*%
X146100298Y-88840057D03*
%TO.P,J3,5,Pin_5*%
%TO.N,/ATX_PWRLED-*%
X148100298Y-86840057D03*
%TO.P,J3,6,Pin_6*%
%TO.N,/ATX_PWRSW_A*%
X146100298Y-86840057D03*
%TO.P,J3,7,Pin_7*%
%TO.N,/ATX_RSTSW_A*%
X148100298Y-84840057D03*
%TO.P,J3,8,Pin_8*%
%TO.N,/ATX_PWRSW_B*%
X146100298Y-84840057D03*
%TO.P,J3,9,Pin_9*%
%TO.N,unconnected-(J3-Pin_9-Pad9)*%
X148100298Y-82840057D03*
%TO.P,J3,10,Pin_10*%
%TO.N,unconnected-(J3-Pin_10-Pad10)*%
X146100298Y-82840057D03*
%TD*%
D15*
%TO.P,J5,1,Pin_1*%
%TO.N,unconnected-(J5-Pin_1-Pad1)*%
X155800298Y-81790057D03*
D16*
%TO.P,J5,2,Pin_2*%
%TO.N,/ATX_PWRLED+*%
X158340298Y-81790057D03*
%TO.P,J5,3,Pin_3*%
%TO.N,unconnected-(J5-Pin_3-Pad3)*%
X155800298Y-84330057D03*
%TO.P,J5,4,Pin_4*%
%TO.N,/ATX_PWRLED-*%
X158340298Y-84330057D03*
%TO.P,J5,5,Pin_5*%
X155800298Y-86870057D03*
%TO.P,J5,6,Pin_6*%
%TO.N,/ATX_PWRSW_A*%
X158340298Y-86870057D03*
%TO.P,J5,7,Pin_7*%
%TO.N,/ATX_RSTSW_A*%
X155800298Y-89410057D03*
%TO.P,J5,8,Pin_8*%
%TO.N,/ATX_PWRSW_B*%
X158340298Y-89410057D03*
%TO.P,J5,9,Pin_9*%
%TO.N,unconnected-(J5-Pin_9-Pad9)*%
X155800298Y-91950057D03*
%TO.P,J5,10,Pin_10*%
%TO.N,unconnected-(J5-Pin_10-Pad10)*%
X158340298Y-91950057D03*
%TD*%
%TO.N,/ATX_PWRSW_A*%
D17*
X150850298Y-83790057D02*
X151400298Y-83790057D01*
X158340298Y-86720057D02*
X158340298Y-86870057D01*
X146667398Y-86840057D02*
X147691398Y-85816057D01*
X157110298Y-85490057D02*
X158340298Y-86720057D01*
X152600298Y-83790057D02*
X154300298Y-85490057D01*
X154300298Y-85490057D02*
X157110298Y-85490057D01*
X148824298Y-85816057D02*
X150850298Y-83790057D01*
X147691398Y-85816057D02*
X148824298Y-85816057D01*
X146100298Y-86840057D02*
X146667398Y-86840057D01*
X151400298Y-83790057D02*
X152600298Y-83790057D01*
%TO.N,/ATX_PWRLED+*%
X151400298Y-90040057D02*
X153350298Y-90040057D01*
X153350298Y-90040057D02*
X154000298Y-90690057D01*
X158950298Y-90690057D02*
X159500298Y-90140057D01*
X159500298Y-90140057D02*
X159500298Y-82950057D01*
X159500298Y-82950057D02*
X158340298Y-81790057D01*
X154000298Y-90690057D02*
X158950298Y-90690057D01*
%TO.N,/ATX_RSTSW_A*%
X151400298Y-86290057D02*
X152250298Y-86290057D01*
X142900298Y-86240057D02*
X143300298Y-85840057D01*
X155370298Y-89410057D02*
X155800298Y-89410057D01*
X152250298Y-86290057D02*
X155370298Y-89410057D01*
X147100298Y-85840057D02*
X148100298Y-84840057D01*
X143300298Y-85840057D02*
X147100298Y-85840057D01*
%TO.N,/ATX_PWRLED-*%
X147124298Y-87816057D02*
X148100298Y-86840057D01*
X144874298Y-87816057D02*
X147124298Y-87816057D01*
X142900298Y-88740057D02*
X143950298Y-88740057D01*
X143950298Y-88740057D02*
X144874298Y-87816057D01*
%TO.N,/ATX_PWRSW_B*%
X155200298Y-88140057D02*
X157070298Y-88140057D01*
X146100298Y-84840057D02*
X143050298Y-84840057D01*
X158915000Y-89545843D02*
X158779214Y-89410057D01*
X152100298Y-85040057D02*
X155200298Y-88140057D01*
X157070298Y-88140057D02*
X158340298Y-89410057D01*
X158915000Y-89595000D02*
X158915000Y-89545843D01*
X158779214Y-89410057D02*
X158340298Y-89410057D01*
X143050298Y-84840057D02*
X142900298Y-84990057D01*
X151400298Y-85040057D02*
X152100298Y-85040057D01*
%TD*%
M02*
