%TF.GenerationSoftware,KiCad,Pcbnew,10.0.6*%
%TF.CreationDate,2026-09-24T23:22:25+09:00*%
%TF.ProjectId,kvm_switch,6b766d5f-7377-4697-9463-682e6b696361,Rev1*%
%TF.SameCoordinates,Original*%
%TF.FileFunction,Copper,L1,Top*%
%TF.FilePolarity,Positive*%
%FSLAX46Y46*%
G04 Gerber Fmt 4.6, Leading zero omitted, Abs format (unit mm)*
G04 Created by KiCad (PCBNEW 10.0.6) date 2026-09-24 23:22:25*
%MOMM*%
%LPD*%
G01*
G04 APERTURE LIST*
G04 Aperture macros list*
%AMRoundRect*
0 Rectangle with rounded corners*
0 $1 Rounding radius*
0 $2 $3 $4 $5 $6 $7 $8 $9 X,Y pos of 4 corners*
0 Add a 4 corners polygon primitive as box body*
4,1,4,$2,$3,$4,$5,$6,$7,$8,$9,$2,$3,0*
0 Add four circle primitives for the rounded corners*
1,1,$1+$1,$2,$3*
1,1,$1+$1,$4,$5*
1,1,$1+$1,$6,$7*
1,1,$1+$1,$8,$9*
0 Add four rect primitives between the rounded corners*
20,1,$1+$1,$2,$3,$4,$5,0*
20,1,$1+$1,$4,$5,$6,$7,0*
20,1,$1+$1,$6,$7,$8,$9,0*
20,1,$1+$1,$8,$9,$2,$3,0*%
G04 Aperture macros list end*
%TA.AperFunction,SMDPad,CuDef*%
%ADD10RoundRect,0.250000X0.350000X0.450000X-0.350000X0.450000X-0.350000X-0.450000X0.350000X-0.450000X0*%
%TD*%
%TA.AperFunction,SMDPad,CuDef*%
%ADD11RoundRect,0.250000X-0.350000X-0.450000X0.350000X-0.450000X0.350000X0.450000X-0.350000X0.450000X0*%
%TD*%
%TA.AperFunction,SMDPad,CuDef*%
%ADD12RoundRect,0.250000X0.450000X-0.350000X0.450000X0.350000X-0.450000X0.350000X-0.450000X-0.350000X0*%
%TD*%
%TA.AperFunction,SMDPad,CuDef*%
%ADD13R,1.500000X1.500000*%
%TD*%
%TA.AperFunction,ComponentPad*%
%ADD14RoundRect,0.200000X-0.450000X0.200000X-0.450000X-0.200000X0.450000X-0.200000X0.450000X0.200000X0*%
%TD*%
%TA.AperFunction,ComponentPad*%
%ADD15O,1.300000X0.800000*%
%TD*%
%TA.AperFunction,ComponentPad*%
%ADD16RoundRect,0.200000X0.450000X-0.200000X0.450000X0.200000X-0.450000X0.200000X-0.450000X-0.200000X0*%
%TD*%
%TA.AperFunction,ComponentPad*%
%ADD17R,1.350000X1.350000*%
%TD*%
%TA.AperFunction,ComponentPad*%
%ADD18C,1.350000*%
%TD*%
%TA.AperFunction,ComponentPad*%
%ADD19R,1.700000X1.700000*%
%TD*%
%TA.AperFunction,ComponentPad*%
%ADD20C,1.700000*%
%TD*%
%TA.AperFunction,Conductor*%
%ADD21C,0.200000*%
%TD*%
G04 APERTURE END LIST*
D10*
%TO.P,R6,1*%
%TO.N,/ATX_PWRLED-*%
X139453989Y-90354832D03*
%TO.P,R6,2*%
%TO.N,Net-(R6-Pad2)*%
X137453989Y-90354832D03*
%TD*%
D11*
%TO.P,R2,1*%
%TO.N,Net-(R2-Pad1)*%
X137443989Y-81254832D03*
%TO.P,R2,2*%
%TO.N,/ATX_PWRSW_A*%
X139443989Y-81254832D03*
%TD*%
D12*
%TO.P,R4,1*%
%TO.N,Net-(R4-Pad1)*%
X123690000Y-89675000D03*
%TO.P,R4,2*%
%TO.N,GND*%
X123690000Y-87675000D03*
%TD*%
%TO.P,R1,1*%
%TO.N,/GPIO_PWRSW*%
X123700000Y-82025000D03*
%TO.P,R1,2*%
%TO.N,Net-(R1-Pad2)*%
X123700000Y-80025000D03*
%TD*%
D13*
%TO.P,U2,1*%
%TO.N,Net-(R7-Pad2)*%
X135375000Y-93715000D03*
%TO.P,U2,2*%
%TO.N,Net-(R6-Pad2)*%
X135375000Y-91175000D03*
%TO.P,U2,3*%
%TO.N,Net-(R4-Pad1)*%
X125875000Y-91175000D03*
%TO.P,U2,4*%
%TO.N,Net-(R5-Pad1)*%
X125875000Y-93715000D03*
%TD*%
D10*
%TO.P,R7,1*%
%TO.N,/ATX_PWRLED+*%
X139453989Y-92454832D03*
%TO.P,R7,2*%
%TO.N,Net-(R7-Pad2)*%
X137453989Y-92454832D03*
%TD*%
D14*
%TO.P,J4,1,Pin_1*%
%TO.N,/ATX_PWRSW_A*%
X151400298Y-83790057D03*
D15*
%TO.P,J4,2,Pin_2*%
%TO.N,/ATX_PWRSW_B*%
X151400298Y-85040057D03*
%TO.P,J4,3,Pin_3*%
%TO.N,/ATX_RSTSW_A*%
X151400298Y-86290057D03*
%TO.P,J4,4,Pin_4*%
%TO.N,/ATX_PWRLED-*%
X151400298Y-87540057D03*
%TO.P,J4,5,Pin_5*%
X151400298Y-88790057D03*
%TO.P,J4,6,Pin_6*%
%TO.N,/ATX_PWRLED+*%
X151400298Y-90040057D03*
%TD*%
D11*
%TO.P,R10,1*%
%TO.N,Net-(R10-Pad1)*%
X137453989Y-87954832D03*
%TO.P,R10,2*%
%TO.N,/ATX_PWRLED-*%
X139453989Y-87954832D03*
%TD*%
D16*
%TO.P,J2,1,Pin_1*%
%TO.N,/ATX_PWRLED+*%
X142900298Y-89990057D03*
D15*
%TO.P,J2,2,Pin_2*%
%TO.N,/ATX_PWRLED-*%
X142900298Y-88740057D03*
%TO.P,J2,3,Pin_3*%
X142900298Y-87490057D03*
%TO.P,J2,4,Pin_4*%
%TO.N,/ATX_RSTSW_A*%
X142900298Y-86240057D03*
%TO.P,J2,5,Pin_5*%
%TO.N,/ATX_PWRSW_B*%
X142900298Y-84990057D03*
%TO.P,J2,6,Pin_6*%
%TO.N,/ATX_PWRSW_A*%
X142900298Y-83740057D03*
%TD*%
D12*
%TO.P,R5,1*%
%TO.N,Net-(R5-Pad1)*%
X123690000Y-93525000D03*
%TO.P,R5,2*%
%TO.N,/GPIO_PWRLED*%
X123690000Y-91525000D03*
%TD*%
D13*
%TO.P,U1,1*%
%TO.N,Net-(R1-Pad2)*%
X125875000Y-79955000D03*
%TO.P,U1,2*%
%TO.N,GND*%
X125875000Y-82495000D03*
%TO.P,U1,3*%
%TO.N,Net-(R3-Pad1)*%
X135375000Y-82495000D03*
%TO.P,U1,4*%
%TO.N,Net-(R2-Pad1)*%
X135375000Y-79955000D03*
%TD*%
%TO.P,U3,1*%
%TO.N,Net-(R8-Pad2)*%
X125875000Y-85575000D03*
%TO.P,U3,2*%
%TO.N,GND*%
X125875000Y-88115000D03*
%TO.P,U3,3*%
%TO.N,Net-(R10-Pad1)*%
X135375000Y-88115000D03*
%TO.P,U3,4*%
%TO.N,Net-(R9-Pad1)*%
X135375000Y-85575000D03*
%TD*%
D14*
%TO.P,J1,1,Pin_1*%
%TO.N,/GPIO_PWRSW*%
X120075000Y-84925000D03*
D15*
%TO.P,J1,2,Pin_2*%
%TO.N,/GPIO_RSTSW*%
X120075000Y-86175000D03*
%TO.P,J1,3,Pin_3*%
%TO.N,GND*%
X120075000Y-87425000D03*
%TO.P,J1,4,Pin_4*%
%TO.N,/GPIO_PWRLED*%
X120075000Y-88675000D03*
%TD*%
D12*
%TO.P,R8,1*%
%TO.N,/GPIO_RSTSW*%
X123700000Y-85850000D03*
%TO.P,R8,2*%
%TO.N,Net-(R8-Pad2)*%
X123700000Y-83850000D03*
%TD*%
D11*
%TO.P,R9,1*%
%TO.N,Net-(R9-Pad1)*%
X137453989Y-85854832D03*
%TO.P,R9,2*%
%TO.N,/ATX_RSTSW_A*%
X139453989Y-85854832D03*
%TD*%
%TO.P,R3,1*%
%TO.N,Net-(R3-Pad1)*%
X137453989Y-83354832D03*
%TO.P,R3,2*%
%TO.N,/ATX_PWRSW_B*%
X139453989Y-83354832D03*
%TD*%
D17*
%TO.P,J3,1,Pin_1*%
%TO.N,unconnected-(J3-Pin_1-Pad1)*%
X148100298Y-90840057D03*
D18*
%TO.P,J3,2,Pin_2*%
%TO.N,/ATX_PWRLED+*%
X146100298Y-90840057D03*
%TO.P,J3,3,Pin_3*%
%TO.N,unconnected-(J3-Pin_3-Pad3)*%
X148100298Y-88840057D03*
%TO.P,J3,4,Pin_4*%
%TO.N,unconnected-(J3-Pin_4-Pad4)*%
X146100298Y-88840057D03*
%TO.P,J3,5,Pin_5*%
%TO.N,/ATX_PWRLED-*%
X148100298Y-86840057D03*
%TO.P,J3,6,Pin_6*%
%TO.N,/ATX_PWRSW_A*%
X146100298Y-86840057D03*
%TO.P,J3,7,Pin_7*%
%TO.N,/ATX_RSTSW_A*%
X148100298Y-84840057D03*
%TO.P,J3,8,Pin_8*%
%TO.N,/ATX_PWRSW_B*%
X146100298Y-84840057D03*
%TO.P,J3,9,Pin_9*%
%TO.N,unconnected-(J3-Pin_9-Pad9)*%
X148100298Y-82840057D03*
%TO.P,J3,10,Pin_10*%
%TO.N,unconnected-(J3-Pin_10-Pad10)*%
X146100298Y-82840057D03*
%TD*%
D19*
%TO.P,J5,1,Pin_1*%
%TO.N,unconnected-(J5-Pin_1-Pad1)*%
X155800298Y-81790057D03*
D20*
%TO.P,J5,2,Pin_2*%
%TO.N,/ATX_PWRLED+*%
X158340298Y-81790057D03*
%TO.P,J5,3,Pin_3*%
%TO.N,unconnected-(J5-Pin_3-Pad3)*%
X155800298Y-84330057D03*
%TO.P,J5,4,Pin_4*%
%TO.N,/ATX_PWRLED-*%
X158340298Y-84330057D03*
%TO.P,J5,5,Pin_5*%
X155800298Y-86870057D03*
%TO.P,J5,6,Pin_6*%
%TO.N,/ATX_PWRSW_A*%
X158340298Y-86870057D03*
%TO.P,J5,7,Pin_7*%
%TO.N,/ATX_RSTSW_A*%
X155800298Y-89410057D03*
%TO.P,J5,8,Pin_8*%
%TO.N,/ATX_PWRSW_B*%
X158340298Y-89410057D03*
%TO.P,J5,9,Pin_9*%
%TO.N,unconnected-(J5-Pin_9-Pad9)*%
X155800298Y-91950057D03*
%TO.P,J5,10,Pin_10*%
%TO.N,unconnected-(J5-Pin_10-Pad10)*%
X158340298Y-91950057D03*
%TD*%
%TO.N,Net-(R2-Pad1)*%
D21*
X135465000Y-79955000D02*
X136445000Y-80935000D01*
X135375000Y-79955000D02*
X135465000Y-79955000D01*
X137135000Y-80935000D02*
X137575000Y-81375000D01*
X136445000Y-80935000D02*
X137195000Y-80935000D01*
%TO.N,Net-(R1-Pad2)*%
X125805000Y-80025000D02*
X125875000Y-79955000D01*
X123700000Y-80025000D02*
X125805000Y-80025000D01*
%TO.N,Net-(R3-Pad1)*%
X137475000Y-83475000D02*
X137453989Y-83453989D01*
X135465000Y-82495000D02*
X136445000Y-83475000D01*
X135375000Y-82495000D02*
X135465000Y-82495000D01*
X136445000Y-83475000D02*
X137535000Y-83475000D01*
X137453989Y-83453989D02*
X137453989Y-83354832D01*
%TO.N,GND*%
X125965000Y-82495000D02*
X127790000Y-84320000D01*
X123690000Y-87675000D02*
X123440000Y-87425000D01*
X127790000Y-84320000D02*
X127790000Y-86925000D01*
X127790000Y-86925000D02*
X126540000Y-88175000D01*
X123440000Y-87425000D02*
X120075000Y-87425000D01*
X125875000Y-88025000D02*
X125875000Y-88115000D01*
X125875000Y-82495000D02*
X125965000Y-82495000D01*
X126540000Y-88175000D02*
X125940000Y-88175000D01*
X125525000Y-87675000D02*
X125875000Y-88025000D01*
X123690000Y-87675000D02*
X125525000Y-87675000D01*
%TO.N,Net-(R4-Pad1)*%
X124465000Y-89675000D02*
X125875000Y-91085000D01*
X125875000Y-91085000D02*
X125875000Y-91175000D01*
X123690000Y-89675000D02*
X124465000Y-89675000D01*
%TO.N,Net-(R5-Pad1)*%
X125775000Y-93525000D02*
X125875000Y-93625000D01*
X123690000Y-93525000D02*
X125775000Y-93525000D01*
X125875000Y-93625000D02*
X125875000Y-93715000D01*
%TO.N,Net-(R6-Pad2)*%
X136335000Y-90305000D02*
X137565000Y-90305000D01*
X137455168Y-90354832D02*
X137453989Y-90354832D01*
X135465000Y-91175000D02*
X136335000Y-90305000D01*
X135375000Y-91175000D02*
X135465000Y-91175000D01*
X137505000Y-90305000D02*
X137455168Y-90354832D01*
%TO.N,Net-(R7-Pad2)*%
X135375000Y-93715000D02*
X135465000Y-93715000D01*
X136335000Y-92845000D02*
X137165000Y-92845000D01*
X135465000Y-93715000D02*
X136335000Y-92845000D01*
X137105000Y-92845000D02*
X137575000Y-92375000D01*
%TO.N,/GPIO_PWRSW*%
X122975000Y-82025000D02*
X123700000Y-82025000D01*
X120100000Y-84900000D02*
X122975000Y-82025000D01*
X120075000Y-84925000D02*
X120100000Y-84950000D01*
X120100000Y-84950000D02*
X120100000Y-84900000D01*
%TO.N,/ATX_PWRSW_A*%
X141975000Y-83775000D02*
X139575000Y-81375000D01*
X142900298Y-83740057D02*
X142865355Y-83775000D01*
X142865355Y-83775000D02*
X141975000Y-83775000D01*
X143000298Y-83740057D02*
X146100298Y-86840057D01*
X142900298Y-83740057D02*
X143000298Y-83740057D01*
%TO.N,/GPIO_PWRLED*%
X122925000Y-91525000D02*
X123690000Y-91525000D01*
X120075000Y-88675000D02*
X122925000Y-91525000D01*
%TO.N,/ATX_PWRLED+*%
X139575000Y-92375000D02*
X141125000Y-92375000D01*
X151400298Y-90040057D02*
X151224298Y-89864057D01*
X145250298Y-89990057D02*
X146100298Y-90840057D01*
X151224298Y-89864057D02*
X147076298Y-89864057D01*
X147076298Y-89864057D02*
X146100298Y-90840057D01*
X142900298Y-89990057D02*
X145250298Y-89990057D01*
X142900298Y-90599702D02*
X142900298Y-89990057D01*
X141125000Y-92375000D02*
X142900298Y-90599702D01*
%TO.N,/GPIO_RSTSW*%
X123390000Y-86175000D02*
X123700000Y-85865000D01*
X123905000Y-85635000D02*
X123765000Y-85775000D01*
X120075000Y-86175000D02*
X123390000Y-86175000D01*
X123700000Y-85865000D02*
X123700000Y-85850000D01*
%TO.N,/ATX_RSTSW_A*%
X148750298Y-84840057D02*
X150200298Y-86290057D01*
X142900298Y-86240057D02*
X142885523Y-86254832D01*
X148100298Y-84840057D02*
X148750298Y-84840057D01*
X139853989Y-86254832D02*
X139453989Y-85854832D01*
X142885523Y-86254832D02*
X139853989Y-86254832D01*
X150200298Y-86290057D02*
X151400298Y-86290057D01*
%TO.N,Net-(R8-Pad2)*%
X125875000Y-85575000D02*
X125875000Y-85485000D01*
X124240000Y-83850000D02*
X123700000Y-83850000D01*
X125875000Y-85485000D02*
X124240000Y-83850000D01*
%TO.N,Net-(R9-Pad1)*%
X137335000Y-85635000D02*
X137453989Y-85753989D01*
X137453989Y-85753989D02*
X137453989Y-85854832D01*
X135735000Y-85635000D02*
X137395000Y-85635000D01*
%TO.N,Net-(R10-Pad1)*%
X137453989Y-88096011D02*
X137453989Y-87954832D01*
X137375000Y-88175000D02*
X137453989Y-88096011D01*
X135735000Y-88175000D02*
X137435000Y-88175000D01*
%TO.N,/ATX_PWRLED-*%
X153900298Y-87540057D02*
X154570298Y-86870057D01*
X142900298Y-87490057D02*
X142885523Y-87504832D01*
X147124298Y-87816057D02*
X148100298Y-86840057D01*
X143226298Y-87816057D02*
X147124298Y-87816057D01*
X151400298Y-87540057D02*
X153900298Y-87540057D01*
X150150298Y-87540057D02*
X151400298Y-87540057D01*
X149450298Y-86840057D02*
X150150298Y-87540057D01*
X151400298Y-88790057D02*
X153050298Y-88790057D01*
X153050298Y-88790057D02*
X154950298Y-90690057D01*
X154570298Y-86870057D02*
X155800298Y-86870057D01*
X148100298Y-86840057D02*
X149450298Y-86840057D01*
X150050298Y-88790057D02*
X148100298Y-86840057D01*
X157150298Y-85520057D02*
X158340298Y-84330057D01*
X141053989Y-88754832D02*
X142885523Y-88754832D01*
X139903989Y-87504832D02*
X139453989Y-87954832D01*
X156386058Y-90690057D02*
X157150298Y-89925817D01*
X151400298Y-88790057D02*
X150050298Y-88790057D01*
X154950298Y-90690057D02*
X156386058Y-90690057D01*
X139453989Y-90354832D02*
X141053989Y-88754832D01*
X157150298Y-89925817D02*
X157150298Y-85520057D01*
X142885523Y-87504832D02*
X139903989Y-87504832D01*
X142900298Y-87490057D02*
X143226298Y-87816057D01*
X142885523Y-88754832D02*
X142900298Y-88740057D01*
%TO.N,/ATX_PWRSW_B*%
X142885523Y-85004832D02*
X141103989Y-85004832D01*
X146100298Y-84840057D02*
X147076298Y-83864057D01*
X141103989Y-85004832D02*
X139453989Y-83354832D01*
X149024298Y-83864057D02*
X150200298Y-85040057D01*
X150200298Y-85040057D02*
X151400298Y-85040057D01*
X142900298Y-84990057D02*
X142885523Y-85004832D01*
X147076298Y-83864057D02*
X149024298Y-83864057D01*
%TD*%
M02*
