%TF.GenerationSoftware,KiCad,Pcbnew,9.0.2*%
%TF.CreationDate,2025-05-16T22:42:49+09:00*%
%TF.ProjectId,kvm_switch,6b766d5f-7377-4697-9463-682e6b696361,rev?*%
%TF.SameCoordinates,Original*%
%TF.FileFunction,Legend,Bot*%
%TF.FilePolarity,Positive*%
%FSLAX46Y46*%
G04 Gerber Fmt 4.6, Leading zero omitted, Abs format (unit mm)*
G04 Created by KiCad (PCBNEW 9.0.2) date 2025-05-16 22:42:49*
%MOMM*%
%LPD*%
G01*
G04 APERTURE LIST*
%ADD10C,0.100000*%
%ADD11C,0.120000*%
G04 APERTURE END LIST*
D10*
X131700000Y-86680000D02*
X129950000Y-87680000D01*
X129950000Y-86930000D01*
X127450000Y-86930000D01*
X127450000Y-86180000D01*
X129950000Y-86180000D01*
X129950000Y-85430000D01*
X131700000Y-86680000D01*
G36*
X131700000Y-86680000D02*
G01*
X129950000Y-87680000D01*
X129950000Y-86930000D01*
X127450000Y-86930000D01*
X127450000Y-86180000D01*
X129950000Y-86180000D01*
X129950000Y-85430000D01*
X131700000Y-86680000D01*
G37*
X142300000Y-93800000D02*
X142200000Y-80100000D01*
X135646115Y-81872419D02*
X135646115Y-80872419D01*
X135074687Y-81872419D02*
X135503258Y-81300990D01*
X135074687Y-80872419D02*
X135646115Y-81443847D01*
X134788972Y-80872419D02*
X134455639Y-81872419D01*
X134455639Y-81872419D02*
X134122306Y-80872419D01*
X133788972Y-81872419D02*
X133788972Y-80872419D01*
X133788972Y-80872419D02*
X133455639Y-81586704D01*
X133455639Y-81586704D02*
X133122306Y-80872419D01*
X133122306Y-80872419D02*
X133122306Y-81872419D01*
X131931829Y-81824800D02*
X131788972Y-81872419D01*
X131788972Y-81872419D02*
X131550877Y-81872419D01*
X131550877Y-81872419D02*
X131455639Y-81824800D01*
X131455639Y-81824800D02*
X131408020Y-81777180D01*
X131408020Y-81777180D02*
X131360401Y-81681942D01*
X131360401Y-81681942D02*
X131360401Y-81586704D01*
X131360401Y-81586704D02*
X131408020Y-81491466D01*
X131408020Y-81491466D02*
X131455639Y-81443847D01*
X131455639Y-81443847D02*
X131550877Y-81396228D01*
X131550877Y-81396228D02*
X131741353Y-81348609D01*
X131741353Y-81348609D02*
X131836591Y-81300990D01*
X131836591Y-81300990D02*
X131884210Y-81253371D01*
X131884210Y-81253371D02*
X131931829Y-81158133D01*
X131931829Y-81158133D02*
X131931829Y-81062895D01*
X131931829Y-81062895D02*
X131884210Y-80967657D01*
X131884210Y-80967657D02*
X131836591Y-80920038D01*
X131836591Y-80920038D02*
X131741353Y-80872419D01*
X131741353Y-80872419D02*
X131503258Y-80872419D01*
X131503258Y-80872419D02*
X131360401Y-80920038D01*
X131027067Y-81205752D02*
X130836591Y-81872419D01*
X130836591Y-81872419D02*
X130646115Y-81396228D01*
X130646115Y-81396228D02*
X130455639Y-81872419D01*
X130455639Y-81872419D02*
X130265163Y-81205752D01*
X129884210Y-81872419D02*
X129884210Y-81205752D01*
X129884210Y-80872419D02*
X129931829Y-80920038D01*
X129931829Y-80920038D02*
X129884210Y-80967657D01*
X129884210Y-80967657D02*
X129836591Y-80920038D01*
X129836591Y-80920038D02*
X129884210Y-80872419D01*
X129884210Y-80872419D02*
X129884210Y-80967657D01*
X129550877Y-81205752D02*
X129169925Y-81205752D01*
X129408020Y-80872419D02*
X129408020Y-81729561D01*
X129408020Y-81729561D02*
X129360401Y-81824800D01*
X129360401Y-81824800D02*
X129265163Y-81872419D01*
X129265163Y-81872419D02*
X129169925Y-81872419D01*
X128408020Y-81824800D02*
X128503258Y-81872419D01*
X128503258Y-81872419D02*
X128693734Y-81872419D01*
X128693734Y-81872419D02*
X128788972Y-81824800D01*
X128788972Y-81824800D02*
X128836591Y-81777180D01*
X128836591Y-81777180D02*
X128884210Y-81681942D01*
X128884210Y-81681942D02*
X128884210Y-81396228D01*
X128884210Y-81396228D02*
X128836591Y-81300990D01*
X128836591Y-81300990D02*
X128788972Y-81253371D01*
X128788972Y-81253371D02*
X128693734Y-81205752D01*
X128693734Y-81205752D02*
X128503258Y-81205752D01*
X128503258Y-81205752D02*
X128408020Y-81253371D01*
X127979448Y-81872419D02*
X127979448Y-80872419D01*
X127550877Y-81872419D02*
X127550877Y-81348609D01*
X127550877Y-81348609D02*
X127598496Y-81253371D01*
X127598496Y-81253371D02*
X127693734Y-81205752D01*
X127693734Y-81205752D02*
X127836591Y-81205752D01*
X127836591Y-81205752D02*
X127931829Y-81253371D01*
X127931829Y-81253371D02*
X127979448Y-81300990D01*
X125979448Y-81348609D02*
X125836591Y-81396228D01*
X125836591Y-81396228D02*
X125788972Y-81443847D01*
X125788972Y-81443847D02*
X125741353Y-81539085D01*
X125741353Y-81539085D02*
X125741353Y-81681942D01*
X125741353Y-81681942D02*
X125788972Y-81777180D01*
X125788972Y-81777180D02*
X125836591Y-81824800D01*
X125836591Y-81824800D02*
X125931829Y-81872419D01*
X125931829Y-81872419D02*
X126312781Y-81872419D01*
X126312781Y-81872419D02*
X126312781Y-80872419D01*
X126312781Y-80872419D02*
X125979448Y-80872419D01*
X125979448Y-80872419D02*
X125884210Y-80920038D01*
X125884210Y-80920038D02*
X125836591Y-80967657D01*
X125836591Y-80967657D02*
X125788972Y-81062895D01*
X125788972Y-81062895D02*
X125788972Y-81158133D01*
X125788972Y-81158133D02*
X125836591Y-81253371D01*
X125836591Y-81253371D02*
X125884210Y-81300990D01*
X125884210Y-81300990D02*
X125979448Y-81348609D01*
X125979448Y-81348609D02*
X126312781Y-81348609D01*
X125169924Y-81872419D02*
X125265162Y-81824800D01*
X125265162Y-81824800D02*
X125312781Y-81777180D01*
X125312781Y-81777180D02*
X125360400Y-81681942D01*
X125360400Y-81681942D02*
X125360400Y-81396228D01*
X125360400Y-81396228D02*
X125312781Y-81300990D01*
X125312781Y-81300990D02*
X125265162Y-81253371D01*
X125265162Y-81253371D02*
X125169924Y-81205752D01*
X125169924Y-81205752D02*
X125027067Y-81205752D01*
X125027067Y-81205752D02*
X124931829Y-81253371D01*
X124931829Y-81253371D02*
X124884210Y-81300990D01*
X124884210Y-81300990D02*
X124836591Y-81396228D01*
X124836591Y-81396228D02*
X124836591Y-81681942D01*
X124836591Y-81681942D02*
X124884210Y-81777180D01*
X124884210Y-81777180D02*
X124931829Y-81824800D01*
X124931829Y-81824800D02*
X125027067Y-81872419D01*
X125027067Y-81872419D02*
X125169924Y-81872419D01*
X123979448Y-81872419D02*
X123979448Y-81348609D01*
X123979448Y-81348609D02*
X124027067Y-81253371D01*
X124027067Y-81253371D02*
X124122305Y-81205752D01*
X124122305Y-81205752D02*
X124312781Y-81205752D01*
X124312781Y-81205752D02*
X124408019Y-81253371D01*
X123979448Y-81824800D02*
X124074686Y-81872419D01*
X124074686Y-81872419D02*
X124312781Y-81872419D01*
X124312781Y-81872419D02*
X124408019Y-81824800D01*
X124408019Y-81824800D02*
X124455638Y-81729561D01*
X124455638Y-81729561D02*
X124455638Y-81634323D01*
X124455638Y-81634323D02*
X124408019Y-81539085D01*
X124408019Y-81539085D02*
X124312781Y-81491466D01*
X124312781Y-81491466D02*
X124074686Y-81491466D01*
X124074686Y-81491466D02*
X123979448Y-81443847D01*
X123503257Y-81872419D02*
X123503257Y-81205752D01*
X123503257Y-81396228D02*
X123455638Y-81300990D01*
X123455638Y-81300990D02*
X123408019Y-81253371D01*
X123408019Y-81253371D02*
X123312781Y-81205752D01*
X123312781Y-81205752D02*
X123217543Y-81205752D01*
X122455638Y-81872419D02*
X122455638Y-80872419D01*
X122455638Y-81824800D02*
X122550876Y-81872419D01*
X122550876Y-81872419D02*
X122741352Y-81872419D01*
X122741352Y-81872419D02*
X122836590Y-81824800D01*
X122836590Y-81824800D02*
X122884209Y-81777180D01*
X122884209Y-81777180D02*
X122931828Y-81681942D01*
X122931828Y-81681942D02*
X122931828Y-81396228D01*
X122931828Y-81396228D02*
X122884209Y-81300990D01*
X122884209Y-81300990D02*
X122836590Y-81253371D01*
X122836590Y-81253371D02*
X122741352Y-81205752D01*
X122741352Y-81205752D02*
X122550876Y-81205752D01*
X122550876Y-81205752D02*
X122455638Y-81253371D01*
X125327580Y-87876115D02*
X126327580Y-87876115D01*
X125327580Y-87304687D02*
X125899009Y-87733258D01*
X126327580Y-87304687D02*
X125756152Y-87876115D01*
X126327580Y-87018972D02*
X125327580Y-86685639D01*
X125327580Y-86685639D02*
X126327580Y-86352306D01*
X125327580Y-86018972D02*
X126327580Y-86018972D01*
X126327580Y-86018972D02*
X125613295Y-85685639D01*
X125613295Y-85685639D02*
X126327580Y-85352306D01*
X126327580Y-85352306D02*
X125327580Y-85352306D01*
X122643734Y-85333030D02*
X122643734Y-84533030D01*
X122643734Y-84533030D02*
X122338972Y-84533030D01*
X122338972Y-84533030D02*
X122262782Y-84571125D01*
X122262782Y-84571125D02*
X122224687Y-84609220D01*
X122224687Y-84609220D02*
X122186591Y-84685411D01*
X122186591Y-84685411D02*
X122186591Y-84799696D01*
X122186591Y-84799696D02*
X122224687Y-84875887D01*
X122224687Y-84875887D02*
X122262782Y-84913982D01*
X122262782Y-84913982D02*
X122338972Y-84952077D01*
X122338972Y-84952077D02*
X122643734Y-84952077D01*
X121919925Y-84533030D02*
X121729449Y-85333030D01*
X121729449Y-85333030D02*
X121577068Y-84761601D01*
X121577068Y-84761601D02*
X121424687Y-85333030D01*
X121424687Y-85333030D02*
X121234211Y-84533030D01*
X120472305Y-85333030D02*
X120738972Y-84952077D01*
X120929448Y-85333030D02*
X120929448Y-84533030D01*
X120929448Y-84533030D02*
X120624686Y-84533030D01*
X120624686Y-84533030D02*
X120548496Y-84571125D01*
X120548496Y-84571125D02*
X120510401Y-84609220D01*
X120510401Y-84609220D02*
X120472305Y-84685411D01*
X120472305Y-84685411D02*
X120472305Y-84799696D01*
X120472305Y-84799696D02*
X120510401Y-84875887D01*
X120510401Y-84875887D02*
X120548496Y-84913982D01*
X120548496Y-84913982D02*
X120624686Y-84952077D01*
X120624686Y-84952077D02*
X120929448Y-84952077D01*
X122186591Y-86620985D02*
X122453258Y-86240032D01*
X122643734Y-86620985D02*
X122643734Y-85820985D01*
X122643734Y-85820985D02*
X122338972Y-85820985D01*
X122338972Y-85820985D02*
X122262782Y-85859080D01*
X122262782Y-85859080D02*
X122224687Y-85897175D01*
X122224687Y-85897175D02*
X122186591Y-85973366D01*
X122186591Y-85973366D02*
X122186591Y-86087651D01*
X122186591Y-86087651D02*
X122224687Y-86163842D01*
X122224687Y-86163842D02*
X122262782Y-86201937D01*
X122262782Y-86201937D02*
X122338972Y-86240032D01*
X122338972Y-86240032D02*
X122643734Y-86240032D01*
X121881830Y-86582890D02*
X121767544Y-86620985D01*
X121767544Y-86620985D02*
X121577068Y-86620985D01*
X121577068Y-86620985D02*
X121500877Y-86582890D01*
X121500877Y-86582890D02*
X121462782Y-86544794D01*
X121462782Y-86544794D02*
X121424687Y-86468604D01*
X121424687Y-86468604D02*
X121424687Y-86392413D01*
X121424687Y-86392413D02*
X121462782Y-86316223D01*
X121462782Y-86316223D02*
X121500877Y-86278128D01*
X121500877Y-86278128D02*
X121577068Y-86240032D01*
X121577068Y-86240032D02*
X121729449Y-86201937D01*
X121729449Y-86201937D02*
X121805639Y-86163842D01*
X121805639Y-86163842D02*
X121843734Y-86125747D01*
X121843734Y-86125747D02*
X121881830Y-86049556D01*
X121881830Y-86049556D02*
X121881830Y-85973366D01*
X121881830Y-85973366D02*
X121843734Y-85897175D01*
X121843734Y-85897175D02*
X121805639Y-85859080D01*
X121805639Y-85859080D02*
X121729449Y-85820985D01*
X121729449Y-85820985D02*
X121538972Y-85820985D01*
X121538972Y-85820985D02*
X121424687Y-85859080D01*
X121196115Y-85820985D02*
X120738972Y-85820985D01*
X120967544Y-86620985D02*
X120967544Y-85820985D01*
X122224687Y-87147035D02*
X122300877Y-87108940D01*
X122300877Y-87108940D02*
X122415163Y-87108940D01*
X122415163Y-87108940D02*
X122529449Y-87147035D01*
X122529449Y-87147035D02*
X122605639Y-87223225D01*
X122605639Y-87223225D02*
X122643734Y-87299416D01*
X122643734Y-87299416D02*
X122681830Y-87451797D01*
X122681830Y-87451797D02*
X122681830Y-87566083D01*
X122681830Y-87566083D02*
X122643734Y-87718464D01*
X122643734Y-87718464D02*
X122605639Y-87794654D01*
X122605639Y-87794654D02*
X122529449Y-87870845D01*
X122529449Y-87870845D02*
X122415163Y-87908940D01*
X122415163Y-87908940D02*
X122338972Y-87908940D01*
X122338972Y-87908940D02*
X122224687Y-87870845D01*
X122224687Y-87870845D02*
X122186591Y-87832749D01*
X122186591Y-87832749D02*
X122186591Y-87566083D01*
X122186591Y-87566083D02*
X122338972Y-87566083D01*
X121843734Y-87908940D02*
X121843734Y-87108940D01*
X121843734Y-87108940D02*
X121386591Y-87908940D01*
X121386591Y-87908940D02*
X121386591Y-87108940D01*
X121005639Y-87908940D02*
X121005639Y-87108940D01*
X121005639Y-87108940D02*
X120815163Y-87108940D01*
X120815163Y-87108940D02*
X120700877Y-87147035D01*
X120700877Y-87147035D02*
X120624687Y-87223225D01*
X120624687Y-87223225D02*
X120586592Y-87299416D01*
X120586592Y-87299416D02*
X120548496Y-87451797D01*
X120548496Y-87451797D02*
X120548496Y-87566083D01*
X120548496Y-87566083D02*
X120586592Y-87718464D01*
X120586592Y-87718464D02*
X120624687Y-87794654D01*
X120624687Y-87794654D02*
X120700877Y-87870845D01*
X120700877Y-87870845D02*
X120815163Y-87908940D01*
X120815163Y-87908940D02*
X121005639Y-87908940D01*
X122262782Y-89196895D02*
X122643734Y-89196895D01*
X122643734Y-89196895D02*
X122643734Y-88396895D01*
X121996115Y-88777847D02*
X121729449Y-88777847D01*
X121615163Y-89196895D02*
X121996115Y-89196895D01*
X121996115Y-89196895D02*
X121996115Y-88396895D01*
X121996115Y-88396895D02*
X121615163Y-88396895D01*
X121272305Y-89196895D02*
X121272305Y-88396895D01*
X121272305Y-88396895D02*
X121081829Y-88396895D01*
X121081829Y-88396895D02*
X120967543Y-88434990D01*
X120967543Y-88434990D02*
X120891353Y-88511180D01*
X120891353Y-88511180D02*
X120853258Y-88587371D01*
X120853258Y-88587371D02*
X120815162Y-88739752D01*
X120815162Y-88739752D02*
X120815162Y-88854038D01*
X120815162Y-88854038D02*
X120853258Y-89006419D01*
X120853258Y-89006419D02*
X120891353Y-89082609D01*
X120891353Y-89082609D02*
X120967543Y-89158800D01*
X120967543Y-89158800D02*
X121081829Y-89196895D01*
X121081829Y-89196895D02*
X121272305Y-89196895D01*
X133536704Y-85686265D02*
X133536704Y-86162455D01*
X133822419Y-85591027D02*
X132822419Y-85924360D01*
X132822419Y-85924360D02*
X133822419Y-86257693D01*
X132822419Y-86448170D02*
X132822419Y-87019598D01*
X133822419Y-86733884D02*
X132822419Y-86733884D01*
X132822419Y-87257694D02*
X133822419Y-87924360D01*
X132822419Y-87924360D02*
X133822419Y-87257694D01*
X151767544Y-83957120D02*
X151767544Y-83157120D01*
X151767544Y-83157120D02*
X151500877Y-83157120D01*
X151500877Y-83157120D02*
X151434211Y-83195215D01*
X151434211Y-83195215D02*
X151400877Y-83233310D01*
X151400877Y-83233310D02*
X151367544Y-83309501D01*
X151367544Y-83309501D02*
X151367544Y-83423786D01*
X151367544Y-83423786D02*
X151400877Y-83499977D01*
X151400877Y-83499977D02*
X151434211Y-83538072D01*
X151434211Y-83538072D02*
X151500877Y-83576167D01*
X151500877Y-83576167D02*
X151767544Y-83576167D01*
X151134211Y-83157120D02*
X150967544Y-83957120D01*
X150967544Y-83957120D02*
X150834211Y-83385691D01*
X150834211Y-83385691D02*
X150700877Y-83957120D01*
X150700877Y-83957120D02*
X150534211Y-83157120D01*
X150267544Y-83652358D02*
X149734211Y-83652358D01*
X150000877Y-83957120D02*
X150000877Y-83347596D01*
X151767544Y-85245075D02*
X151767544Y-84445075D01*
X151767544Y-84445075D02*
X151500877Y-84445075D01*
X151500877Y-84445075D02*
X151434211Y-84483170D01*
X151434211Y-84483170D02*
X151400877Y-84521265D01*
X151400877Y-84521265D02*
X151367544Y-84597456D01*
X151367544Y-84597456D02*
X151367544Y-84711741D01*
X151367544Y-84711741D02*
X151400877Y-84787932D01*
X151400877Y-84787932D02*
X151434211Y-84826027D01*
X151434211Y-84826027D02*
X151500877Y-84864122D01*
X151500877Y-84864122D02*
X151767544Y-84864122D01*
X151134211Y-84445075D02*
X150967544Y-85245075D01*
X150967544Y-85245075D02*
X150834211Y-84673646D01*
X150834211Y-84673646D02*
X150700877Y-85245075D01*
X150700877Y-85245075D02*
X150534211Y-84445075D01*
X150267544Y-84940313D02*
X149734211Y-84940313D01*
X151367544Y-86533030D02*
X151600877Y-86152077D01*
X151767544Y-86533030D02*
X151767544Y-85733030D01*
X151767544Y-85733030D02*
X151500877Y-85733030D01*
X151500877Y-85733030D02*
X151434211Y-85771125D01*
X151434211Y-85771125D02*
X151400877Y-85809220D01*
X151400877Y-85809220D02*
X151367544Y-85885411D01*
X151367544Y-85885411D02*
X151367544Y-85999696D01*
X151367544Y-85999696D02*
X151400877Y-86075887D01*
X151400877Y-86075887D02*
X151434211Y-86113982D01*
X151434211Y-86113982D02*
X151500877Y-86152077D01*
X151500877Y-86152077D02*
X151767544Y-86152077D01*
X151100877Y-86494935D02*
X151000877Y-86533030D01*
X151000877Y-86533030D02*
X150834211Y-86533030D01*
X150834211Y-86533030D02*
X150767544Y-86494935D01*
X150767544Y-86494935D02*
X150734211Y-86456839D01*
X150734211Y-86456839D02*
X150700877Y-86380649D01*
X150700877Y-86380649D02*
X150700877Y-86304458D01*
X150700877Y-86304458D02*
X150734211Y-86228268D01*
X150734211Y-86228268D02*
X150767544Y-86190173D01*
X150767544Y-86190173D02*
X150834211Y-86152077D01*
X150834211Y-86152077D02*
X150967544Y-86113982D01*
X150967544Y-86113982D02*
X151034211Y-86075887D01*
X151034211Y-86075887D02*
X151067544Y-86037792D01*
X151067544Y-86037792D02*
X151100877Y-85961601D01*
X151100877Y-85961601D02*
X151100877Y-85885411D01*
X151100877Y-85885411D02*
X151067544Y-85809220D01*
X151067544Y-85809220D02*
X151034211Y-85771125D01*
X151034211Y-85771125D02*
X150967544Y-85733030D01*
X150967544Y-85733030D02*
X150800877Y-85733030D01*
X150800877Y-85733030D02*
X150700877Y-85771125D01*
X150400877Y-86228268D02*
X149867544Y-86228268D01*
X150134210Y-86533030D02*
X150134210Y-85923506D01*
X151367544Y-87820985D02*
X151600877Y-87440032D01*
X151767544Y-87820985D02*
X151767544Y-87020985D01*
X151767544Y-87020985D02*
X151500877Y-87020985D01*
X151500877Y-87020985D02*
X151434211Y-87059080D01*
X151434211Y-87059080D02*
X151400877Y-87097175D01*
X151400877Y-87097175D02*
X151367544Y-87173366D01*
X151367544Y-87173366D02*
X151367544Y-87287651D01*
X151367544Y-87287651D02*
X151400877Y-87363842D01*
X151400877Y-87363842D02*
X151434211Y-87401937D01*
X151434211Y-87401937D02*
X151500877Y-87440032D01*
X151500877Y-87440032D02*
X151767544Y-87440032D01*
X151100877Y-87782890D02*
X151000877Y-87820985D01*
X151000877Y-87820985D02*
X150834211Y-87820985D01*
X150834211Y-87820985D02*
X150767544Y-87782890D01*
X150767544Y-87782890D02*
X150734211Y-87744794D01*
X150734211Y-87744794D02*
X150700877Y-87668604D01*
X150700877Y-87668604D02*
X150700877Y-87592413D01*
X150700877Y-87592413D02*
X150734211Y-87516223D01*
X150734211Y-87516223D02*
X150767544Y-87478128D01*
X150767544Y-87478128D02*
X150834211Y-87440032D01*
X150834211Y-87440032D02*
X150967544Y-87401937D01*
X150967544Y-87401937D02*
X151034211Y-87363842D01*
X151034211Y-87363842D02*
X151067544Y-87325747D01*
X151067544Y-87325747D02*
X151100877Y-87249556D01*
X151100877Y-87249556D02*
X151100877Y-87173366D01*
X151100877Y-87173366D02*
X151067544Y-87097175D01*
X151067544Y-87097175D02*
X151034211Y-87059080D01*
X151034211Y-87059080D02*
X150967544Y-87020985D01*
X150967544Y-87020985D02*
X150800877Y-87020985D01*
X150800877Y-87020985D02*
X150700877Y-87059080D01*
X150400877Y-87516223D02*
X149867544Y-87516223D01*
X151434211Y-89108940D02*
X151767544Y-89108940D01*
X151767544Y-89108940D02*
X151767544Y-88308940D01*
X151200877Y-89108940D02*
X151200877Y-88308940D01*
X151200877Y-88308940D02*
X151034210Y-88308940D01*
X151034210Y-88308940D02*
X150934210Y-88347035D01*
X150934210Y-88347035D02*
X150867544Y-88423225D01*
X150867544Y-88423225D02*
X150834210Y-88499416D01*
X150834210Y-88499416D02*
X150800877Y-88651797D01*
X150800877Y-88651797D02*
X150800877Y-88766083D01*
X150800877Y-88766083D02*
X150834210Y-88918464D01*
X150834210Y-88918464D02*
X150867544Y-88994654D01*
X150867544Y-88994654D02*
X150934210Y-89070845D01*
X150934210Y-89070845D02*
X151034210Y-89108940D01*
X151034210Y-89108940D02*
X151200877Y-89108940D01*
X150500877Y-88804178D02*
X149967544Y-88804178D01*
X151434211Y-90396895D02*
X151767544Y-90396895D01*
X151767544Y-90396895D02*
X151767544Y-89596895D01*
X151200877Y-90396895D02*
X151200877Y-89596895D01*
X151200877Y-89596895D02*
X151034210Y-89596895D01*
X151034210Y-89596895D02*
X150934210Y-89634990D01*
X150934210Y-89634990D02*
X150867544Y-89711180D01*
X150867544Y-89711180D02*
X150834210Y-89787371D01*
X150834210Y-89787371D02*
X150800877Y-89939752D01*
X150800877Y-89939752D02*
X150800877Y-90054038D01*
X150800877Y-90054038D02*
X150834210Y-90206419D01*
X150834210Y-90206419D02*
X150867544Y-90282609D01*
X150867544Y-90282609D02*
X150934210Y-90358800D01*
X150934210Y-90358800D02*
X151034210Y-90396895D01*
X151034210Y-90396895D02*
X151200877Y-90396895D01*
X150500877Y-90092133D02*
X149967544Y-90092133D01*
X150234210Y-90396895D02*
X150234210Y-89787371D01*
X139343734Y-84107120D02*
X139343734Y-83307120D01*
X139343734Y-83307120D02*
X139038972Y-83307120D01*
X139038972Y-83307120D02*
X138962782Y-83345215D01*
X138962782Y-83345215D02*
X138924687Y-83383310D01*
X138924687Y-83383310D02*
X138886591Y-83459501D01*
X138886591Y-83459501D02*
X138886591Y-83573786D01*
X138886591Y-83573786D02*
X138924687Y-83649977D01*
X138924687Y-83649977D02*
X138962782Y-83688072D01*
X138962782Y-83688072D02*
X139038972Y-83726167D01*
X139038972Y-83726167D02*
X139343734Y-83726167D01*
X138619925Y-83307120D02*
X138429449Y-84107120D01*
X138429449Y-84107120D02*
X138277068Y-83535691D01*
X138277068Y-83535691D02*
X138124687Y-84107120D01*
X138124687Y-84107120D02*
X137934211Y-83307120D01*
X137172305Y-84107120D02*
X137438972Y-83726167D01*
X137629448Y-84107120D02*
X137629448Y-83307120D01*
X137629448Y-83307120D02*
X137324686Y-83307120D01*
X137324686Y-83307120D02*
X137248496Y-83345215D01*
X137248496Y-83345215D02*
X137210401Y-83383310D01*
X137210401Y-83383310D02*
X137172305Y-83459501D01*
X137172305Y-83459501D02*
X137172305Y-83573786D01*
X137172305Y-83573786D02*
X137210401Y-83649977D01*
X137210401Y-83649977D02*
X137248496Y-83688072D01*
X137248496Y-83688072D02*
X137324686Y-83726167D01*
X137324686Y-83726167D02*
X137629448Y-83726167D01*
X137019925Y-84183310D02*
X136410401Y-84183310D01*
X136258020Y-83878548D02*
X135877067Y-83878548D01*
X136334210Y-84107120D02*
X136067543Y-83307120D01*
X136067543Y-83307120D02*
X135800877Y-84107120D01*
X139343734Y-85395075D02*
X139343734Y-84595075D01*
X139343734Y-84595075D02*
X139038972Y-84595075D01*
X139038972Y-84595075D02*
X138962782Y-84633170D01*
X138962782Y-84633170D02*
X138924687Y-84671265D01*
X138924687Y-84671265D02*
X138886591Y-84747456D01*
X138886591Y-84747456D02*
X138886591Y-84861741D01*
X138886591Y-84861741D02*
X138924687Y-84937932D01*
X138924687Y-84937932D02*
X138962782Y-84976027D01*
X138962782Y-84976027D02*
X139038972Y-85014122D01*
X139038972Y-85014122D02*
X139343734Y-85014122D01*
X138619925Y-84595075D02*
X138429449Y-85395075D01*
X138429449Y-85395075D02*
X138277068Y-84823646D01*
X138277068Y-84823646D02*
X138124687Y-85395075D01*
X138124687Y-85395075D02*
X137934211Y-84595075D01*
X137172305Y-85395075D02*
X137438972Y-85014122D01*
X137629448Y-85395075D02*
X137629448Y-84595075D01*
X137629448Y-84595075D02*
X137324686Y-84595075D01*
X137324686Y-84595075D02*
X137248496Y-84633170D01*
X137248496Y-84633170D02*
X137210401Y-84671265D01*
X137210401Y-84671265D02*
X137172305Y-84747456D01*
X137172305Y-84747456D02*
X137172305Y-84861741D01*
X137172305Y-84861741D02*
X137210401Y-84937932D01*
X137210401Y-84937932D02*
X137248496Y-84976027D01*
X137248496Y-84976027D02*
X137324686Y-85014122D01*
X137324686Y-85014122D02*
X137629448Y-85014122D01*
X137019925Y-85471265D02*
X136410401Y-85471265D01*
X135953258Y-84976027D02*
X135838972Y-85014122D01*
X135838972Y-85014122D02*
X135800877Y-85052218D01*
X135800877Y-85052218D02*
X135762781Y-85128408D01*
X135762781Y-85128408D02*
X135762781Y-85242694D01*
X135762781Y-85242694D02*
X135800877Y-85318884D01*
X135800877Y-85318884D02*
X135838972Y-85356980D01*
X135838972Y-85356980D02*
X135915162Y-85395075D01*
X135915162Y-85395075D02*
X136219924Y-85395075D01*
X136219924Y-85395075D02*
X136219924Y-84595075D01*
X136219924Y-84595075D02*
X135953258Y-84595075D01*
X135953258Y-84595075D02*
X135877067Y-84633170D01*
X135877067Y-84633170D02*
X135838972Y-84671265D01*
X135838972Y-84671265D02*
X135800877Y-84747456D01*
X135800877Y-84747456D02*
X135800877Y-84823646D01*
X135800877Y-84823646D02*
X135838972Y-84899837D01*
X135838972Y-84899837D02*
X135877067Y-84937932D01*
X135877067Y-84937932D02*
X135953258Y-84976027D01*
X135953258Y-84976027D02*
X136219924Y-84976027D01*
X138886591Y-86683030D02*
X139153258Y-86302077D01*
X139343734Y-86683030D02*
X139343734Y-85883030D01*
X139343734Y-85883030D02*
X139038972Y-85883030D01*
X139038972Y-85883030D02*
X138962782Y-85921125D01*
X138962782Y-85921125D02*
X138924687Y-85959220D01*
X138924687Y-85959220D02*
X138886591Y-86035411D01*
X138886591Y-86035411D02*
X138886591Y-86149696D01*
X138886591Y-86149696D02*
X138924687Y-86225887D01*
X138924687Y-86225887D02*
X138962782Y-86263982D01*
X138962782Y-86263982D02*
X139038972Y-86302077D01*
X139038972Y-86302077D02*
X139343734Y-86302077D01*
X138581830Y-86644935D02*
X138467544Y-86683030D01*
X138467544Y-86683030D02*
X138277068Y-86683030D01*
X138277068Y-86683030D02*
X138200877Y-86644935D01*
X138200877Y-86644935D02*
X138162782Y-86606839D01*
X138162782Y-86606839D02*
X138124687Y-86530649D01*
X138124687Y-86530649D02*
X138124687Y-86454458D01*
X138124687Y-86454458D02*
X138162782Y-86378268D01*
X138162782Y-86378268D02*
X138200877Y-86340173D01*
X138200877Y-86340173D02*
X138277068Y-86302077D01*
X138277068Y-86302077D02*
X138429449Y-86263982D01*
X138429449Y-86263982D02*
X138505639Y-86225887D01*
X138505639Y-86225887D02*
X138543734Y-86187792D01*
X138543734Y-86187792D02*
X138581830Y-86111601D01*
X138581830Y-86111601D02*
X138581830Y-86035411D01*
X138581830Y-86035411D02*
X138543734Y-85959220D01*
X138543734Y-85959220D02*
X138505639Y-85921125D01*
X138505639Y-85921125D02*
X138429449Y-85883030D01*
X138429449Y-85883030D02*
X138238972Y-85883030D01*
X138238972Y-85883030D02*
X138124687Y-85921125D01*
X137896115Y-85883030D02*
X137438972Y-85883030D01*
X137667544Y-86683030D02*
X137667544Y-85883030D01*
X137362782Y-86759220D02*
X136753258Y-86759220D01*
X136600877Y-86454458D02*
X136219924Y-86454458D01*
X136677067Y-86683030D02*
X136410400Y-85883030D01*
X136410400Y-85883030D02*
X136143734Y-86683030D01*
X138886591Y-87970985D02*
X139153258Y-87590032D01*
X139343734Y-87970985D02*
X139343734Y-87170985D01*
X139343734Y-87170985D02*
X139038972Y-87170985D01*
X139038972Y-87170985D02*
X138962782Y-87209080D01*
X138962782Y-87209080D02*
X138924687Y-87247175D01*
X138924687Y-87247175D02*
X138886591Y-87323366D01*
X138886591Y-87323366D02*
X138886591Y-87437651D01*
X138886591Y-87437651D02*
X138924687Y-87513842D01*
X138924687Y-87513842D02*
X138962782Y-87551937D01*
X138962782Y-87551937D02*
X139038972Y-87590032D01*
X139038972Y-87590032D02*
X139343734Y-87590032D01*
X138581830Y-87932890D02*
X138467544Y-87970985D01*
X138467544Y-87970985D02*
X138277068Y-87970985D01*
X138277068Y-87970985D02*
X138200877Y-87932890D01*
X138200877Y-87932890D02*
X138162782Y-87894794D01*
X138162782Y-87894794D02*
X138124687Y-87818604D01*
X138124687Y-87818604D02*
X138124687Y-87742413D01*
X138124687Y-87742413D02*
X138162782Y-87666223D01*
X138162782Y-87666223D02*
X138200877Y-87628128D01*
X138200877Y-87628128D02*
X138277068Y-87590032D01*
X138277068Y-87590032D02*
X138429449Y-87551937D01*
X138429449Y-87551937D02*
X138505639Y-87513842D01*
X138505639Y-87513842D02*
X138543734Y-87475747D01*
X138543734Y-87475747D02*
X138581830Y-87399556D01*
X138581830Y-87399556D02*
X138581830Y-87323366D01*
X138581830Y-87323366D02*
X138543734Y-87247175D01*
X138543734Y-87247175D02*
X138505639Y-87209080D01*
X138505639Y-87209080D02*
X138429449Y-87170985D01*
X138429449Y-87170985D02*
X138238972Y-87170985D01*
X138238972Y-87170985D02*
X138124687Y-87209080D01*
X137896115Y-87170985D02*
X137438972Y-87170985D01*
X137667544Y-87970985D02*
X137667544Y-87170985D01*
X137362782Y-88047175D02*
X136753258Y-88047175D01*
X136296115Y-87551937D02*
X136181829Y-87590032D01*
X136181829Y-87590032D02*
X136143734Y-87628128D01*
X136143734Y-87628128D02*
X136105638Y-87704318D01*
X136105638Y-87704318D02*
X136105638Y-87818604D01*
X136105638Y-87818604D02*
X136143734Y-87894794D01*
X136143734Y-87894794D02*
X136181829Y-87932890D01*
X136181829Y-87932890D02*
X136258019Y-87970985D01*
X136258019Y-87970985D02*
X136562781Y-87970985D01*
X136562781Y-87970985D02*
X136562781Y-87170985D01*
X136562781Y-87170985D02*
X136296115Y-87170985D01*
X136296115Y-87170985D02*
X136219924Y-87209080D01*
X136219924Y-87209080D02*
X136181829Y-87247175D01*
X136181829Y-87247175D02*
X136143734Y-87323366D01*
X136143734Y-87323366D02*
X136143734Y-87399556D01*
X136143734Y-87399556D02*
X136181829Y-87475747D01*
X136181829Y-87475747D02*
X136219924Y-87513842D01*
X136219924Y-87513842D02*
X136296115Y-87551937D01*
X136296115Y-87551937D02*
X136562781Y-87551937D01*
X138962782Y-89258940D02*
X139343734Y-89258940D01*
X139343734Y-89258940D02*
X139343734Y-88458940D01*
X138696115Y-88839892D02*
X138429449Y-88839892D01*
X138315163Y-89258940D02*
X138696115Y-89258940D01*
X138696115Y-89258940D02*
X138696115Y-88458940D01*
X138696115Y-88458940D02*
X138315163Y-88458940D01*
X137972305Y-89258940D02*
X137972305Y-88458940D01*
X137972305Y-88458940D02*
X137781829Y-88458940D01*
X137781829Y-88458940D02*
X137667543Y-88497035D01*
X137667543Y-88497035D02*
X137591353Y-88573225D01*
X137591353Y-88573225D02*
X137553258Y-88649416D01*
X137553258Y-88649416D02*
X137515162Y-88801797D01*
X137515162Y-88801797D02*
X137515162Y-88916083D01*
X137515162Y-88916083D02*
X137553258Y-89068464D01*
X137553258Y-89068464D02*
X137591353Y-89144654D01*
X137591353Y-89144654D02*
X137667543Y-89220845D01*
X137667543Y-89220845D02*
X137781829Y-89258940D01*
X137781829Y-89258940D02*
X137972305Y-89258940D01*
X137172305Y-88954178D02*
X136562782Y-88954178D01*
X138962782Y-90546895D02*
X139343734Y-90546895D01*
X139343734Y-90546895D02*
X139343734Y-89746895D01*
X138696115Y-90127847D02*
X138429449Y-90127847D01*
X138315163Y-90546895D02*
X138696115Y-90546895D01*
X138696115Y-90546895D02*
X138696115Y-89746895D01*
X138696115Y-89746895D02*
X138315163Y-89746895D01*
X137972305Y-90546895D02*
X137972305Y-89746895D01*
X137972305Y-89746895D02*
X137781829Y-89746895D01*
X137781829Y-89746895D02*
X137667543Y-89784990D01*
X137667543Y-89784990D02*
X137591353Y-89861180D01*
X137591353Y-89861180D02*
X137553258Y-89937371D01*
X137553258Y-89937371D02*
X137515162Y-90089752D01*
X137515162Y-90089752D02*
X137515162Y-90204038D01*
X137515162Y-90204038D02*
X137553258Y-90356419D01*
X137553258Y-90356419D02*
X137591353Y-90432609D01*
X137591353Y-90432609D02*
X137667543Y-90508800D01*
X137667543Y-90508800D02*
X137781829Y-90546895D01*
X137781829Y-90546895D02*
X137972305Y-90546895D01*
X137172305Y-90242133D02*
X136562782Y-90242133D01*
X136867543Y-90546895D02*
X136867543Y-89937371D01*
D11*
%TO.C,J3*%
X142640000Y-81840000D02*
X146760000Y-81840000D01*
X142640000Y-91960000D02*
X142640000Y-81840000D01*
X142640000Y-91960000D02*
X144700000Y-91960000D01*
X144700000Y-89900000D02*
X146760000Y-89900000D01*
X144700000Y-91960000D02*
X144700000Y-89900000D01*
X145700000Y-91960000D02*
X146760000Y-91960000D01*
X146760000Y-89900000D02*
X146760000Y-81840000D01*
X146760000Y-91960000D02*
X146760000Y-90900000D01*
%TO.C,J5*%
X152070000Y-80520000D02*
X152070000Y-81850000D01*
X152070000Y-83120000D02*
X152070000Y-93340000D01*
X153400000Y-80520000D02*
X152070000Y-80520000D01*
X154670000Y-80520000D02*
X154670000Y-83120000D01*
X154670000Y-83120000D02*
X152070000Y-83120000D01*
X157270000Y-80520000D02*
X154670000Y-80520000D01*
X157270000Y-80520000D02*
X157270000Y-93340000D01*
X157270000Y-93340000D02*
X152070000Y-93340000D01*
%TD*%
M02*
