%TF.GenerationSoftware,KiCad,Pcbnew,9.0.2*%
%TF.CreationDate,2025-05-12T01:22:45+09:00*%
%TF.ProjectId,kvm_switch,6b766d5f-7377-4697-9463-682e6b696361,rev?*%
%TF.SameCoordinates,Original*%
%TF.FileFunction,Copper,L2,Bot*%
%TF.FilePolarity,Positive*%
%FSLAX46Y46*%
G04 Gerber Fmt 4.6, Leading zero omitted, Abs format (unit mm)*
G04 Created by KiCad (PCBNEW 9.0.2) date 2025-05-12 01:22:45*
%MOMM*%
%LPD*%
G01*
G04 APERTURE LIST*
G04 Aperture macros list*
%AMRoundRect*
0 Rectangle with rounded corners*
0 $1 Rounding radius*
0 $2 $3 $4 $5 $6 $7 $8 $9 X,Y pos of 4 corners*
0 Add a 4 corners polygon primitive as box body*
4,1,4,$2,$3,$4,$5,$6,$7,$8,$9,$2,$3,0*
0 Add four circle primitives for the rounded corners*
1,1,$1+$1,$2,$3*
1,1,$1+$1,$4,$5*
1,1,$1+$1,$6,$7*
1,1,$1+$1,$8,$9*
0 Add four rect primitives between the rounded corners*
20,1,$1+$1,$2,$3,$4,$5,0*
20,1,$1+$1,$4,$5,$6,$7,0*
20,1,$1+$1,$6,$7,$8,$9,0*
20,1,$1+$1,$8,$9,$2,$3,0*%
G04 Aperture macros list end*
%TA.AperFunction,ComponentPad*%
%ADD10RoundRect,0.200000X0.450000X-0.200000X0.450000X0.200000X-0.450000X0.200000X-0.450000X-0.200000X0*%
%TD*%
%TA.AperFunction,ComponentPad*%
%ADD11O,1.300000X0.800000*%
%TD*%
%TA.AperFunction,ComponentPad*%
%ADD12RoundRect,0.200000X-0.450000X0.200000X-0.450000X-0.200000X0.450000X-0.200000X0.450000X0.200000X0*%
%TD*%
%TA.AperFunction,ComponentPad*%
%ADD13R,1.350000X1.350000*%
%TD*%
%TA.AperFunction,ComponentPad*%
%ADD14C,1.350000*%
%TD*%
%TA.AperFunction,Conductor*%
%ADD15C,0.200000*%
%TD*%
G04 APERTURE END LIST*
D10*
%TO.P,J2,1,Pin_1*%
%TO.N,/ATX_PWRLED+*%
X140500000Y-90050000D03*
D11*
%TO.P,J2,2,Pin_2*%
%TO.N,GND2*%
X140500000Y-88800000D03*
%TO.P,J2,3,Pin_3*%
X140500000Y-87550000D03*
%TO.P,J2,4,Pin_4*%
%TO.N,/ATX_RSTSW_A*%
X140500000Y-86300000D03*
%TO.P,J2,5,Pin_5*%
%TO.N,GND2*%
X140500000Y-85050000D03*
%TO.P,J2,6,Pin_6*%
%TO.N,/ATX_PWRSW_A*%
X140500000Y-83800000D03*
%TD*%
D12*
%TO.P,J1,1,Pin_1*%
%TO.N,/GPIO_PWRSW*%
X119500000Y-84950000D03*
D11*
%TO.P,J1,2,Pin_2*%
%TO.N,/GPIO_RSTSW*%
X119500000Y-86200000D03*
%TO.P,J1,3,Pin_3*%
%TO.N,GND*%
X119500000Y-87450000D03*
%TO.P,J1,4,Pin_4*%
%TO.N,/GPIO_PWRLED*%
X119500000Y-88700000D03*
%TD*%
D13*
%TO.P,J3,1,Pin_1*%
%TO.N,unconnected-(J3-Pin_1-Pad1)*%
X145000000Y-90900000D03*
D14*
%TO.P,J3,2,Pin_2*%
%TO.N,/ATX_PWRLED+*%
X143000000Y-90900000D03*
%TO.P,J3,3,Pin_3*%
%TO.N,unconnected-(J3-Pin_3-Pad3)*%
X145000000Y-88900000D03*
%TO.P,J3,4,Pin_4*%
%TO.N,unconnected-(J3-Pin_4-Pad4)*%
X143000000Y-88900000D03*
%TO.P,J3,5,Pin_5*%
%TO.N,GND2*%
X145000000Y-86900000D03*
%TO.P,J3,6,Pin_6*%
%TO.N,/ATX_PWRSW_A*%
X143000000Y-86900000D03*
%TO.P,J3,7,Pin_7*%
%TO.N,/ATX_RSTSW_A*%
X145000000Y-84900000D03*
%TO.P,J3,8,Pin_8*%
%TO.N,GND2*%
X143000000Y-84900000D03*
%TO.P,J3,9,Pin_9*%
%TO.N,unconnected-(J3-Pin_9-Pad9)*%
X145000000Y-82900000D03*
%TO.P,J3,10,Pin_10*%
%TO.N,unconnected-(J3-Pin_10-Pad10)*%
X143000000Y-82900000D03*
%TD*%
D15*
%TO.N,/ATX_RSTSW_A*%
X141376000Y-85924000D02*
X143976000Y-85924000D01*
X140500000Y-86300000D02*
X141000000Y-86300000D01*
X143976000Y-85924000D02*
X145000000Y-84900000D01*
X141000000Y-86300000D02*
X141376000Y-85924000D01*
%TO.N,GND2*%
X140250000Y-87550000D02*
X139549000Y-86849000D01*
X140500000Y-87550000D02*
X140500000Y-88800000D01*
X142850000Y-85050000D02*
X143000000Y-84900000D01*
X140500000Y-85050000D02*
X142850000Y-85050000D01*
X139549000Y-85651000D02*
X140150000Y-85050000D01*
X140500000Y-87550000D02*
X140250000Y-87550000D01*
X139549000Y-86849000D02*
X139549000Y-85651000D01*
X140150000Y-85050000D02*
X140500000Y-85050000D01*
%TD*%
M02*
