%TF.GenerationSoftware,KiCad,Pcbnew,9.0.2*%
%TF.CreationDate,2025-05-12T01:22:45+09:00*%
%TF.ProjectId,kvm_switch,6b766d5f-7377-4697-9463-682e6b696361,rev?*%
%TF.SameCoordinates,Original*%
%TF.FileFunction,Legend,Bot*%
%TF.FilePolarity,Positive*%
%FSLAX46Y46*%
G04 Gerber Fmt 4.6, Leading zero omitted, Abs format (unit mm)*
G04 Created by KiCad (PCBNEW 9.0.2) date 2025-05-12 01:22:45*
%MOMM*%
%LPD*%
G01*
G04 APERTURE LIST*
%ADD10C,0.100000*%
%ADD11C,0.120000*%
G04 APERTURE END LIST*
D10*
X131700000Y-86680000D02*
X129950000Y-87680000D01*
X129950000Y-86930000D01*
X127450000Y-86930000D01*
X127450000Y-86180000D01*
X129950000Y-86180000D01*
X129950000Y-85430000D01*
X131700000Y-86680000D01*
G36*
X131700000Y-86680000D02*
G01*
X129950000Y-87680000D01*
X129950000Y-86930000D01*
X127450000Y-86930000D01*
X127450000Y-86180000D01*
X129950000Y-86180000D01*
X129950000Y-85430000D01*
X131700000Y-86680000D01*
G37*
X136728615Y-93122419D02*
X136728615Y-92122419D01*
X136157187Y-93122419D02*
X136585758Y-92550990D01*
X136157187Y-92122419D02*
X136728615Y-92693847D01*
X135871472Y-92122419D02*
X135538139Y-93122419D01*
X135538139Y-93122419D02*
X135204806Y-92122419D01*
X134871472Y-93122419D02*
X134871472Y-92122419D01*
X134871472Y-92122419D02*
X134538139Y-92836704D01*
X134538139Y-92836704D02*
X134204806Y-92122419D01*
X134204806Y-92122419D02*
X134204806Y-93122419D01*
X133014329Y-93074800D02*
X132871472Y-93122419D01*
X132871472Y-93122419D02*
X132633377Y-93122419D01*
X132633377Y-93122419D02*
X132538139Y-93074800D01*
X132538139Y-93074800D02*
X132490520Y-93027180D01*
X132490520Y-93027180D02*
X132442901Y-92931942D01*
X132442901Y-92931942D02*
X132442901Y-92836704D01*
X132442901Y-92836704D02*
X132490520Y-92741466D01*
X132490520Y-92741466D02*
X132538139Y-92693847D01*
X132538139Y-92693847D02*
X132633377Y-92646228D01*
X132633377Y-92646228D02*
X132823853Y-92598609D01*
X132823853Y-92598609D02*
X132919091Y-92550990D01*
X132919091Y-92550990D02*
X132966710Y-92503371D01*
X132966710Y-92503371D02*
X133014329Y-92408133D01*
X133014329Y-92408133D02*
X133014329Y-92312895D01*
X133014329Y-92312895D02*
X132966710Y-92217657D01*
X132966710Y-92217657D02*
X132919091Y-92170038D01*
X132919091Y-92170038D02*
X132823853Y-92122419D01*
X132823853Y-92122419D02*
X132585758Y-92122419D01*
X132585758Y-92122419D02*
X132442901Y-92170038D01*
X132109567Y-92455752D02*
X131919091Y-93122419D01*
X131919091Y-93122419D02*
X131728615Y-92646228D01*
X131728615Y-92646228D02*
X131538139Y-93122419D01*
X131538139Y-93122419D02*
X131347663Y-92455752D01*
X130966710Y-93122419D02*
X130966710Y-92455752D01*
X130966710Y-92122419D02*
X131014329Y-92170038D01*
X131014329Y-92170038D02*
X130966710Y-92217657D01*
X130966710Y-92217657D02*
X130919091Y-92170038D01*
X130919091Y-92170038D02*
X130966710Y-92122419D01*
X130966710Y-92122419D02*
X130966710Y-92217657D01*
X130633377Y-92455752D02*
X130252425Y-92455752D01*
X130490520Y-92122419D02*
X130490520Y-92979561D01*
X130490520Y-92979561D02*
X130442901Y-93074800D01*
X130442901Y-93074800D02*
X130347663Y-93122419D01*
X130347663Y-93122419D02*
X130252425Y-93122419D01*
X129490520Y-93074800D02*
X129585758Y-93122419D01*
X129585758Y-93122419D02*
X129776234Y-93122419D01*
X129776234Y-93122419D02*
X129871472Y-93074800D01*
X129871472Y-93074800D02*
X129919091Y-93027180D01*
X129919091Y-93027180D02*
X129966710Y-92931942D01*
X129966710Y-92931942D02*
X129966710Y-92646228D01*
X129966710Y-92646228D02*
X129919091Y-92550990D01*
X129919091Y-92550990D02*
X129871472Y-92503371D01*
X129871472Y-92503371D02*
X129776234Y-92455752D01*
X129776234Y-92455752D02*
X129585758Y-92455752D01*
X129585758Y-92455752D02*
X129490520Y-92503371D01*
X129061948Y-93122419D02*
X129061948Y-92122419D01*
X128633377Y-93122419D02*
X128633377Y-92598609D01*
X128633377Y-92598609D02*
X128680996Y-92503371D01*
X128680996Y-92503371D02*
X128776234Y-92455752D01*
X128776234Y-92455752D02*
X128919091Y-92455752D01*
X128919091Y-92455752D02*
X129014329Y-92503371D01*
X129014329Y-92503371D02*
X129061948Y-92550990D01*
X127061948Y-92598609D02*
X126919091Y-92646228D01*
X126919091Y-92646228D02*
X126871472Y-92693847D01*
X126871472Y-92693847D02*
X126823853Y-92789085D01*
X126823853Y-92789085D02*
X126823853Y-92931942D01*
X126823853Y-92931942D02*
X126871472Y-93027180D01*
X126871472Y-93027180D02*
X126919091Y-93074800D01*
X126919091Y-93074800D02*
X127014329Y-93122419D01*
X127014329Y-93122419D02*
X127395281Y-93122419D01*
X127395281Y-93122419D02*
X127395281Y-92122419D01*
X127395281Y-92122419D02*
X127061948Y-92122419D01*
X127061948Y-92122419D02*
X126966710Y-92170038D01*
X126966710Y-92170038D02*
X126919091Y-92217657D01*
X126919091Y-92217657D02*
X126871472Y-92312895D01*
X126871472Y-92312895D02*
X126871472Y-92408133D01*
X126871472Y-92408133D02*
X126919091Y-92503371D01*
X126919091Y-92503371D02*
X126966710Y-92550990D01*
X126966710Y-92550990D02*
X127061948Y-92598609D01*
X127061948Y-92598609D02*
X127395281Y-92598609D01*
X126252424Y-93122419D02*
X126347662Y-93074800D01*
X126347662Y-93074800D02*
X126395281Y-93027180D01*
X126395281Y-93027180D02*
X126442900Y-92931942D01*
X126442900Y-92931942D02*
X126442900Y-92646228D01*
X126442900Y-92646228D02*
X126395281Y-92550990D01*
X126395281Y-92550990D02*
X126347662Y-92503371D01*
X126347662Y-92503371D02*
X126252424Y-92455752D01*
X126252424Y-92455752D02*
X126109567Y-92455752D01*
X126109567Y-92455752D02*
X126014329Y-92503371D01*
X126014329Y-92503371D02*
X125966710Y-92550990D01*
X125966710Y-92550990D02*
X125919091Y-92646228D01*
X125919091Y-92646228D02*
X125919091Y-92931942D01*
X125919091Y-92931942D02*
X125966710Y-93027180D01*
X125966710Y-93027180D02*
X126014329Y-93074800D01*
X126014329Y-93074800D02*
X126109567Y-93122419D01*
X126109567Y-93122419D02*
X126252424Y-93122419D01*
X125061948Y-93122419D02*
X125061948Y-92598609D01*
X125061948Y-92598609D02*
X125109567Y-92503371D01*
X125109567Y-92503371D02*
X125204805Y-92455752D01*
X125204805Y-92455752D02*
X125395281Y-92455752D01*
X125395281Y-92455752D02*
X125490519Y-92503371D01*
X125061948Y-93074800D02*
X125157186Y-93122419D01*
X125157186Y-93122419D02*
X125395281Y-93122419D01*
X125395281Y-93122419D02*
X125490519Y-93074800D01*
X125490519Y-93074800D02*
X125538138Y-92979561D01*
X125538138Y-92979561D02*
X125538138Y-92884323D01*
X125538138Y-92884323D02*
X125490519Y-92789085D01*
X125490519Y-92789085D02*
X125395281Y-92741466D01*
X125395281Y-92741466D02*
X125157186Y-92741466D01*
X125157186Y-92741466D02*
X125061948Y-92693847D01*
X124585757Y-93122419D02*
X124585757Y-92455752D01*
X124585757Y-92646228D02*
X124538138Y-92550990D01*
X124538138Y-92550990D02*
X124490519Y-92503371D01*
X124490519Y-92503371D02*
X124395281Y-92455752D01*
X124395281Y-92455752D02*
X124300043Y-92455752D01*
X123538138Y-93122419D02*
X123538138Y-92122419D01*
X123538138Y-93074800D02*
X123633376Y-93122419D01*
X123633376Y-93122419D02*
X123823852Y-93122419D01*
X123823852Y-93122419D02*
X123919090Y-93074800D01*
X123919090Y-93074800D02*
X123966709Y-93027180D01*
X123966709Y-93027180D02*
X124014328Y-92931942D01*
X124014328Y-92931942D02*
X124014328Y-92646228D01*
X124014328Y-92646228D02*
X123966709Y-92550990D01*
X123966709Y-92550990D02*
X123919090Y-92503371D01*
X123919090Y-92503371D02*
X123823852Y-92455752D01*
X123823852Y-92455752D02*
X123633376Y-92455752D01*
X123633376Y-92455752D02*
X123538138Y-92503371D01*
X125327580Y-87876115D02*
X126327580Y-87876115D01*
X125327580Y-87304687D02*
X125899009Y-87733258D01*
X126327580Y-87304687D02*
X125756152Y-87876115D01*
X126327580Y-87018972D02*
X125327580Y-86685639D01*
X125327580Y-86685639D02*
X126327580Y-86352306D01*
X125327580Y-86018972D02*
X126327580Y-86018972D01*
X126327580Y-86018972D02*
X125613295Y-85685639D01*
X125613295Y-85685639D02*
X126327580Y-85352306D01*
X126327580Y-85352306D02*
X125327580Y-85352306D01*
X122643734Y-85333030D02*
X122643734Y-84533030D01*
X122643734Y-84533030D02*
X122338972Y-84533030D01*
X122338972Y-84533030D02*
X122262782Y-84571125D01*
X122262782Y-84571125D02*
X122224687Y-84609220D01*
X122224687Y-84609220D02*
X122186591Y-84685411D01*
X122186591Y-84685411D02*
X122186591Y-84799696D01*
X122186591Y-84799696D02*
X122224687Y-84875887D01*
X122224687Y-84875887D02*
X122262782Y-84913982D01*
X122262782Y-84913982D02*
X122338972Y-84952077D01*
X122338972Y-84952077D02*
X122643734Y-84952077D01*
X121919925Y-84533030D02*
X121729449Y-85333030D01*
X121729449Y-85333030D02*
X121577068Y-84761601D01*
X121577068Y-84761601D02*
X121424687Y-85333030D01*
X121424687Y-85333030D02*
X121234211Y-84533030D01*
X120472305Y-85333030D02*
X120738972Y-84952077D01*
X120929448Y-85333030D02*
X120929448Y-84533030D01*
X120929448Y-84533030D02*
X120624686Y-84533030D01*
X120624686Y-84533030D02*
X120548496Y-84571125D01*
X120548496Y-84571125D02*
X120510401Y-84609220D01*
X120510401Y-84609220D02*
X120472305Y-84685411D01*
X120472305Y-84685411D02*
X120472305Y-84799696D01*
X120472305Y-84799696D02*
X120510401Y-84875887D01*
X120510401Y-84875887D02*
X120548496Y-84913982D01*
X120548496Y-84913982D02*
X120624686Y-84952077D01*
X120624686Y-84952077D02*
X120929448Y-84952077D01*
X122186591Y-86620985D02*
X122453258Y-86240032D01*
X122643734Y-86620985D02*
X122643734Y-85820985D01*
X122643734Y-85820985D02*
X122338972Y-85820985D01*
X122338972Y-85820985D02*
X122262782Y-85859080D01*
X122262782Y-85859080D02*
X122224687Y-85897175D01*
X122224687Y-85897175D02*
X122186591Y-85973366D01*
X122186591Y-85973366D02*
X122186591Y-86087651D01*
X122186591Y-86087651D02*
X122224687Y-86163842D01*
X122224687Y-86163842D02*
X122262782Y-86201937D01*
X122262782Y-86201937D02*
X122338972Y-86240032D01*
X122338972Y-86240032D02*
X122643734Y-86240032D01*
X121881830Y-86582890D02*
X121767544Y-86620985D01*
X121767544Y-86620985D02*
X121577068Y-86620985D01*
X121577068Y-86620985D02*
X121500877Y-86582890D01*
X121500877Y-86582890D02*
X121462782Y-86544794D01*
X121462782Y-86544794D02*
X121424687Y-86468604D01*
X121424687Y-86468604D02*
X121424687Y-86392413D01*
X121424687Y-86392413D02*
X121462782Y-86316223D01*
X121462782Y-86316223D02*
X121500877Y-86278128D01*
X121500877Y-86278128D02*
X121577068Y-86240032D01*
X121577068Y-86240032D02*
X121729449Y-86201937D01*
X121729449Y-86201937D02*
X121805639Y-86163842D01*
X121805639Y-86163842D02*
X121843734Y-86125747D01*
X121843734Y-86125747D02*
X121881830Y-86049556D01*
X121881830Y-86049556D02*
X121881830Y-85973366D01*
X121881830Y-85973366D02*
X121843734Y-85897175D01*
X121843734Y-85897175D02*
X121805639Y-85859080D01*
X121805639Y-85859080D02*
X121729449Y-85820985D01*
X121729449Y-85820985D02*
X121538972Y-85820985D01*
X121538972Y-85820985D02*
X121424687Y-85859080D01*
X121196115Y-85820985D02*
X120738972Y-85820985D01*
X120967544Y-86620985D02*
X120967544Y-85820985D01*
X122224687Y-87147035D02*
X122300877Y-87108940D01*
X122300877Y-87108940D02*
X122415163Y-87108940D01*
X122415163Y-87108940D02*
X122529449Y-87147035D01*
X122529449Y-87147035D02*
X122605639Y-87223225D01*
X122605639Y-87223225D02*
X122643734Y-87299416D01*
X122643734Y-87299416D02*
X122681830Y-87451797D01*
X122681830Y-87451797D02*
X122681830Y-87566083D01*
X122681830Y-87566083D02*
X122643734Y-87718464D01*
X122643734Y-87718464D02*
X122605639Y-87794654D01*
X122605639Y-87794654D02*
X122529449Y-87870845D01*
X122529449Y-87870845D02*
X122415163Y-87908940D01*
X122415163Y-87908940D02*
X122338972Y-87908940D01*
X122338972Y-87908940D02*
X122224687Y-87870845D01*
X122224687Y-87870845D02*
X122186591Y-87832749D01*
X122186591Y-87832749D02*
X122186591Y-87566083D01*
X122186591Y-87566083D02*
X122338972Y-87566083D01*
X121843734Y-87908940D02*
X121843734Y-87108940D01*
X121843734Y-87108940D02*
X121386591Y-87908940D01*
X121386591Y-87908940D02*
X121386591Y-87108940D01*
X121005639Y-87908940D02*
X121005639Y-87108940D01*
X121005639Y-87108940D02*
X120815163Y-87108940D01*
X120815163Y-87108940D02*
X120700877Y-87147035D01*
X120700877Y-87147035D02*
X120624687Y-87223225D01*
X120624687Y-87223225D02*
X120586592Y-87299416D01*
X120586592Y-87299416D02*
X120548496Y-87451797D01*
X120548496Y-87451797D02*
X120548496Y-87566083D01*
X120548496Y-87566083D02*
X120586592Y-87718464D01*
X120586592Y-87718464D02*
X120624687Y-87794654D01*
X120624687Y-87794654D02*
X120700877Y-87870845D01*
X120700877Y-87870845D02*
X120815163Y-87908940D01*
X120815163Y-87908940D02*
X121005639Y-87908940D01*
X122262782Y-89196895D02*
X122643734Y-89196895D01*
X122643734Y-89196895D02*
X122643734Y-88396895D01*
X121996115Y-88777847D02*
X121729449Y-88777847D01*
X121615163Y-89196895D02*
X121996115Y-89196895D01*
X121996115Y-89196895D02*
X121996115Y-88396895D01*
X121996115Y-88396895D02*
X121615163Y-88396895D01*
X121272305Y-89196895D02*
X121272305Y-88396895D01*
X121272305Y-88396895D02*
X121081829Y-88396895D01*
X121081829Y-88396895D02*
X120967543Y-88434990D01*
X120967543Y-88434990D02*
X120891353Y-88511180D01*
X120891353Y-88511180D02*
X120853258Y-88587371D01*
X120853258Y-88587371D02*
X120815162Y-88739752D01*
X120815162Y-88739752D02*
X120815162Y-88854038D01*
X120815162Y-88854038D02*
X120853258Y-89006419D01*
X120853258Y-89006419D02*
X120891353Y-89082609D01*
X120891353Y-89082609D02*
X120967543Y-89158800D01*
X120967543Y-89158800D02*
X121081829Y-89196895D01*
X121081829Y-89196895D02*
X121272305Y-89196895D01*
X133536704Y-85686265D02*
X133536704Y-86162455D01*
X133822419Y-85591027D02*
X132822419Y-85924360D01*
X132822419Y-85924360D02*
X133822419Y-86257693D01*
X132822419Y-86448170D02*
X132822419Y-87019598D01*
X133822419Y-86733884D02*
X132822419Y-86733884D01*
X132822419Y-87257694D02*
X133822419Y-87924360D01*
X132822419Y-87924360D02*
X133822419Y-87257694D01*
X139343734Y-84107120D02*
X139343734Y-83307120D01*
X139343734Y-83307120D02*
X139038972Y-83307120D01*
X139038972Y-83307120D02*
X138962782Y-83345215D01*
X138962782Y-83345215D02*
X138924687Y-83383310D01*
X138924687Y-83383310D02*
X138886591Y-83459501D01*
X138886591Y-83459501D02*
X138886591Y-83573786D01*
X138886591Y-83573786D02*
X138924687Y-83649977D01*
X138924687Y-83649977D02*
X138962782Y-83688072D01*
X138962782Y-83688072D02*
X139038972Y-83726167D01*
X139038972Y-83726167D02*
X139343734Y-83726167D01*
X138619925Y-83307120D02*
X138429449Y-84107120D01*
X138429449Y-84107120D02*
X138277068Y-83535691D01*
X138277068Y-83535691D02*
X138124687Y-84107120D01*
X138124687Y-84107120D02*
X137934211Y-83307120D01*
X137172305Y-84107120D02*
X137438972Y-83726167D01*
X137629448Y-84107120D02*
X137629448Y-83307120D01*
X137629448Y-83307120D02*
X137324686Y-83307120D01*
X137324686Y-83307120D02*
X137248496Y-83345215D01*
X137248496Y-83345215D02*
X137210401Y-83383310D01*
X137210401Y-83383310D02*
X137172305Y-83459501D01*
X137172305Y-83459501D02*
X137172305Y-83573786D01*
X137172305Y-83573786D02*
X137210401Y-83649977D01*
X137210401Y-83649977D02*
X137248496Y-83688072D01*
X137248496Y-83688072D02*
X137324686Y-83726167D01*
X137324686Y-83726167D02*
X137629448Y-83726167D01*
X137019925Y-84183310D02*
X136410401Y-84183310D01*
X136258020Y-83878548D02*
X135877067Y-83878548D01*
X136334210Y-84107120D02*
X136067543Y-83307120D01*
X136067543Y-83307120D02*
X135800877Y-84107120D01*
X139343734Y-85395075D02*
X139343734Y-84595075D01*
X139343734Y-84595075D02*
X139038972Y-84595075D01*
X139038972Y-84595075D02*
X138962782Y-84633170D01*
X138962782Y-84633170D02*
X138924687Y-84671265D01*
X138924687Y-84671265D02*
X138886591Y-84747456D01*
X138886591Y-84747456D02*
X138886591Y-84861741D01*
X138886591Y-84861741D02*
X138924687Y-84937932D01*
X138924687Y-84937932D02*
X138962782Y-84976027D01*
X138962782Y-84976027D02*
X139038972Y-85014122D01*
X139038972Y-85014122D02*
X139343734Y-85014122D01*
X138619925Y-84595075D02*
X138429449Y-85395075D01*
X138429449Y-85395075D02*
X138277068Y-84823646D01*
X138277068Y-84823646D02*
X138124687Y-85395075D01*
X138124687Y-85395075D02*
X137934211Y-84595075D01*
X137172305Y-85395075D02*
X137438972Y-85014122D01*
X137629448Y-85395075D02*
X137629448Y-84595075D01*
X137629448Y-84595075D02*
X137324686Y-84595075D01*
X137324686Y-84595075D02*
X137248496Y-84633170D01*
X137248496Y-84633170D02*
X137210401Y-84671265D01*
X137210401Y-84671265D02*
X137172305Y-84747456D01*
X137172305Y-84747456D02*
X137172305Y-84861741D01*
X137172305Y-84861741D02*
X137210401Y-84937932D01*
X137210401Y-84937932D02*
X137248496Y-84976027D01*
X137248496Y-84976027D02*
X137324686Y-85014122D01*
X137324686Y-85014122D02*
X137629448Y-85014122D01*
X137019925Y-85471265D02*
X136410401Y-85471265D01*
X135953258Y-84976027D02*
X135838972Y-85014122D01*
X135838972Y-85014122D02*
X135800877Y-85052218D01*
X135800877Y-85052218D02*
X135762781Y-85128408D01*
X135762781Y-85128408D02*
X135762781Y-85242694D01*
X135762781Y-85242694D02*
X135800877Y-85318884D01*
X135800877Y-85318884D02*
X135838972Y-85356980D01*
X135838972Y-85356980D02*
X135915162Y-85395075D01*
X135915162Y-85395075D02*
X136219924Y-85395075D01*
X136219924Y-85395075D02*
X136219924Y-84595075D01*
X136219924Y-84595075D02*
X135953258Y-84595075D01*
X135953258Y-84595075D02*
X135877067Y-84633170D01*
X135877067Y-84633170D02*
X135838972Y-84671265D01*
X135838972Y-84671265D02*
X135800877Y-84747456D01*
X135800877Y-84747456D02*
X135800877Y-84823646D01*
X135800877Y-84823646D02*
X135838972Y-84899837D01*
X135838972Y-84899837D02*
X135877067Y-84937932D01*
X135877067Y-84937932D02*
X135953258Y-84976027D01*
X135953258Y-84976027D02*
X136219924Y-84976027D01*
X138886591Y-86683030D02*
X139153258Y-86302077D01*
X139343734Y-86683030D02*
X139343734Y-85883030D01*
X139343734Y-85883030D02*
X139038972Y-85883030D01*
X139038972Y-85883030D02*
X138962782Y-85921125D01*
X138962782Y-85921125D02*
X138924687Y-85959220D01*
X138924687Y-85959220D02*
X138886591Y-86035411D01*
X138886591Y-86035411D02*
X138886591Y-86149696D01*
X138886591Y-86149696D02*
X138924687Y-86225887D01*
X138924687Y-86225887D02*
X138962782Y-86263982D01*
X138962782Y-86263982D02*
X139038972Y-86302077D01*
X139038972Y-86302077D02*
X139343734Y-86302077D01*
X138581830Y-86644935D02*
X138467544Y-86683030D01*
X138467544Y-86683030D02*
X138277068Y-86683030D01*
X138277068Y-86683030D02*
X138200877Y-86644935D01*
X138200877Y-86644935D02*
X138162782Y-86606839D01*
X138162782Y-86606839D02*
X138124687Y-86530649D01*
X138124687Y-86530649D02*
X138124687Y-86454458D01*
X138124687Y-86454458D02*
X138162782Y-86378268D01*
X138162782Y-86378268D02*
X138200877Y-86340173D01*
X138200877Y-86340173D02*
X138277068Y-86302077D01*
X138277068Y-86302077D02*
X138429449Y-86263982D01*
X138429449Y-86263982D02*
X138505639Y-86225887D01*
X138505639Y-86225887D02*
X138543734Y-86187792D01*
X138543734Y-86187792D02*
X138581830Y-86111601D01*
X138581830Y-86111601D02*
X138581830Y-86035411D01*
X138581830Y-86035411D02*
X138543734Y-85959220D01*
X138543734Y-85959220D02*
X138505639Y-85921125D01*
X138505639Y-85921125D02*
X138429449Y-85883030D01*
X138429449Y-85883030D02*
X138238972Y-85883030D01*
X138238972Y-85883030D02*
X138124687Y-85921125D01*
X137896115Y-85883030D02*
X137438972Y-85883030D01*
X137667544Y-86683030D02*
X137667544Y-85883030D01*
X137362782Y-86759220D02*
X136753258Y-86759220D01*
X136600877Y-86454458D02*
X136219924Y-86454458D01*
X136677067Y-86683030D02*
X136410400Y-85883030D01*
X136410400Y-85883030D02*
X136143734Y-86683030D01*
X138886591Y-87970985D02*
X139153258Y-87590032D01*
X139343734Y-87970985D02*
X139343734Y-87170985D01*
X139343734Y-87170985D02*
X139038972Y-87170985D01*
X139038972Y-87170985D02*
X138962782Y-87209080D01*
X138962782Y-87209080D02*
X138924687Y-87247175D01*
X138924687Y-87247175D02*
X138886591Y-87323366D01*
X138886591Y-87323366D02*
X138886591Y-87437651D01*
X138886591Y-87437651D02*
X138924687Y-87513842D01*
X138924687Y-87513842D02*
X138962782Y-87551937D01*
X138962782Y-87551937D02*
X139038972Y-87590032D01*
X139038972Y-87590032D02*
X139343734Y-87590032D01*
X138581830Y-87932890D02*
X138467544Y-87970985D01*
X138467544Y-87970985D02*
X138277068Y-87970985D01*
X138277068Y-87970985D02*
X138200877Y-87932890D01*
X138200877Y-87932890D02*
X138162782Y-87894794D01*
X138162782Y-87894794D02*
X138124687Y-87818604D01*
X138124687Y-87818604D02*
X138124687Y-87742413D01*
X138124687Y-87742413D02*
X138162782Y-87666223D01*
X138162782Y-87666223D02*
X138200877Y-87628128D01*
X138200877Y-87628128D02*
X138277068Y-87590032D01*
X138277068Y-87590032D02*
X138429449Y-87551937D01*
X138429449Y-87551937D02*
X138505639Y-87513842D01*
X138505639Y-87513842D02*
X138543734Y-87475747D01*
X138543734Y-87475747D02*
X138581830Y-87399556D01*
X138581830Y-87399556D02*
X138581830Y-87323366D01*
X138581830Y-87323366D02*
X138543734Y-87247175D01*
X138543734Y-87247175D02*
X138505639Y-87209080D01*
X138505639Y-87209080D02*
X138429449Y-87170985D01*
X138429449Y-87170985D02*
X138238972Y-87170985D01*
X138238972Y-87170985D02*
X138124687Y-87209080D01*
X137896115Y-87170985D02*
X137438972Y-87170985D01*
X137667544Y-87970985D02*
X137667544Y-87170985D01*
X137362782Y-88047175D02*
X136753258Y-88047175D01*
X136296115Y-87551937D02*
X136181829Y-87590032D01*
X136181829Y-87590032D02*
X136143734Y-87628128D01*
X136143734Y-87628128D02*
X136105638Y-87704318D01*
X136105638Y-87704318D02*
X136105638Y-87818604D01*
X136105638Y-87818604D02*
X136143734Y-87894794D01*
X136143734Y-87894794D02*
X136181829Y-87932890D01*
X136181829Y-87932890D02*
X136258019Y-87970985D01*
X136258019Y-87970985D02*
X136562781Y-87970985D01*
X136562781Y-87970985D02*
X136562781Y-87170985D01*
X136562781Y-87170985D02*
X136296115Y-87170985D01*
X136296115Y-87170985D02*
X136219924Y-87209080D01*
X136219924Y-87209080D02*
X136181829Y-87247175D01*
X136181829Y-87247175D02*
X136143734Y-87323366D01*
X136143734Y-87323366D02*
X136143734Y-87399556D01*
X136143734Y-87399556D02*
X136181829Y-87475747D01*
X136181829Y-87475747D02*
X136219924Y-87513842D01*
X136219924Y-87513842D02*
X136296115Y-87551937D01*
X136296115Y-87551937D02*
X136562781Y-87551937D01*
X138962782Y-89258940D02*
X139343734Y-89258940D01*
X139343734Y-89258940D02*
X139343734Y-88458940D01*
X138696115Y-88839892D02*
X138429449Y-88839892D01*
X138315163Y-89258940D02*
X138696115Y-89258940D01*
X138696115Y-89258940D02*
X138696115Y-88458940D01*
X138696115Y-88458940D02*
X138315163Y-88458940D01*
X137972305Y-89258940D02*
X137972305Y-88458940D01*
X137972305Y-88458940D02*
X137781829Y-88458940D01*
X137781829Y-88458940D02*
X137667543Y-88497035D01*
X137667543Y-88497035D02*
X137591353Y-88573225D01*
X137591353Y-88573225D02*
X137553258Y-88649416D01*
X137553258Y-88649416D02*
X137515162Y-88801797D01*
X137515162Y-88801797D02*
X137515162Y-88916083D01*
X137515162Y-88916083D02*
X137553258Y-89068464D01*
X137553258Y-89068464D02*
X137591353Y-89144654D01*
X137591353Y-89144654D02*
X137667543Y-89220845D01*
X137667543Y-89220845D02*
X137781829Y-89258940D01*
X137781829Y-89258940D02*
X137972305Y-89258940D01*
X137172305Y-88954178D02*
X136562782Y-88954178D01*
X138962782Y-90546895D02*
X139343734Y-90546895D01*
X139343734Y-90546895D02*
X139343734Y-89746895D01*
X138696115Y-90127847D02*
X138429449Y-90127847D01*
X138315163Y-90546895D02*
X138696115Y-90546895D01*
X138696115Y-90546895D02*
X138696115Y-89746895D01*
X138696115Y-89746895D02*
X138315163Y-89746895D01*
X137972305Y-90546895D02*
X137972305Y-89746895D01*
X137972305Y-89746895D02*
X137781829Y-89746895D01*
X137781829Y-89746895D02*
X137667543Y-89784990D01*
X137667543Y-89784990D02*
X137591353Y-89861180D01*
X137591353Y-89861180D02*
X137553258Y-89937371D01*
X137553258Y-89937371D02*
X137515162Y-90089752D01*
X137515162Y-90089752D02*
X137515162Y-90204038D01*
X137515162Y-90204038D02*
X137553258Y-90356419D01*
X137553258Y-90356419D02*
X137591353Y-90432609D01*
X137591353Y-90432609D02*
X137667543Y-90508800D01*
X137667543Y-90508800D02*
X137781829Y-90546895D01*
X137781829Y-90546895D02*
X137972305Y-90546895D01*
X137172305Y-90242133D02*
X136562782Y-90242133D01*
X136867543Y-90546895D02*
X136867543Y-89937371D01*
D11*
%TO.C,J3*%
X141940000Y-81840000D02*
X146060000Y-81840000D01*
X141940000Y-91960000D02*
X141940000Y-81840000D01*
X141940000Y-91960000D02*
X144000000Y-91960000D01*
X144000000Y-89900000D02*
X146060000Y-89900000D01*
X144000000Y-91960000D02*
X144000000Y-89900000D01*
X145000000Y-91960000D02*
X146060000Y-91960000D01*
X146060000Y-89900000D02*
X146060000Y-81840000D01*
X146060000Y-91960000D02*
X146060000Y-90900000D01*
%TD*%
M02*
