%TF.GenerationSoftware,KiCad,Pcbnew,9.0.2*%
%TF.CreationDate,2025-05-13T01:40:48+09:00*%
%TF.ProjectId,kvm_switch,6b766d5f-7377-4697-9463-682e6b696361,rev?*%
%TF.SameCoordinates,Original*%
%TF.FileFunction,Legend,Top*%
%TF.FilePolarity,Positive*%
%FSLAX46Y46*%
G04 Gerber Fmt 4.6, Leading zero omitted, Abs format (unit mm)*
G04 Created by KiCad (PCBNEW 9.0.2) date 2025-05-13 01:40:48*
%MOMM*%
%LPD*%
G01*
G04 APERTURE LIST*
%ADD10C,0.100000*%
%ADD11C,0.150000*%
%ADD12C,0.120000*%
G04 APERTURE END LIST*
D10*
X120456265Y-85233030D02*
X120456265Y-84433030D01*
X120456265Y-84433030D02*
X120761027Y-84433030D01*
X120761027Y-84433030D02*
X120837217Y-84471125D01*
X120837217Y-84471125D02*
X120875312Y-84509220D01*
X120875312Y-84509220D02*
X120913408Y-84585411D01*
X120913408Y-84585411D02*
X120913408Y-84699696D01*
X120913408Y-84699696D02*
X120875312Y-84775887D01*
X120875312Y-84775887D02*
X120837217Y-84813982D01*
X120837217Y-84813982D02*
X120761027Y-84852077D01*
X120761027Y-84852077D02*
X120456265Y-84852077D01*
X120913408Y-86520985D02*
X120646741Y-86140032D01*
X120456265Y-86520985D02*
X120456265Y-85720985D01*
X120456265Y-85720985D02*
X120761027Y-85720985D01*
X120761027Y-85720985D02*
X120837217Y-85759080D01*
X120837217Y-85759080D02*
X120875312Y-85797175D01*
X120875312Y-85797175D02*
X120913408Y-85873366D01*
X120913408Y-85873366D02*
X120913408Y-85987651D01*
X120913408Y-85987651D02*
X120875312Y-86063842D01*
X120875312Y-86063842D02*
X120837217Y-86101937D01*
X120837217Y-86101937D02*
X120761027Y-86140032D01*
X120761027Y-86140032D02*
X120456265Y-86140032D01*
X120875312Y-87047035D02*
X120799122Y-87008940D01*
X120799122Y-87008940D02*
X120684836Y-87008940D01*
X120684836Y-87008940D02*
X120570550Y-87047035D01*
X120570550Y-87047035D02*
X120494360Y-87123225D01*
X120494360Y-87123225D02*
X120456265Y-87199416D01*
X120456265Y-87199416D02*
X120418169Y-87351797D01*
X120418169Y-87351797D02*
X120418169Y-87466083D01*
X120418169Y-87466083D02*
X120456265Y-87618464D01*
X120456265Y-87618464D02*
X120494360Y-87694654D01*
X120494360Y-87694654D02*
X120570550Y-87770845D01*
X120570550Y-87770845D02*
X120684836Y-87808940D01*
X120684836Y-87808940D02*
X120761027Y-87808940D01*
X120761027Y-87808940D02*
X120875312Y-87770845D01*
X120875312Y-87770845D02*
X120913408Y-87732749D01*
X120913408Y-87732749D02*
X120913408Y-87466083D01*
X120913408Y-87466083D02*
X120761027Y-87466083D01*
X120837217Y-89096895D02*
X120456265Y-89096895D01*
X120456265Y-89096895D02*
X120456265Y-88296895D01*
G36*
X157720719Y-87341993D02*
G01*
X156947702Y-87341993D01*
X156947702Y-86479295D01*
X157036591Y-86479295D01*
X157036591Y-86745961D01*
X157040397Y-86765095D01*
X157067457Y-86792155D01*
X157086591Y-86795961D01*
X157238972Y-86795961D01*
X157258106Y-86792155D01*
X157285166Y-86765095D01*
X157285166Y-86726827D01*
X157258106Y-86699767D01*
X157238972Y-86695961D01*
X157136591Y-86695961D01*
X157136591Y-86500006D01*
X157151696Y-86484901D01*
X157247085Y-86453104D01*
X157307049Y-86453104D01*
X157402440Y-86484901D01*
X157464546Y-86547007D01*
X157496558Y-86611031D01*
X157531830Y-86752116D01*
X157531830Y-86854091D01*
X157496557Y-86995177D01*
X157464546Y-87059201D01*
X157402440Y-87121307D01*
X157307050Y-87153104D01*
X157212680Y-87153104D01*
X157147048Y-87120288D01*
X157128232Y-87115135D01*
X157091927Y-87127236D01*
X157074813Y-87161464D01*
X157086914Y-87197769D01*
X157102326Y-87209730D01*
X157178516Y-87247825D01*
X157180931Y-87248486D01*
X157181743Y-87249298D01*
X157189604Y-87250861D01*
X157197332Y-87252978D01*
X157198420Y-87252615D01*
X157200877Y-87253104D01*
X157315163Y-87253104D01*
X157323025Y-87251540D01*
X157330974Y-87250538D01*
X157445260Y-87212443D01*
X157447435Y-87211203D01*
X157448583Y-87211203D01*
X157455243Y-87206752D01*
X157462209Y-87202782D01*
X157462722Y-87201754D01*
X157464804Y-87200364D01*
X157540994Y-87124174D01*
X157545448Y-87117507D01*
X157550360Y-87111179D01*
X157588456Y-87034988D01*
X157589902Y-87029705D01*
X157592241Y-87024755D01*
X157630337Y-86872374D01*
X157630634Y-86866256D01*
X157631830Y-86860247D01*
X157631830Y-86745961D01*
X157630634Y-86739951D01*
X157630337Y-86733834D01*
X157592241Y-86581453D01*
X157589901Y-86576500D01*
X157588455Y-86571219D01*
X157550360Y-86495029D01*
X157545444Y-86488694D01*
X157540994Y-86482035D01*
X157464804Y-86405845D01*
X157462722Y-86404454D01*
X157462209Y-86403427D01*
X157455243Y-86399456D01*
X157448583Y-86395006D01*
X157447435Y-86395006D01*
X157445260Y-86393766D01*
X157330975Y-86355670D01*
X157323024Y-86354667D01*
X157315163Y-86353104D01*
X157238972Y-86353104D01*
X157231110Y-86354667D01*
X157223160Y-86355670D01*
X157108875Y-86393766D01*
X157106699Y-86395006D01*
X157105553Y-86395006D01*
X157098890Y-86399457D01*
X157091927Y-86403427D01*
X157091414Y-86404452D01*
X157089332Y-86405844D01*
X157051236Y-86443939D01*
X157040397Y-86460160D01*
X157040397Y-86460161D01*
X157036591Y-86479295D01*
X156947702Y-86479295D01*
X156947702Y-86264215D01*
X157720719Y-86264215D01*
X157720719Y-87341993D01*
G37*
G36*
X152520719Y-84741993D02*
G01*
X151747702Y-84741993D01*
X151747702Y-83879295D01*
X151836591Y-83879295D01*
X151836591Y-84145961D01*
X151840397Y-84165095D01*
X151867457Y-84192155D01*
X151886591Y-84195961D01*
X152038972Y-84195961D01*
X152058106Y-84192155D01*
X152085166Y-84165095D01*
X152085166Y-84126827D01*
X152058106Y-84099767D01*
X152038972Y-84095961D01*
X151936591Y-84095961D01*
X151936591Y-83900006D01*
X151951696Y-83884901D01*
X152047085Y-83853104D01*
X152107049Y-83853104D01*
X152202440Y-83884901D01*
X152264546Y-83947007D01*
X152296558Y-84011031D01*
X152331830Y-84152116D01*
X152331830Y-84254091D01*
X152296557Y-84395177D01*
X152264546Y-84459201D01*
X152202440Y-84521307D01*
X152107050Y-84553104D01*
X152012680Y-84553104D01*
X151947048Y-84520288D01*
X151928232Y-84515135D01*
X151891927Y-84527236D01*
X151874813Y-84561464D01*
X151886914Y-84597769D01*
X151902326Y-84609730D01*
X151978516Y-84647825D01*
X151980931Y-84648486D01*
X151981743Y-84649298D01*
X151989604Y-84650861D01*
X151997332Y-84652978D01*
X151998420Y-84652615D01*
X152000877Y-84653104D01*
X152115163Y-84653104D01*
X152123025Y-84651540D01*
X152130974Y-84650538D01*
X152245260Y-84612443D01*
X152247435Y-84611203D01*
X152248583Y-84611203D01*
X152255243Y-84606752D01*
X152262209Y-84602782D01*
X152262722Y-84601754D01*
X152264804Y-84600364D01*
X152340994Y-84524174D01*
X152345448Y-84517507D01*
X152350360Y-84511179D01*
X152388456Y-84434988D01*
X152389902Y-84429705D01*
X152392241Y-84424755D01*
X152430337Y-84272374D01*
X152430634Y-84266256D01*
X152431830Y-84260247D01*
X152431830Y-84145961D01*
X152430634Y-84139951D01*
X152430337Y-84133834D01*
X152392241Y-83981453D01*
X152389901Y-83976500D01*
X152388455Y-83971219D01*
X152350360Y-83895029D01*
X152345444Y-83888694D01*
X152340994Y-83882035D01*
X152264804Y-83805845D01*
X152262722Y-83804454D01*
X152262209Y-83803427D01*
X152255243Y-83799456D01*
X152248583Y-83795006D01*
X152247435Y-83795006D01*
X152245260Y-83793766D01*
X152130975Y-83755670D01*
X152123024Y-83754667D01*
X152115163Y-83753104D01*
X152038972Y-83753104D01*
X152031110Y-83754667D01*
X152023160Y-83755670D01*
X151908875Y-83793766D01*
X151906699Y-83795006D01*
X151905553Y-83795006D01*
X151898890Y-83799457D01*
X151891927Y-83803427D01*
X151891414Y-83804452D01*
X151889332Y-83805844D01*
X151851236Y-83843939D01*
X151840397Y-83860160D01*
X151840397Y-83860161D01*
X151836591Y-83879295D01*
X151747702Y-83879295D01*
X151747702Y-83664215D01*
X152520719Y-83664215D01*
X152520719Y-84741993D01*
G37*
G36*
X147220719Y-87441993D02*
G01*
X146447702Y-87441993D01*
X146447702Y-86579295D01*
X146536591Y-86579295D01*
X146536591Y-86845961D01*
X146540397Y-86865095D01*
X146567457Y-86892155D01*
X146586591Y-86895961D01*
X146738972Y-86895961D01*
X146758106Y-86892155D01*
X146785166Y-86865095D01*
X146785166Y-86826827D01*
X146758106Y-86799767D01*
X146738972Y-86795961D01*
X146636591Y-86795961D01*
X146636591Y-86600006D01*
X146651696Y-86584901D01*
X146747085Y-86553104D01*
X146807049Y-86553104D01*
X146902440Y-86584901D01*
X146964546Y-86647007D01*
X146996558Y-86711031D01*
X147031830Y-86852116D01*
X147031830Y-86954091D01*
X146996557Y-87095177D01*
X146964546Y-87159201D01*
X146902440Y-87221307D01*
X146807050Y-87253104D01*
X146712680Y-87253104D01*
X146647048Y-87220288D01*
X146628232Y-87215135D01*
X146591927Y-87227236D01*
X146574813Y-87261464D01*
X146586914Y-87297769D01*
X146602326Y-87309730D01*
X146678516Y-87347825D01*
X146680931Y-87348486D01*
X146681743Y-87349298D01*
X146689604Y-87350861D01*
X146697332Y-87352978D01*
X146698420Y-87352615D01*
X146700877Y-87353104D01*
X146815163Y-87353104D01*
X146823025Y-87351540D01*
X146830974Y-87350538D01*
X146945260Y-87312443D01*
X146947435Y-87311203D01*
X146948583Y-87311203D01*
X146955243Y-87306752D01*
X146962209Y-87302782D01*
X146962722Y-87301754D01*
X146964804Y-87300364D01*
X147040994Y-87224174D01*
X147045448Y-87217507D01*
X147050360Y-87211179D01*
X147088456Y-87134988D01*
X147089902Y-87129705D01*
X147092241Y-87124755D01*
X147130337Y-86972374D01*
X147130634Y-86966256D01*
X147131830Y-86960247D01*
X147131830Y-86845961D01*
X147130634Y-86839951D01*
X147130337Y-86833834D01*
X147092241Y-86681453D01*
X147089901Y-86676500D01*
X147088455Y-86671219D01*
X147050360Y-86595029D01*
X147045444Y-86588694D01*
X147040994Y-86582035D01*
X146964804Y-86505845D01*
X146962722Y-86504454D01*
X146962209Y-86503427D01*
X146955243Y-86499456D01*
X146948583Y-86495006D01*
X146947435Y-86495006D01*
X146945260Y-86493766D01*
X146830975Y-86455670D01*
X146823024Y-86454667D01*
X146815163Y-86453104D01*
X146738972Y-86453104D01*
X146731110Y-86454667D01*
X146723160Y-86455670D01*
X146608875Y-86493766D01*
X146606699Y-86495006D01*
X146605553Y-86495006D01*
X146598890Y-86499457D01*
X146591927Y-86503427D01*
X146591414Y-86504452D01*
X146589332Y-86505844D01*
X146551236Y-86543939D01*
X146540397Y-86560160D01*
X146540397Y-86560161D01*
X146536591Y-86579295D01*
X146447702Y-86579295D01*
X146447702Y-86364215D01*
X147220719Y-86364215D01*
X147220719Y-87441993D01*
G37*
G36*
X142920719Y-85441993D02*
G01*
X142147702Y-85441993D01*
X142147702Y-84579295D01*
X142236591Y-84579295D01*
X142236591Y-84845961D01*
X142240397Y-84865095D01*
X142267457Y-84892155D01*
X142286591Y-84895961D01*
X142438972Y-84895961D01*
X142458106Y-84892155D01*
X142485166Y-84865095D01*
X142485166Y-84826827D01*
X142458106Y-84799767D01*
X142438972Y-84795961D01*
X142336591Y-84795961D01*
X142336591Y-84600006D01*
X142351696Y-84584901D01*
X142447085Y-84553104D01*
X142507049Y-84553104D01*
X142602440Y-84584901D01*
X142664546Y-84647007D01*
X142696558Y-84711031D01*
X142731830Y-84852116D01*
X142731830Y-84954091D01*
X142696557Y-85095177D01*
X142664546Y-85159201D01*
X142602440Y-85221307D01*
X142507050Y-85253104D01*
X142412680Y-85253104D01*
X142347048Y-85220288D01*
X142328232Y-85215135D01*
X142291927Y-85227236D01*
X142274813Y-85261464D01*
X142286914Y-85297769D01*
X142302326Y-85309730D01*
X142378516Y-85347825D01*
X142380931Y-85348486D01*
X142381743Y-85349298D01*
X142389604Y-85350861D01*
X142397332Y-85352978D01*
X142398420Y-85352615D01*
X142400877Y-85353104D01*
X142515163Y-85353104D01*
X142523025Y-85351540D01*
X142530974Y-85350538D01*
X142645260Y-85312443D01*
X142647435Y-85311203D01*
X142648583Y-85311203D01*
X142655243Y-85306752D01*
X142662209Y-85302782D01*
X142662722Y-85301754D01*
X142664804Y-85300364D01*
X142740994Y-85224174D01*
X142745448Y-85217507D01*
X142750360Y-85211179D01*
X142788456Y-85134988D01*
X142789902Y-85129705D01*
X142792241Y-85124755D01*
X142830337Y-84972374D01*
X142830634Y-84966256D01*
X142831830Y-84960247D01*
X142831830Y-84845961D01*
X142830634Y-84839951D01*
X142830337Y-84833834D01*
X142792241Y-84681453D01*
X142789901Y-84676500D01*
X142788455Y-84671219D01*
X142750360Y-84595029D01*
X142745444Y-84588694D01*
X142740994Y-84582035D01*
X142664804Y-84505845D01*
X142662722Y-84504454D01*
X142662209Y-84503427D01*
X142655243Y-84499456D01*
X142648583Y-84495006D01*
X142647435Y-84495006D01*
X142645260Y-84493766D01*
X142530975Y-84455670D01*
X142523024Y-84454667D01*
X142515163Y-84453104D01*
X142438972Y-84453104D01*
X142431110Y-84454667D01*
X142423160Y-84455670D01*
X142308875Y-84493766D01*
X142306699Y-84495006D01*
X142305553Y-84495006D01*
X142298890Y-84499457D01*
X142291927Y-84503427D01*
X142291414Y-84504452D01*
X142289332Y-84505844D01*
X142251236Y-84543939D01*
X142240397Y-84560160D01*
X142240397Y-84560161D01*
X142236591Y-84579295D01*
X142147702Y-84579295D01*
X142147702Y-84364215D01*
X142920719Y-84364215D01*
X142920719Y-85441993D01*
G37*
X142300000Y-93800000D02*
X142300000Y-91800000D01*
X142200000Y-80100000D02*
X142200000Y-82200000D01*
X156600000Y-93500000D02*
X155600000Y-93500000D01*
X156100000Y-93100000D01*
X156600000Y-93500000D01*
G36*
X156600000Y-93500000D02*
G01*
X155600000Y-93500000D01*
X156100000Y-93100000D01*
X156600000Y-93500000D01*
G37*
X152062782Y-91503104D02*
X152443734Y-91503104D01*
X152443734Y-91503104D02*
X152443734Y-92303104D01*
X152443734Y-86303104D02*
X152443734Y-87103104D01*
X152443734Y-87103104D02*
X152138972Y-87103104D01*
X152138972Y-87103104D02*
X152062782Y-87065009D01*
X152062782Y-87065009D02*
X152024687Y-87026914D01*
X152024687Y-87026914D02*
X151986591Y-86950723D01*
X151986591Y-86950723D02*
X151986591Y-86836438D01*
X151986591Y-86836438D02*
X152024687Y-86760247D01*
X152024687Y-86760247D02*
X152062782Y-86722152D01*
X152062782Y-86722152D02*
X152138972Y-86684057D01*
X152138972Y-86684057D02*
X152443734Y-86684057D01*
X156986591Y-83903104D02*
X157253258Y-84284057D01*
X157443734Y-83903104D02*
X157443734Y-84703104D01*
X157443734Y-84703104D02*
X157138972Y-84703104D01*
X157138972Y-84703104D02*
X157062782Y-84665009D01*
X157062782Y-84665009D02*
X157024687Y-84626914D01*
X157024687Y-84626914D02*
X156986591Y-84550723D01*
X156986591Y-84550723D02*
X156986591Y-84436438D01*
X156986591Y-84436438D02*
X157024687Y-84360247D01*
X157024687Y-84360247D02*
X157062782Y-84322152D01*
X157062782Y-84322152D02*
X157138972Y-84284057D01*
X157138972Y-84284057D02*
X157443734Y-84284057D01*
X146486591Y-84503104D02*
X146753258Y-84884057D01*
X146943734Y-84503104D02*
X146943734Y-85303104D01*
X146943734Y-85303104D02*
X146638972Y-85303104D01*
X146638972Y-85303104D02*
X146562782Y-85265009D01*
X146562782Y-85265009D02*
X146524687Y-85226914D01*
X146524687Y-85226914D02*
X146486591Y-85150723D01*
X146486591Y-85150723D02*
X146486591Y-85036438D01*
X146486591Y-85036438D02*
X146524687Y-84960247D01*
X146524687Y-84960247D02*
X146562782Y-84922152D01*
X146562782Y-84922152D02*
X146638972Y-84884057D01*
X146638972Y-84884057D02*
X146943734Y-84884057D01*
X146400000Y-93000000D02*
X145000000Y-93000000D01*
X145700000Y-92300000D01*
X146400000Y-93000000D01*
G36*
X146400000Y-93000000D02*
G01*
X145000000Y-93000000D01*
X145700000Y-92300000D01*
X146400000Y-93000000D01*
G37*
X142843734Y-86503104D02*
X142843734Y-87303104D01*
X142843734Y-87303104D02*
X142538972Y-87303104D01*
X142538972Y-87303104D02*
X142462782Y-87265009D01*
X142462782Y-87265009D02*
X142424687Y-87226914D01*
X142424687Y-87226914D02*
X142386591Y-87150723D01*
X142386591Y-87150723D02*
X142386591Y-87036438D01*
X142386591Y-87036438D02*
X142424687Y-86960247D01*
X142424687Y-86960247D02*
X142462782Y-86922152D01*
X142462782Y-86922152D02*
X142538972Y-86884057D01*
X142538972Y-86884057D02*
X142843734Y-86884057D01*
X142462782Y-90503104D02*
X142843734Y-90503104D01*
X142843734Y-90503104D02*
X142843734Y-91303104D01*
D11*
X137761905Y-89962295D02*
X137838095Y-89962295D01*
X137838095Y-89962295D02*
X137914286Y-90000390D01*
X137914286Y-90000390D02*
X137952381Y-90038485D01*
X137952381Y-90038485D02*
X137990476Y-90114676D01*
X137990476Y-90114676D02*
X138028571Y-90267057D01*
X138028571Y-90267057D02*
X138028571Y-90457533D01*
X138028571Y-90457533D02*
X137990476Y-90609914D01*
X137990476Y-90609914D02*
X137952381Y-90686104D01*
X137952381Y-90686104D02*
X137914286Y-90724200D01*
X137914286Y-90724200D02*
X137838095Y-90762295D01*
X137838095Y-90762295D02*
X137761905Y-90762295D01*
X137761905Y-90762295D02*
X137685714Y-90724200D01*
X137685714Y-90724200D02*
X137647619Y-90686104D01*
X137647619Y-90686104D02*
X137609524Y-90609914D01*
X137609524Y-90609914D02*
X137571428Y-90457533D01*
X137571428Y-90457533D02*
X137571428Y-90267057D01*
X137571428Y-90267057D02*
X137609524Y-90114676D01*
X137609524Y-90114676D02*
X137647619Y-90038485D01*
X137647619Y-90038485D02*
X137685714Y-90000390D01*
X137685714Y-90000390D02*
X137761905Y-89962295D01*
X137761905Y-80962295D02*
X137838095Y-80962295D01*
X137838095Y-80962295D02*
X137914286Y-81000390D01*
X137914286Y-81000390D02*
X137952381Y-81038485D01*
X137952381Y-81038485D02*
X137990476Y-81114676D01*
X137990476Y-81114676D02*
X138028571Y-81267057D01*
X138028571Y-81267057D02*
X138028571Y-81457533D01*
X138028571Y-81457533D02*
X137990476Y-81609914D01*
X137990476Y-81609914D02*
X137952381Y-81686104D01*
X137952381Y-81686104D02*
X137914286Y-81724200D01*
X137914286Y-81724200D02*
X137838095Y-81762295D01*
X137838095Y-81762295D02*
X137761905Y-81762295D01*
X137761905Y-81762295D02*
X137685714Y-81724200D01*
X137685714Y-81724200D02*
X137647619Y-81686104D01*
X137647619Y-81686104D02*
X137609524Y-81609914D01*
X137609524Y-81609914D02*
X137571428Y-81457533D01*
X137571428Y-81457533D02*
X137571428Y-81267057D01*
X137571428Y-81267057D02*
X137609524Y-81114676D01*
X137609524Y-81114676D02*
X137647619Y-81038485D01*
X137647619Y-81038485D02*
X137685714Y-81000390D01*
X137685714Y-81000390D02*
X137761905Y-80962295D01*
X122074405Y-89962295D02*
X122150595Y-89962295D01*
X122150595Y-89962295D02*
X122226786Y-90000390D01*
X122226786Y-90000390D02*
X122264881Y-90038485D01*
X122264881Y-90038485D02*
X122302976Y-90114676D01*
X122302976Y-90114676D02*
X122341071Y-90267057D01*
X122341071Y-90267057D02*
X122341071Y-90457533D01*
X122341071Y-90457533D02*
X122302976Y-90609914D01*
X122302976Y-90609914D02*
X122264881Y-90686104D01*
X122264881Y-90686104D02*
X122226786Y-90724200D01*
X122226786Y-90724200D02*
X122150595Y-90762295D01*
X122150595Y-90762295D02*
X122074405Y-90762295D01*
X122074405Y-90762295D02*
X121998214Y-90724200D01*
X121998214Y-90724200D02*
X121960119Y-90686104D01*
X121960119Y-90686104D02*
X121922024Y-90609914D01*
X121922024Y-90609914D02*
X121883928Y-90457533D01*
X121883928Y-90457533D02*
X121883928Y-90267057D01*
X121883928Y-90267057D02*
X121922024Y-90114676D01*
X121922024Y-90114676D02*
X121960119Y-90038485D01*
X121960119Y-90038485D02*
X121998214Y-90000390D01*
X121998214Y-90000390D02*
X122074405Y-89962295D01*
X124304761Y-83362295D02*
X123847618Y-83362295D01*
X124076190Y-83362295D02*
X124076190Y-82562295D01*
X124076190Y-82562295D02*
X123999999Y-82676580D01*
X123999999Y-82676580D02*
X123923809Y-82752771D01*
X123923809Y-82752771D02*
X123847618Y-82790866D01*
X124647619Y-83362295D02*
X124647619Y-82562295D01*
X124723809Y-83057533D02*
X124952381Y-83362295D01*
X124952381Y-82828961D02*
X124647619Y-83133723D01*
X128197619Y-91982295D02*
X128197619Y-91182295D01*
X128197619Y-91182295D02*
X128502381Y-91182295D01*
X128502381Y-91182295D02*
X128578571Y-91220390D01*
X128578571Y-91220390D02*
X128616666Y-91258485D01*
X128616666Y-91258485D02*
X128654762Y-91334676D01*
X128654762Y-91334676D02*
X128654762Y-91448961D01*
X128654762Y-91448961D02*
X128616666Y-91525152D01*
X128616666Y-91525152D02*
X128578571Y-91563247D01*
X128578571Y-91563247D02*
X128502381Y-91601342D01*
X128502381Y-91601342D02*
X128197619Y-91601342D01*
X129454762Y-91906104D02*
X129416666Y-91944200D01*
X129416666Y-91944200D02*
X129302381Y-91982295D01*
X129302381Y-91982295D02*
X129226190Y-91982295D01*
X129226190Y-91982295D02*
X129111904Y-91944200D01*
X129111904Y-91944200D02*
X129035714Y-91868009D01*
X129035714Y-91868009D02*
X128997619Y-91791819D01*
X128997619Y-91791819D02*
X128959523Y-91639438D01*
X128959523Y-91639438D02*
X128959523Y-91525152D01*
X128959523Y-91525152D02*
X128997619Y-91372771D01*
X128997619Y-91372771D02*
X129035714Y-91296580D01*
X129035714Y-91296580D02*
X129111904Y-91220390D01*
X129111904Y-91220390D02*
X129226190Y-91182295D01*
X129226190Y-91182295D02*
X129302381Y-91182295D01*
X129302381Y-91182295D02*
X129416666Y-91220390D01*
X129416666Y-91220390D02*
X129454762Y-91258485D01*
X129911904Y-91525152D02*
X129835714Y-91487057D01*
X129835714Y-91487057D02*
X129797619Y-91448961D01*
X129797619Y-91448961D02*
X129759523Y-91372771D01*
X129759523Y-91372771D02*
X129759523Y-91334676D01*
X129759523Y-91334676D02*
X129797619Y-91258485D01*
X129797619Y-91258485D02*
X129835714Y-91220390D01*
X129835714Y-91220390D02*
X129911904Y-91182295D01*
X129911904Y-91182295D02*
X130064285Y-91182295D01*
X130064285Y-91182295D02*
X130140476Y-91220390D01*
X130140476Y-91220390D02*
X130178571Y-91258485D01*
X130178571Y-91258485D02*
X130216666Y-91334676D01*
X130216666Y-91334676D02*
X130216666Y-91372771D01*
X130216666Y-91372771D02*
X130178571Y-91448961D01*
X130178571Y-91448961D02*
X130140476Y-91487057D01*
X130140476Y-91487057D02*
X130064285Y-91525152D01*
X130064285Y-91525152D02*
X129911904Y-91525152D01*
X129911904Y-91525152D02*
X129835714Y-91563247D01*
X129835714Y-91563247D02*
X129797619Y-91601342D01*
X129797619Y-91601342D02*
X129759523Y-91677533D01*
X129759523Y-91677533D02*
X129759523Y-91829914D01*
X129759523Y-91829914D02*
X129797619Y-91906104D01*
X129797619Y-91906104D02*
X129835714Y-91944200D01*
X129835714Y-91944200D02*
X129911904Y-91982295D01*
X129911904Y-91982295D02*
X130064285Y-91982295D01*
X130064285Y-91982295D02*
X130140476Y-91944200D01*
X130140476Y-91944200D02*
X130178571Y-91906104D01*
X130178571Y-91906104D02*
X130216666Y-91829914D01*
X130216666Y-91829914D02*
X130216666Y-91677533D01*
X130216666Y-91677533D02*
X130178571Y-91601342D01*
X130178571Y-91601342D02*
X130140476Y-91563247D01*
X130140476Y-91563247D02*
X130064285Y-91525152D01*
X130978571Y-91982295D02*
X130521428Y-91982295D01*
X130750000Y-91982295D02*
X130750000Y-91182295D01*
X130750000Y-91182295D02*
X130673809Y-91296580D01*
X130673809Y-91296580D02*
X130597619Y-91372771D01*
X130597619Y-91372771D02*
X130521428Y-91410866D01*
X131245238Y-91182295D02*
X131778572Y-91182295D01*
X131778572Y-91182295D02*
X131435714Y-91982295D01*
X137954761Y-92762295D02*
X137497618Y-92762295D01*
X137726190Y-92762295D02*
X137726190Y-91962295D01*
X137726190Y-91962295D02*
X137649999Y-92076580D01*
X137649999Y-92076580D02*
X137573809Y-92152771D01*
X137573809Y-92152771D02*
X137497618Y-92190866D01*
X138297619Y-92762295D02*
X138297619Y-91962295D01*
X138373809Y-92457533D02*
X138602381Y-92762295D01*
X138602381Y-92228961D02*
X138297619Y-92533723D01*
X137761905Y-87597066D02*
X137838095Y-87597066D01*
X137838095Y-87597066D02*
X137914286Y-87635161D01*
X137914286Y-87635161D02*
X137952381Y-87673256D01*
X137952381Y-87673256D02*
X137990476Y-87749447D01*
X137990476Y-87749447D02*
X138028571Y-87901828D01*
X138028571Y-87901828D02*
X138028571Y-88092304D01*
X138028571Y-88092304D02*
X137990476Y-88244685D01*
X137990476Y-88244685D02*
X137952381Y-88320875D01*
X137952381Y-88320875D02*
X137914286Y-88358971D01*
X137914286Y-88358971D02*
X137838095Y-88397066D01*
X137838095Y-88397066D02*
X137761905Y-88397066D01*
X137761905Y-88397066D02*
X137685714Y-88358971D01*
X137685714Y-88358971D02*
X137647619Y-88320875D01*
X137647619Y-88320875D02*
X137609524Y-88244685D01*
X137609524Y-88244685D02*
X137571428Y-88092304D01*
X137571428Y-88092304D02*
X137571428Y-87901828D01*
X137571428Y-87901828D02*
X137609524Y-87749447D01*
X137609524Y-87749447D02*
X137647619Y-87673256D01*
X137647619Y-87673256D02*
X137685714Y-87635161D01*
X137685714Y-87635161D02*
X137761905Y-87597066D01*
X122011905Y-91962295D02*
X122088095Y-91962295D01*
X122088095Y-91962295D02*
X122164286Y-92000390D01*
X122164286Y-92000390D02*
X122202381Y-92038485D01*
X122202381Y-92038485D02*
X122240476Y-92114676D01*
X122240476Y-92114676D02*
X122278571Y-92267057D01*
X122278571Y-92267057D02*
X122278571Y-92457533D01*
X122278571Y-92457533D02*
X122240476Y-92609914D01*
X122240476Y-92609914D02*
X122202381Y-92686104D01*
X122202381Y-92686104D02*
X122164286Y-92724200D01*
X122164286Y-92724200D02*
X122088095Y-92762295D01*
X122088095Y-92762295D02*
X122011905Y-92762295D01*
X122011905Y-92762295D02*
X121935714Y-92724200D01*
X121935714Y-92724200D02*
X121897619Y-92686104D01*
X121897619Y-92686104D02*
X121859524Y-92609914D01*
X121859524Y-92609914D02*
X121821428Y-92457533D01*
X121821428Y-92457533D02*
X121821428Y-92267057D01*
X121821428Y-92267057D02*
X121859524Y-92114676D01*
X121859524Y-92114676D02*
X121897619Y-92038485D01*
X121897619Y-92038485D02*
X121935714Y-92000390D01*
X121935714Y-92000390D02*
X122011905Y-91962295D01*
X128197619Y-82592295D02*
X128197619Y-81792295D01*
X128197619Y-81792295D02*
X128502381Y-81792295D01*
X128502381Y-81792295D02*
X128578571Y-81830390D01*
X128578571Y-81830390D02*
X128616666Y-81868485D01*
X128616666Y-81868485D02*
X128654762Y-81944676D01*
X128654762Y-81944676D02*
X128654762Y-82058961D01*
X128654762Y-82058961D02*
X128616666Y-82135152D01*
X128616666Y-82135152D02*
X128578571Y-82173247D01*
X128578571Y-82173247D02*
X128502381Y-82211342D01*
X128502381Y-82211342D02*
X128197619Y-82211342D01*
X129454762Y-82516104D02*
X129416666Y-82554200D01*
X129416666Y-82554200D02*
X129302381Y-82592295D01*
X129302381Y-82592295D02*
X129226190Y-82592295D01*
X129226190Y-82592295D02*
X129111904Y-82554200D01*
X129111904Y-82554200D02*
X129035714Y-82478009D01*
X129035714Y-82478009D02*
X128997619Y-82401819D01*
X128997619Y-82401819D02*
X128959523Y-82249438D01*
X128959523Y-82249438D02*
X128959523Y-82135152D01*
X128959523Y-82135152D02*
X128997619Y-81982771D01*
X128997619Y-81982771D02*
X129035714Y-81906580D01*
X129035714Y-81906580D02*
X129111904Y-81830390D01*
X129111904Y-81830390D02*
X129226190Y-81792295D01*
X129226190Y-81792295D02*
X129302381Y-81792295D01*
X129302381Y-81792295D02*
X129416666Y-81830390D01*
X129416666Y-81830390D02*
X129454762Y-81868485D01*
X129911904Y-82135152D02*
X129835714Y-82097057D01*
X129835714Y-82097057D02*
X129797619Y-82058961D01*
X129797619Y-82058961D02*
X129759523Y-81982771D01*
X129759523Y-81982771D02*
X129759523Y-81944676D01*
X129759523Y-81944676D02*
X129797619Y-81868485D01*
X129797619Y-81868485D02*
X129835714Y-81830390D01*
X129835714Y-81830390D02*
X129911904Y-81792295D01*
X129911904Y-81792295D02*
X130064285Y-81792295D01*
X130064285Y-81792295D02*
X130140476Y-81830390D01*
X130140476Y-81830390D02*
X130178571Y-81868485D01*
X130178571Y-81868485D02*
X130216666Y-81944676D01*
X130216666Y-81944676D02*
X130216666Y-81982771D01*
X130216666Y-81982771D02*
X130178571Y-82058961D01*
X130178571Y-82058961D02*
X130140476Y-82097057D01*
X130140476Y-82097057D02*
X130064285Y-82135152D01*
X130064285Y-82135152D02*
X129911904Y-82135152D01*
X129911904Y-82135152D02*
X129835714Y-82173247D01*
X129835714Y-82173247D02*
X129797619Y-82211342D01*
X129797619Y-82211342D02*
X129759523Y-82287533D01*
X129759523Y-82287533D02*
X129759523Y-82439914D01*
X129759523Y-82439914D02*
X129797619Y-82516104D01*
X129797619Y-82516104D02*
X129835714Y-82554200D01*
X129835714Y-82554200D02*
X129911904Y-82592295D01*
X129911904Y-82592295D02*
X130064285Y-82592295D01*
X130064285Y-82592295D02*
X130140476Y-82554200D01*
X130140476Y-82554200D02*
X130178571Y-82516104D01*
X130178571Y-82516104D02*
X130216666Y-82439914D01*
X130216666Y-82439914D02*
X130216666Y-82287533D01*
X130216666Y-82287533D02*
X130178571Y-82211342D01*
X130178571Y-82211342D02*
X130140476Y-82173247D01*
X130140476Y-82173247D02*
X130064285Y-82135152D01*
X130978571Y-82592295D02*
X130521428Y-82592295D01*
X130750000Y-82592295D02*
X130750000Y-81792295D01*
X130750000Y-81792295D02*
X130673809Y-81906580D01*
X130673809Y-81906580D02*
X130597619Y-81982771D01*
X130597619Y-81982771D02*
X130521428Y-82020866D01*
X131245238Y-81792295D02*
X131778572Y-81792295D01*
X131778572Y-81792295D02*
X131435714Y-82592295D01*
X128197619Y-87312295D02*
X128197619Y-86512295D01*
X128197619Y-86512295D02*
X128502381Y-86512295D01*
X128502381Y-86512295D02*
X128578571Y-86550390D01*
X128578571Y-86550390D02*
X128616666Y-86588485D01*
X128616666Y-86588485D02*
X128654762Y-86664676D01*
X128654762Y-86664676D02*
X128654762Y-86778961D01*
X128654762Y-86778961D02*
X128616666Y-86855152D01*
X128616666Y-86855152D02*
X128578571Y-86893247D01*
X128578571Y-86893247D02*
X128502381Y-86931342D01*
X128502381Y-86931342D02*
X128197619Y-86931342D01*
X129454762Y-87236104D02*
X129416666Y-87274200D01*
X129416666Y-87274200D02*
X129302381Y-87312295D01*
X129302381Y-87312295D02*
X129226190Y-87312295D01*
X129226190Y-87312295D02*
X129111904Y-87274200D01*
X129111904Y-87274200D02*
X129035714Y-87198009D01*
X129035714Y-87198009D02*
X128997619Y-87121819D01*
X128997619Y-87121819D02*
X128959523Y-86969438D01*
X128959523Y-86969438D02*
X128959523Y-86855152D01*
X128959523Y-86855152D02*
X128997619Y-86702771D01*
X128997619Y-86702771D02*
X129035714Y-86626580D01*
X129035714Y-86626580D02*
X129111904Y-86550390D01*
X129111904Y-86550390D02*
X129226190Y-86512295D01*
X129226190Y-86512295D02*
X129302381Y-86512295D01*
X129302381Y-86512295D02*
X129416666Y-86550390D01*
X129416666Y-86550390D02*
X129454762Y-86588485D01*
X129911904Y-86855152D02*
X129835714Y-86817057D01*
X129835714Y-86817057D02*
X129797619Y-86778961D01*
X129797619Y-86778961D02*
X129759523Y-86702771D01*
X129759523Y-86702771D02*
X129759523Y-86664676D01*
X129759523Y-86664676D02*
X129797619Y-86588485D01*
X129797619Y-86588485D02*
X129835714Y-86550390D01*
X129835714Y-86550390D02*
X129911904Y-86512295D01*
X129911904Y-86512295D02*
X130064285Y-86512295D01*
X130064285Y-86512295D02*
X130140476Y-86550390D01*
X130140476Y-86550390D02*
X130178571Y-86588485D01*
X130178571Y-86588485D02*
X130216666Y-86664676D01*
X130216666Y-86664676D02*
X130216666Y-86702771D01*
X130216666Y-86702771D02*
X130178571Y-86778961D01*
X130178571Y-86778961D02*
X130140476Y-86817057D01*
X130140476Y-86817057D02*
X130064285Y-86855152D01*
X130064285Y-86855152D02*
X129911904Y-86855152D01*
X129911904Y-86855152D02*
X129835714Y-86893247D01*
X129835714Y-86893247D02*
X129797619Y-86931342D01*
X129797619Y-86931342D02*
X129759523Y-87007533D01*
X129759523Y-87007533D02*
X129759523Y-87159914D01*
X129759523Y-87159914D02*
X129797619Y-87236104D01*
X129797619Y-87236104D02*
X129835714Y-87274200D01*
X129835714Y-87274200D02*
X129911904Y-87312295D01*
X129911904Y-87312295D02*
X130064285Y-87312295D01*
X130064285Y-87312295D02*
X130140476Y-87274200D01*
X130140476Y-87274200D02*
X130178571Y-87236104D01*
X130178571Y-87236104D02*
X130216666Y-87159914D01*
X130216666Y-87159914D02*
X130216666Y-87007533D01*
X130216666Y-87007533D02*
X130178571Y-86931342D01*
X130178571Y-86931342D02*
X130140476Y-86893247D01*
X130140476Y-86893247D02*
X130064285Y-86855152D01*
X130978571Y-87312295D02*
X130521428Y-87312295D01*
X130750000Y-87312295D02*
X130750000Y-86512295D01*
X130750000Y-86512295D02*
X130673809Y-86626580D01*
X130673809Y-86626580D02*
X130597619Y-86702771D01*
X130597619Y-86702771D02*
X130521428Y-86740866D01*
X131245238Y-86512295D02*
X131778572Y-86512295D01*
X131778572Y-86512295D02*
X131435714Y-87312295D01*
X124304761Y-87762295D02*
X123847618Y-87762295D01*
X124076190Y-87762295D02*
X124076190Y-86962295D01*
X124076190Y-86962295D02*
X123999999Y-87076580D01*
X123999999Y-87076580D02*
X123923809Y-87152771D01*
X123923809Y-87152771D02*
X123847618Y-87190866D01*
X124647619Y-87762295D02*
X124647619Y-86962295D01*
X124723809Y-87457533D02*
X124952381Y-87762295D01*
X124952381Y-87228961D02*
X124647619Y-87533723D01*
X137761905Y-85462295D02*
X137838095Y-85462295D01*
X137838095Y-85462295D02*
X137914286Y-85500390D01*
X137914286Y-85500390D02*
X137952381Y-85538485D01*
X137952381Y-85538485D02*
X137990476Y-85614676D01*
X137990476Y-85614676D02*
X138028571Y-85767057D01*
X138028571Y-85767057D02*
X138028571Y-85957533D01*
X138028571Y-85957533D02*
X137990476Y-86109914D01*
X137990476Y-86109914D02*
X137952381Y-86186104D01*
X137952381Y-86186104D02*
X137914286Y-86224200D01*
X137914286Y-86224200D02*
X137838095Y-86262295D01*
X137838095Y-86262295D02*
X137761905Y-86262295D01*
X137761905Y-86262295D02*
X137685714Y-86224200D01*
X137685714Y-86224200D02*
X137647619Y-86186104D01*
X137647619Y-86186104D02*
X137609524Y-86109914D01*
X137609524Y-86109914D02*
X137571428Y-85957533D01*
X137571428Y-85957533D02*
X137571428Y-85767057D01*
X137571428Y-85767057D02*
X137609524Y-85614676D01*
X137609524Y-85614676D02*
X137647619Y-85538485D01*
X137647619Y-85538485D02*
X137685714Y-85500390D01*
X137685714Y-85500390D02*
X137761905Y-85462295D01*
X137761905Y-82962295D02*
X137838095Y-82962295D01*
X137838095Y-82962295D02*
X137914286Y-83000390D01*
X137914286Y-83000390D02*
X137952381Y-83038485D01*
X137952381Y-83038485D02*
X137990476Y-83114676D01*
X137990476Y-83114676D02*
X138028571Y-83267057D01*
X138028571Y-83267057D02*
X138028571Y-83457533D01*
X138028571Y-83457533D02*
X137990476Y-83609914D01*
X137990476Y-83609914D02*
X137952381Y-83686104D01*
X137952381Y-83686104D02*
X137914286Y-83724200D01*
X137914286Y-83724200D02*
X137838095Y-83762295D01*
X137838095Y-83762295D02*
X137761905Y-83762295D01*
X137761905Y-83762295D02*
X137685714Y-83724200D01*
X137685714Y-83724200D02*
X137647619Y-83686104D01*
X137647619Y-83686104D02*
X137609524Y-83609914D01*
X137609524Y-83609914D02*
X137571428Y-83457533D01*
X137571428Y-83457533D02*
X137571428Y-83267057D01*
X137571428Y-83267057D02*
X137609524Y-83114676D01*
X137609524Y-83114676D02*
X137647619Y-83038485D01*
X137647619Y-83038485D02*
X137685714Y-83000390D01*
X137685714Y-83000390D02*
X137761905Y-82962295D01*
D12*
%TO.C,J4*%
X147450000Y-81950000D02*
X148450000Y-81950000D01*
X147450000Y-81950000D02*
X147450000Y-82950000D01*
X151160000Y-82240000D02*
X147740000Y-82240000D01*
X147740000Y-82240000D02*
X147740000Y-91710000D01*
X149800000Y-82550000D02*
X149800000Y-82750000D01*
X149000000Y-82550000D02*
X149800000Y-82550000D01*
X150650000Y-82750000D02*
X150650000Y-86975000D01*
X149800000Y-82750000D02*
X150650000Y-82750000D01*
X149000000Y-82750000D02*
X149000000Y-82550000D01*
X148250000Y-82750000D02*
X149000000Y-82750000D01*
X148250000Y-86975000D02*
X148250000Y-82750000D01*
X148250000Y-86975000D02*
X148250000Y-91200000D01*
X150650000Y-91200000D02*
X150650000Y-86975000D01*
X149800000Y-91200000D02*
X150650000Y-91200000D01*
X149000000Y-91200000D02*
X149000000Y-91400000D01*
X148250000Y-91200000D02*
X149000000Y-91200000D01*
X149800000Y-91400000D02*
X149800000Y-91200000D01*
X149000000Y-91400000D02*
X149800000Y-91400000D01*
X151160000Y-91710000D02*
X151160000Y-82240000D01*
X147740000Y-91710000D02*
X151160000Y-91710000D01*
%TO.C,R6*%
X135827064Y-89665000D02*
X135372936Y-89665000D01*
X135827064Y-91135000D02*
X135372936Y-91135000D01*
%TO.C,R2*%
X135372936Y-80665000D02*
X135827064Y-80665000D01*
X135372936Y-82135000D02*
X135827064Y-82135000D01*
%TO.C,R4*%
X124527064Y-89665000D02*
X124072936Y-89665000D01*
X124527064Y-91135000D02*
X124072936Y-91135000D01*
%TO.C,R1*%
X124072936Y-80665000D02*
X124527064Y-80665000D01*
X124072936Y-82135000D02*
X124527064Y-82135000D01*
%TO.C,U2*%
X127940000Y-89440000D02*
X127940000Y-89795000D01*
X127940000Y-93760000D02*
X127940000Y-93405000D01*
X129950000Y-89440000D02*
X127940000Y-89440000D01*
X129950000Y-89440000D02*
X131960000Y-89440000D01*
X129950000Y-93760000D02*
X127940000Y-93760000D01*
X129950000Y-93760000D02*
X131960000Y-93760000D01*
X131960000Y-89440000D02*
X131960000Y-89795000D01*
X131960000Y-93760000D02*
X131960000Y-93405000D01*
X132877500Y-93735000D02*
X132397500Y-93735000D01*
X132637500Y-93405000D01*
X132877500Y-93735000D01*
G36*
X132877500Y-93735000D02*
G01*
X132397500Y-93735000D01*
X132637500Y-93405000D01*
X132877500Y-93735000D01*
G37*
%TO.C,R7*%
X135827064Y-91665000D02*
X135372936Y-91665000D01*
X135827064Y-93135000D02*
X135372936Y-93135000D01*
%TO.C,R10*%
X135372936Y-87265000D02*
X135827064Y-87265000D01*
X135372936Y-88735000D02*
X135827064Y-88735000D01*
%TO.C,J2*%
X138340000Y-82190000D02*
X138340000Y-91660000D01*
X138340000Y-91660000D02*
X141760000Y-91660000D01*
X138850000Y-82700000D02*
X138850000Y-86925000D01*
X138850000Y-91150000D02*
X138850000Y-86925000D01*
X139700000Y-82500000D02*
X139700000Y-82700000D01*
X139700000Y-82700000D02*
X138850000Y-82700000D01*
X139700000Y-91150000D02*
X138850000Y-91150000D01*
X139700000Y-91350000D02*
X139700000Y-91150000D01*
X140500000Y-82500000D02*
X139700000Y-82500000D01*
X140500000Y-82700000D02*
X140500000Y-82500000D01*
X140500000Y-91150000D02*
X140500000Y-91350000D01*
X140500000Y-91350000D02*
X139700000Y-91350000D01*
X141250000Y-82700000D02*
X140500000Y-82700000D01*
X141250000Y-86925000D02*
X141250000Y-82700000D01*
X141250000Y-86925000D02*
X141250000Y-91150000D01*
X141250000Y-91150000D02*
X140500000Y-91150000D01*
X141760000Y-82190000D02*
X138340000Y-82190000D01*
X141760000Y-91660000D02*
X141760000Y-82190000D01*
X142050000Y-91950000D02*
X141050000Y-91950000D01*
X142050000Y-91950000D02*
X142050000Y-90950000D01*
%TO.C,R5*%
X124527064Y-91665000D02*
X124072936Y-91665000D01*
X124527064Y-93135000D02*
X124072936Y-93135000D01*
%TO.C,U1*%
X127940000Y-80070000D02*
X127940000Y-80425000D01*
X127940000Y-84390000D02*
X127940000Y-84035000D01*
X129950000Y-80070000D02*
X127940000Y-80070000D01*
X129950000Y-80070000D02*
X131960000Y-80070000D01*
X129950000Y-84390000D02*
X127940000Y-84390000D01*
X129950000Y-84390000D02*
X131960000Y-84390000D01*
X131960000Y-80070000D02*
X131960000Y-80425000D01*
X131960000Y-84390000D02*
X131960000Y-84035000D01*
X127262500Y-80425000D02*
X127022500Y-80095000D01*
X127502500Y-80095000D01*
X127262500Y-80425000D01*
G36*
X127262500Y-80425000D02*
G01*
X127022500Y-80095000D01*
X127502500Y-80095000D01*
X127262500Y-80425000D01*
G37*
%TO.C,U3*%
X127940000Y-84770000D02*
X127940000Y-85125000D01*
X127940000Y-89090000D02*
X127940000Y-88735000D01*
X129950000Y-84770000D02*
X127940000Y-84770000D01*
X129950000Y-84770000D02*
X131960000Y-84770000D01*
X129950000Y-89090000D02*
X127940000Y-89090000D01*
X129950000Y-89090000D02*
X131960000Y-89090000D01*
X131960000Y-84770000D02*
X131960000Y-85125000D01*
X131960000Y-89090000D02*
X131960000Y-88735000D01*
X127262500Y-85125000D02*
X127022500Y-84795000D01*
X127502500Y-84795000D01*
X127262500Y-85125000D01*
G36*
X127262500Y-85125000D02*
G01*
X127022500Y-84795000D01*
X127502500Y-84795000D01*
X127262500Y-85125000D01*
G37*
%TO.C,J1*%
X117950000Y-83050000D02*
X117950000Y-84050000D01*
X117950000Y-83050000D02*
X118950000Y-83050000D01*
X118240000Y-83340000D02*
X118240000Y-90310000D01*
X118240000Y-90310000D02*
X121660000Y-90310000D01*
X118750000Y-83850000D02*
X119500000Y-83850000D01*
X118750000Y-86825000D02*
X118750000Y-83850000D01*
X118750000Y-86825000D02*
X118750000Y-89800000D01*
X118750000Y-89800000D02*
X119500000Y-89800000D01*
X119500000Y-83650000D02*
X120300000Y-83650000D01*
X119500000Y-83850000D02*
X119500000Y-83650000D01*
X119500000Y-89800000D02*
X119500000Y-90000000D01*
X119500000Y-90000000D02*
X120300000Y-90000000D01*
X120300000Y-83650000D02*
X120300000Y-83850000D01*
X120300000Y-83850000D02*
X121150000Y-83850000D01*
X120300000Y-89800000D02*
X121150000Y-89800000D01*
X120300000Y-90000000D02*
X120300000Y-89800000D01*
X121150000Y-83850000D02*
X121150000Y-86825000D01*
X121150000Y-89800000D02*
X121150000Y-86825000D01*
X121660000Y-83340000D02*
X118240000Y-83340000D01*
X121660000Y-90310000D02*
X121660000Y-83340000D01*
%TO.C,R8*%
X124072936Y-85065000D02*
X124527064Y-85065000D01*
X124072936Y-86535000D02*
X124527064Y-86535000D01*
%TO.C,R9*%
X135372936Y-85165000D02*
X135827064Y-85165000D01*
X135372936Y-86635000D02*
X135827064Y-86635000D01*
%TO.C,R3*%
X135372936Y-82665000D02*
X135827064Y-82665000D01*
X135372936Y-84135000D02*
X135827064Y-84135000D01*
%TD*%
M02*
