%TF.GenerationSoftware,KiCad,Pcbnew,9.0.2*%
%TF.CreationDate,2025-05-16T22:42:49+09:00*%
%TF.ProjectId,kvm_switch,6b766d5f-7377-4697-9463-682e6b696361,rev?*%
%TF.SameCoordinates,Original*%
%TF.FileFunction,Legend,Top*%
%TF.FilePolarity,Positive*%
%FSLAX46Y46*%
G04 Gerber Fmt 4.6, Leading zero omitted, Abs format (unit mm)*
G04 Created by KiCad (PCBNEW 9.0.2) date 2025-05-16 22:42:49*
%MOMM*%
%LPD*%
G01*
G04 APERTURE LIST*
%ADD10C,0.300000*%
%ADD11C,0.100000*%
%ADD12C,0.150000*%
%ADD13C,0.120000*%
G04 APERTURE END LIST*
D10*
X128650000Y-80650000D02*
G75*
G02*
X128350000Y-80650000I-150000J0D01*
G01*
X128350000Y-80650000D02*
G75*
G02*
X128650000Y-80650000I150000J0D01*
G01*
X131550000Y-93150000D02*
G75*
G02*
X131250000Y-93150000I-150000J0D01*
G01*
X131250000Y-93150000D02*
G75*
G02*
X131550000Y-93150000I150000J0D01*
G01*
X128700000Y-85350000D02*
G75*
G02*
X128400000Y-85350000I-150000J0D01*
G01*
X128400000Y-85350000D02*
G75*
G02*
X128700000Y-85350000I150000J0D01*
G01*
D11*
X153400000Y-80400000D02*
X152900000Y-80000000D01*
X153900000Y-80000000D01*
X153400000Y-80400000D01*
G36*
X153400000Y-80400000D02*
G01*
X152900000Y-80000000D01*
X153900000Y-80000000D01*
X153400000Y-80400000D01*
G37*
X142300000Y-93800000D02*
X142300000Y-91800000D01*
X142200000Y-80100000D02*
X142200000Y-82200000D01*
X146400000Y-93000000D02*
X145000000Y-93000000D01*
X145700000Y-92300000D01*
X146400000Y-93000000D01*
G36*
X146400000Y-93000000D02*
G01*
X145000000Y-93000000D01*
X145700000Y-92300000D01*
X146400000Y-93000000D01*
G37*
X146636591Y-84503104D02*
X146903258Y-84884057D01*
X147093734Y-84503104D02*
X147093734Y-85303104D01*
X147093734Y-85303104D02*
X146788972Y-85303104D01*
X146788972Y-85303104D02*
X146712782Y-85265009D01*
X146712782Y-85265009D02*
X146674687Y-85226914D01*
X146674687Y-85226914D02*
X146636591Y-85150723D01*
X146636591Y-85150723D02*
X146636591Y-85036438D01*
X146636591Y-85036438D02*
X146674687Y-84960247D01*
X146674687Y-84960247D02*
X146712782Y-84922152D01*
X146712782Y-84922152D02*
X146788972Y-84884057D01*
X146788972Y-84884057D02*
X147093734Y-84884057D01*
X145943734Y-80653104D02*
X145943734Y-81453104D01*
X145943734Y-81453104D02*
X145486591Y-80653104D01*
X145486591Y-80653104D02*
X145486591Y-81453104D01*
X145105639Y-81453104D02*
X145105639Y-80805485D01*
X145105639Y-80805485D02*
X145067544Y-80729295D01*
X145067544Y-80729295D02*
X145029449Y-80691200D01*
X145029449Y-80691200D02*
X144953258Y-80653104D01*
X144953258Y-80653104D02*
X144800877Y-80653104D01*
X144800877Y-80653104D02*
X144724687Y-80691200D01*
X144724687Y-80691200D02*
X144686592Y-80729295D01*
X144686592Y-80729295D02*
X144648496Y-80805485D01*
X144648496Y-80805485D02*
X144648496Y-81453104D01*
X143810401Y-80729295D02*
X143848497Y-80691200D01*
X143848497Y-80691200D02*
X143962782Y-80653104D01*
X143962782Y-80653104D02*
X144038973Y-80653104D01*
X144038973Y-80653104D02*
X144153259Y-80691200D01*
X144153259Y-80691200D02*
X144229449Y-80767390D01*
X144229449Y-80767390D02*
X144267544Y-80843580D01*
X144267544Y-80843580D02*
X144305640Y-80995961D01*
X144305640Y-80995961D02*
X144305640Y-81110247D01*
X144305640Y-81110247D02*
X144267544Y-81262628D01*
X144267544Y-81262628D02*
X144229449Y-81338819D01*
X144229449Y-81338819D02*
X144153259Y-81415009D01*
X144153259Y-81415009D02*
X144038973Y-81453104D01*
X144038973Y-81453104D02*
X143962782Y-81453104D01*
X143962782Y-81453104D02*
X143848497Y-81415009D01*
X143848497Y-81415009D02*
X143810401Y-81376914D01*
G36*
X142770719Y-85441993D02*
G01*
X141997702Y-85441993D01*
X141997702Y-84579295D01*
X142086591Y-84579295D01*
X142086591Y-84845961D01*
X142090397Y-84865095D01*
X142117457Y-84892155D01*
X142136591Y-84895961D01*
X142288972Y-84895961D01*
X142308106Y-84892155D01*
X142335166Y-84865095D01*
X142335166Y-84826827D01*
X142308106Y-84799767D01*
X142288972Y-84795961D01*
X142186591Y-84795961D01*
X142186591Y-84600006D01*
X142201696Y-84584901D01*
X142297085Y-84553104D01*
X142357049Y-84553104D01*
X142452440Y-84584901D01*
X142514546Y-84647007D01*
X142546558Y-84711031D01*
X142581830Y-84852116D01*
X142581830Y-84954091D01*
X142546557Y-85095177D01*
X142514546Y-85159201D01*
X142452440Y-85221307D01*
X142357050Y-85253104D01*
X142262680Y-85253104D01*
X142197048Y-85220288D01*
X142178232Y-85215135D01*
X142141927Y-85227236D01*
X142124813Y-85261464D01*
X142136914Y-85297769D01*
X142152326Y-85309730D01*
X142228516Y-85347825D01*
X142230931Y-85348486D01*
X142231743Y-85349298D01*
X142239604Y-85350861D01*
X142247332Y-85352978D01*
X142248420Y-85352615D01*
X142250877Y-85353104D01*
X142365163Y-85353104D01*
X142373025Y-85351540D01*
X142380974Y-85350538D01*
X142495260Y-85312443D01*
X142497435Y-85311203D01*
X142498583Y-85311203D01*
X142505243Y-85306752D01*
X142512209Y-85302782D01*
X142512722Y-85301754D01*
X142514804Y-85300364D01*
X142590994Y-85224174D01*
X142595448Y-85217507D01*
X142600360Y-85211179D01*
X142638456Y-85134988D01*
X142639902Y-85129705D01*
X142642241Y-85124755D01*
X142680337Y-84972374D01*
X142680634Y-84966256D01*
X142681830Y-84960247D01*
X142681830Y-84845961D01*
X142680634Y-84839951D01*
X142680337Y-84833834D01*
X142642241Y-84681453D01*
X142639901Y-84676500D01*
X142638455Y-84671219D01*
X142600360Y-84595029D01*
X142595444Y-84588694D01*
X142590994Y-84582035D01*
X142514804Y-84505845D01*
X142512722Y-84504454D01*
X142512209Y-84503427D01*
X142505243Y-84499456D01*
X142498583Y-84495006D01*
X142497435Y-84495006D01*
X142495260Y-84493766D01*
X142380975Y-84455670D01*
X142373024Y-84454667D01*
X142365163Y-84453104D01*
X142288972Y-84453104D01*
X142281110Y-84454667D01*
X142273160Y-84455670D01*
X142158875Y-84493766D01*
X142156699Y-84495006D01*
X142155553Y-84495006D01*
X142148890Y-84499457D01*
X142141927Y-84503427D01*
X142141414Y-84504452D01*
X142139332Y-84505844D01*
X142101236Y-84543939D01*
X142090397Y-84560160D01*
X142090397Y-84560161D01*
X142086591Y-84579295D01*
X141997702Y-84579295D01*
X141997702Y-84364215D01*
X142770719Y-84364215D01*
X142770719Y-85441993D01*
G37*
G36*
X139572300Y-89385784D02*
G01*
X138917376Y-89385784D01*
X138917376Y-88446895D01*
X139006265Y-88446895D01*
X139006265Y-89246895D01*
X139010071Y-89266029D01*
X139037131Y-89293089D01*
X139056265Y-89296895D01*
X139437217Y-89296895D01*
X139456351Y-89293089D01*
X139483411Y-89266029D01*
X139483411Y-89227761D01*
X139456351Y-89200701D01*
X139437217Y-89196895D01*
X139106265Y-89196895D01*
X139106265Y-88446895D01*
X139102459Y-88427761D01*
X139075399Y-88400701D01*
X139037131Y-88400701D01*
X139010071Y-88427761D01*
X139006265Y-88446895D01*
X138917376Y-88446895D01*
X138917376Y-88311812D01*
X139572300Y-88311812D01*
X139572300Y-89385784D01*
G37*
G36*
X157722300Y-84935784D02*
G01*
X157067376Y-84935784D01*
X157067376Y-83996895D01*
X157156265Y-83996895D01*
X157156265Y-84796895D01*
X157160071Y-84816029D01*
X157187131Y-84843089D01*
X157206265Y-84846895D01*
X157587217Y-84846895D01*
X157606351Y-84843089D01*
X157633411Y-84816029D01*
X157633411Y-84777761D01*
X157606351Y-84750701D01*
X157587217Y-84746895D01*
X157256265Y-84746895D01*
X157256265Y-83996895D01*
X157252459Y-83977761D01*
X157225399Y-83950701D01*
X157187131Y-83950701D01*
X157160071Y-83977761D01*
X157156265Y-83996895D01*
X157067376Y-83996895D01*
X157067376Y-83861812D01*
X157722300Y-83861812D01*
X157722300Y-84935784D01*
G37*
X120456265Y-85233030D02*
X120456265Y-84433030D01*
X120456265Y-84433030D02*
X120761027Y-84433030D01*
X120761027Y-84433030D02*
X120837217Y-84471125D01*
X120837217Y-84471125D02*
X120875312Y-84509220D01*
X120875312Y-84509220D02*
X120913408Y-84585411D01*
X120913408Y-84585411D02*
X120913408Y-84699696D01*
X120913408Y-84699696D02*
X120875312Y-84775887D01*
X120875312Y-84775887D02*
X120837217Y-84813982D01*
X120837217Y-84813982D02*
X120761027Y-84852077D01*
X120761027Y-84852077D02*
X120456265Y-84852077D01*
X120913408Y-86520985D02*
X120646741Y-86140032D01*
X120456265Y-86520985D02*
X120456265Y-85720985D01*
X120456265Y-85720985D02*
X120761027Y-85720985D01*
X120761027Y-85720985D02*
X120837217Y-85759080D01*
X120837217Y-85759080D02*
X120875312Y-85797175D01*
X120875312Y-85797175D02*
X120913408Y-85873366D01*
X120913408Y-85873366D02*
X120913408Y-85987651D01*
X120913408Y-85987651D02*
X120875312Y-86063842D01*
X120875312Y-86063842D02*
X120837217Y-86101937D01*
X120837217Y-86101937D02*
X120761027Y-86140032D01*
X120761027Y-86140032D02*
X120456265Y-86140032D01*
X120837217Y-89096895D02*
X120456265Y-89096895D01*
X120456265Y-89096895D02*
X120456265Y-88296895D01*
X142693734Y-86503104D02*
X142693734Y-87303104D01*
X142693734Y-87303104D02*
X142388972Y-87303104D01*
X142388972Y-87303104D02*
X142312782Y-87265009D01*
X142312782Y-87265009D02*
X142274687Y-87226914D01*
X142274687Y-87226914D02*
X142236591Y-87150723D01*
X142236591Y-87150723D02*
X142236591Y-87036438D01*
X142236591Y-87036438D02*
X142274687Y-86960247D01*
X142274687Y-86960247D02*
X142312782Y-86922152D01*
X142312782Y-86922152D02*
X142388972Y-86884057D01*
X142388972Y-86884057D02*
X142693734Y-86884057D01*
G36*
X157557599Y-89176082D02*
G01*
X157584219Y-89202703D01*
X157613408Y-89261079D01*
X157613408Y-89351757D01*
X157584219Y-89410133D01*
X157557599Y-89436754D01*
X157499224Y-89465942D01*
X157256265Y-89465942D01*
X157256265Y-89146895D01*
X157499224Y-89146895D01*
X157557599Y-89176082D01*
G37*
G36*
X157802297Y-90031978D02*
G01*
X157067376Y-90031978D01*
X157067376Y-89096895D01*
X157156265Y-89096895D01*
X157156265Y-89896895D01*
X157160071Y-89916029D01*
X157187131Y-89943089D01*
X157225399Y-89943089D01*
X157252459Y-89916029D01*
X157256265Y-89896895D01*
X157256265Y-89565942D01*
X157511027Y-89565942D01*
X157513483Y-89565453D01*
X157514572Y-89565816D01*
X157522299Y-89563699D01*
X157530161Y-89562136D01*
X157530972Y-89561324D01*
X157533388Y-89560663D01*
X157609578Y-89522568D01*
X157615912Y-89517652D01*
X157622572Y-89513202D01*
X157660667Y-89475108D01*
X157665121Y-89468441D01*
X157670033Y-89462113D01*
X157708129Y-89385922D01*
X157708790Y-89383506D01*
X157709602Y-89382695D01*
X157711165Y-89374833D01*
X157713282Y-89367106D01*
X157712919Y-89366017D01*
X157713408Y-89363561D01*
X157713408Y-89249276D01*
X157712919Y-89246819D01*
X157713282Y-89245731D01*
X157711165Y-89238003D01*
X157709602Y-89230142D01*
X157708790Y-89229330D01*
X157708129Y-89226915D01*
X157670033Y-89150724D01*
X157665121Y-89144395D01*
X157660667Y-89137729D01*
X157622572Y-89099635D01*
X157615912Y-89095184D01*
X157609578Y-89090269D01*
X157533388Y-89052174D01*
X157530972Y-89051512D01*
X157530161Y-89050701D01*
X157522299Y-89049137D01*
X157514572Y-89047021D01*
X157513483Y-89047383D01*
X157511027Y-89046895D01*
X157206265Y-89046895D01*
X157187131Y-89050701D01*
X157160071Y-89077761D01*
X157156265Y-89096895D01*
X157067376Y-89096895D01*
X157067376Y-88958006D01*
X157802297Y-88958006D01*
X157802297Y-90031978D01*
G37*
X142280074Y-82446895D02*
X142813408Y-83246895D01*
X142813408Y-82446895D02*
X142280074Y-83246895D01*
X157106265Y-87346895D02*
X157106265Y-86546895D01*
X157106265Y-86546895D02*
X157411027Y-86546895D01*
X157411027Y-86546895D02*
X157487217Y-86584990D01*
X157487217Y-86584990D02*
X157525312Y-86623085D01*
X157525312Y-86623085D02*
X157563408Y-86699276D01*
X157563408Y-86699276D02*
X157563408Y-86813561D01*
X157563408Y-86813561D02*
X157525312Y-86889752D01*
X157525312Y-86889752D02*
X157487217Y-86927847D01*
X157487217Y-86927847D02*
X157411027Y-86965942D01*
X157411027Y-86965942D02*
X157106265Y-86965942D01*
X142312782Y-90503104D02*
X142693734Y-90503104D01*
X142693734Y-90503104D02*
X142693734Y-91303104D01*
G36*
X139307599Y-84676082D02*
G01*
X139334219Y-84702703D01*
X139363408Y-84761079D01*
X139363408Y-84851757D01*
X139334219Y-84910133D01*
X139307599Y-84936754D01*
X139249224Y-84965942D01*
X139006265Y-84965942D01*
X139006265Y-84646895D01*
X139249224Y-84646895D01*
X139307599Y-84676082D01*
G37*
G36*
X139552297Y-85531978D02*
G01*
X138817376Y-85531978D01*
X138817376Y-84596895D01*
X138906265Y-84596895D01*
X138906265Y-85396895D01*
X138910071Y-85416029D01*
X138937131Y-85443089D01*
X138975399Y-85443089D01*
X139002459Y-85416029D01*
X139006265Y-85396895D01*
X139006265Y-85065942D01*
X139261027Y-85065942D01*
X139263483Y-85065453D01*
X139264572Y-85065816D01*
X139272299Y-85063699D01*
X139280161Y-85062136D01*
X139280972Y-85061324D01*
X139283388Y-85060663D01*
X139359578Y-85022568D01*
X139365912Y-85017652D01*
X139372572Y-85013202D01*
X139410667Y-84975108D01*
X139415121Y-84968441D01*
X139420033Y-84962113D01*
X139458129Y-84885922D01*
X139458790Y-84883506D01*
X139459602Y-84882695D01*
X139461165Y-84874833D01*
X139463282Y-84867106D01*
X139462919Y-84866017D01*
X139463408Y-84863561D01*
X139463408Y-84749276D01*
X139462919Y-84746819D01*
X139463282Y-84745731D01*
X139461165Y-84738003D01*
X139459602Y-84730142D01*
X139458790Y-84729330D01*
X139458129Y-84726915D01*
X139420033Y-84650724D01*
X139415121Y-84644395D01*
X139410667Y-84637729D01*
X139372572Y-84599635D01*
X139365912Y-84595184D01*
X139359578Y-84590269D01*
X139283388Y-84552174D01*
X139280972Y-84551512D01*
X139280161Y-84550701D01*
X139272299Y-84549137D01*
X139264572Y-84547021D01*
X139263483Y-84547383D01*
X139261027Y-84546895D01*
X138956265Y-84546895D01*
X138937131Y-84550701D01*
X138910071Y-84577761D01*
X138906265Y-84596895D01*
X138817376Y-84596895D01*
X138817376Y-84458006D01*
X139552297Y-84458006D01*
X139552297Y-85531978D01*
G37*
X157487217Y-82246895D02*
X157106265Y-82246895D01*
X157106265Y-82246895D02*
X157106265Y-81446895D01*
G36*
X147370719Y-87441993D02*
G01*
X146597702Y-87441993D01*
X146597702Y-86579295D01*
X146686591Y-86579295D01*
X146686591Y-86845961D01*
X146690397Y-86865095D01*
X146717457Y-86892155D01*
X146736591Y-86895961D01*
X146888972Y-86895961D01*
X146908106Y-86892155D01*
X146935166Y-86865095D01*
X146935166Y-86826827D01*
X146908106Y-86799767D01*
X146888972Y-86795961D01*
X146786591Y-86795961D01*
X146786591Y-86600006D01*
X146801696Y-86584901D01*
X146897085Y-86553104D01*
X146957049Y-86553104D01*
X147052440Y-86584901D01*
X147114546Y-86647007D01*
X147146558Y-86711031D01*
X147181830Y-86852116D01*
X147181830Y-86954091D01*
X147146557Y-87095177D01*
X147114546Y-87159201D01*
X147052440Y-87221307D01*
X146957050Y-87253104D01*
X146862680Y-87253104D01*
X146797048Y-87220288D01*
X146778232Y-87215135D01*
X146741927Y-87227236D01*
X146724813Y-87261464D01*
X146736914Y-87297769D01*
X146752326Y-87309730D01*
X146828516Y-87347825D01*
X146830931Y-87348486D01*
X146831743Y-87349298D01*
X146839604Y-87350861D01*
X146847332Y-87352978D01*
X146848420Y-87352615D01*
X146850877Y-87353104D01*
X146965163Y-87353104D01*
X146973025Y-87351540D01*
X146980974Y-87350538D01*
X147095260Y-87312443D01*
X147097435Y-87311203D01*
X147098583Y-87311203D01*
X147105243Y-87306752D01*
X147112209Y-87302782D01*
X147112722Y-87301754D01*
X147114804Y-87300364D01*
X147190994Y-87224174D01*
X147195448Y-87217507D01*
X147200360Y-87211179D01*
X147238456Y-87134988D01*
X147239902Y-87129705D01*
X147242241Y-87124755D01*
X147280337Y-86972374D01*
X147280634Y-86966256D01*
X147281830Y-86960247D01*
X147281830Y-86845961D01*
X147280634Y-86839951D01*
X147280337Y-86833834D01*
X147242241Y-86681453D01*
X147239901Y-86676500D01*
X147238455Y-86671219D01*
X147200360Y-86595029D01*
X147195444Y-86588694D01*
X147190994Y-86582035D01*
X147114804Y-86505845D01*
X147112722Y-86504454D01*
X147112209Y-86503427D01*
X147105243Y-86499456D01*
X147098583Y-86495006D01*
X147097435Y-86495006D01*
X147095260Y-86493766D01*
X146980975Y-86455670D01*
X146973024Y-86454667D01*
X146965163Y-86453104D01*
X146888972Y-86453104D01*
X146881110Y-86454667D01*
X146873160Y-86455670D01*
X146758875Y-86493766D01*
X146756699Y-86495006D01*
X146755553Y-86495006D01*
X146748890Y-86499457D01*
X146741927Y-86503427D01*
X146741414Y-86504452D01*
X146739332Y-86505844D01*
X146701236Y-86543939D01*
X146690397Y-86560160D01*
X146690397Y-86560161D01*
X146686591Y-86579295D01*
X146597702Y-86579295D01*
X146597702Y-86364215D01*
X147370719Y-86364215D01*
X147370719Y-87441993D01*
G37*
X139006265Y-84107120D02*
X139006265Y-83307120D01*
X139006265Y-83307120D02*
X139311027Y-83307120D01*
X139311027Y-83307120D02*
X139387217Y-83345215D01*
X139387217Y-83345215D02*
X139425312Y-83383310D01*
X139425312Y-83383310D02*
X139463408Y-83459501D01*
X139463408Y-83459501D02*
X139463408Y-83573786D01*
X139463408Y-83573786D02*
X139425312Y-83649977D01*
X139425312Y-83649977D02*
X139387217Y-83688072D01*
X139387217Y-83688072D02*
X139311027Y-83726167D01*
X139311027Y-83726167D02*
X139006265Y-83726167D01*
X139463408Y-86683030D02*
X139196741Y-86302077D01*
X139006265Y-86683030D02*
X139006265Y-85883030D01*
X139006265Y-85883030D02*
X139311027Y-85883030D01*
X139311027Y-85883030D02*
X139387217Y-85921125D01*
X139387217Y-85921125D02*
X139425312Y-85959220D01*
X139425312Y-85959220D02*
X139463408Y-86035411D01*
X139463408Y-86035411D02*
X139463408Y-86149696D01*
X139463408Y-86149696D02*
X139425312Y-86225887D01*
X139425312Y-86225887D02*
X139387217Y-86263982D01*
X139387217Y-86263982D02*
X139311027Y-86302077D01*
X139311027Y-86302077D02*
X139006265Y-86302077D01*
X139387217Y-90546895D02*
X139006265Y-90546895D01*
X139006265Y-90546895D02*
X139006265Y-89746895D01*
G36*
X139357599Y-87326082D02*
G01*
X139384219Y-87352703D01*
X139413408Y-87411079D01*
X139413408Y-87501757D01*
X139384219Y-87560133D01*
X139357599Y-87586754D01*
X139299224Y-87615942D01*
X139056265Y-87615942D01*
X139056265Y-87296895D01*
X139299224Y-87296895D01*
X139357599Y-87326082D01*
G37*
G36*
X139602297Y-88184600D02*
G01*
X138867376Y-88184600D01*
X138867376Y-87246895D01*
X138956265Y-87246895D01*
X138956265Y-88046895D01*
X138960071Y-88066029D01*
X138987131Y-88093089D01*
X139025399Y-88093089D01*
X139052459Y-88066029D01*
X139056265Y-88046895D01*
X139056265Y-87715942D01*
X139170708Y-87715942D01*
X139422446Y-88075568D01*
X139436537Y-88089060D01*
X139474223Y-88095711D01*
X139505574Y-88073766D01*
X139512224Y-88036079D01*
X139504369Y-88018222D01*
X139292774Y-87715942D01*
X139311027Y-87715942D01*
X139313483Y-87715453D01*
X139314572Y-87715816D01*
X139322299Y-87713699D01*
X139330161Y-87712136D01*
X139330972Y-87711324D01*
X139333388Y-87710663D01*
X139409578Y-87672568D01*
X139415912Y-87667652D01*
X139422572Y-87663202D01*
X139460667Y-87625108D01*
X139465121Y-87618441D01*
X139470033Y-87612113D01*
X139508129Y-87535922D01*
X139508790Y-87533506D01*
X139509602Y-87532695D01*
X139511165Y-87524833D01*
X139513282Y-87517106D01*
X139512919Y-87516017D01*
X139513408Y-87513561D01*
X139513408Y-87399276D01*
X139512919Y-87396819D01*
X139513282Y-87395731D01*
X139511165Y-87388003D01*
X139509602Y-87380142D01*
X139508790Y-87379330D01*
X139508129Y-87376915D01*
X139470033Y-87300724D01*
X139465121Y-87294395D01*
X139460667Y-87287729D01*
X139422572Y-87249635D01*
X139415912Y-87245184D01*
X139409578Y-87240269D01*
X139333388Y-87202174D01*
X139330972Y-87201512D01*
X139330161Y-87200701D01*
X139322299Y-87199137D01*
X139314572Y-87197021D01*
X139313483Y-87197383D01*
X139311027Y-87196895D01*
X139006265Y-87196895D01*
X138987131Y-87200701D01*
X138960071Y-87227761D01*
X138956265Y-87246895D01*
X138867376Y-87246895D01*
X138867376Y-87108006D01*
X139602297Y-87108006D01*
X139602297Y-88184600D01*
G37*
G36*
X121102297Y-87985784D02*
G01*
X120329280Y-87985784D01*
X120329280Y-87389752D01*
X120418169Y-87389752D01*
X120418169Y-87504038D01*
X120419364Y-87510047D01*
X120419662Y-87516165D01*
X120457758Y-87668546D01*
X120460097Y-87673498D01*
X120461544Y-87678780D01*
X120499639Y-87754970D01*
X120504550Y-87761298D01*
X120509004Y-87767964D01*
X120585195Y-87844155D01*
X120587276Y-87845545D01*
X120587790Y-87846573D01*
X120594755Y-87850543D01*
X120601416Y-87854994D01*
X120602564Y-87854994D01*
X120604739Y-87856234D01*
X120719025Y-87894329D01*
X120726973Y-87895331D01*
X120734836Y-87896895D01*
X120811027Y-87896895D01*
X120818889Y-87895331D01*
X120826838Y-87894329D01*
X120941123Y-87856234D01*
X120943298Y-87854994D01*
X120944446Y-87854994D01*
X120951106Y-87850543D01*
X120958072Y-87846573D01*
X120958585Y-87845545D01*
X120960667Y-87844155D01*
X120998763Y-87806059D01*
X121009602Y-87789838D01*
X121013408Y-87770704D01*
X121013408Y-87504038D01*
X121009602Y-87484904D01*
X120982542Y-87457844D01*
X120963408Y-87454038D01*
X120811027Y-87454038D01*
X120791893Y-87457844D01*
X120764833Y-87484904D01*
X120764833Y-87523172D01*
X120791893Y-87550232D01*
X120811027Y-87554038D01*
X120913408Y-87554038D01*
X120913408Y-87749994D01*
X120898303Y-87765098D01*
X120802914Y-87796895D01*
X120742949Y-87796895D01*
X120647560Y-87765099D01*
X120585452Y-87702990D01*
X120553440Y-87638967D01*
X120518169Y-87497882D01*
X120518169Y-87395907D01*
X120553441Y-87254820D01*
X120585453Y-87190796D01*
X120647558Y-87128691D01*
X120742949Y-87096895D01*
X120837319Y-87096895D01*
X120902951Y-87129711D01*
X120921767Y-87134864D01*
X120958072Y-87122763D01*
X120975186Y-87088535D01*
X120963085Y-87052230D01*
X120947673Y-87040269D01*
X120871483Y-87002174D01*
X120869067Y-87001512D01*
X120868256Y-87000701D01*
X120860394Y-86999137D01*
X120852667Y-86997021D01*
X120851578Y-86997383D01*
X120849122Y-86996895D01*
X120734836Y-86996895D01*
X120726973Y-86998458D01*
X120719025Y-86999461D01*
X120604739Y-87037556D01*
X120602564Y-87038796D01*
X120601416Y-87038796D01*
X120594755Y-87043246D01*
X120587790Y-87047217D01*
X120587276Y-87048244D01*
X120585195Y-87049635D01*
X120509005Y-87125825D01*
X120504552Y-87132487D01*
X120499639Y-87138819D01*
X120461544Y-87215011D01*
X120460098Y-87220289D01*
X120457758Y-87225244D01*
X120419662Y-87377625D01*
X120419364Y-87383742D01*
X120418169Y-87389752D01*
X120329280Y-87389752D01*
X120329280Y-86908006D01*
X121102297Y-86908006D01*
X121102297Y-87985784D01*
G37*
X157080074Y-91646895D02*
X157613408Y-92446895D01*
X157613408Y-91646895D02*
X157080074Y-92446895D01*
G36*
X152057599Y-86576082D02*
G01*
X152084219Y-86602703D01*
X152113408Y-86661079D01*
X152113408Y-86751757D01*
X152084219Y-86810133D01*
X152057599Y-86836754D01*
X151999224Y-86865942D01*
X151756265Y-86865942D01*
X151756265Y-86546895D01*
X151999224Y-86546895D01*
X152057599Y-86576082D01*
G37*
G36*
X152302297Y-87434600D02*
G01*
X151567376Y-87434600D01*
X151567376Y-86496895D01*
X151656265Y-86496895D01*
X151656265Y-87296895D01*
X151660071Y-87316029D01*
X151687131Y-87343089D01*
X151725399Y-87343089D01*
X151752459Y-87316029D01*
X151756265Y-87296895D01*
X151756265Y-86965942D01*
X151870708Y-86965942D01*
X152122446Y-87325568D01*
X152136537Y-87339060D01*
X152174223Y-87345711D01*
X152205574Y-87323766D01*
X152212224Y-87286079D01*
X152204369Y-87268222D01*
X151992774Y-86965942D01*
X152011027Y-86965942D01*
X152013483Y-86965453D01*
X152014572Y-86965816D01*
X152022299Y-86963699D01*
X152030161Y-86962136D01*
X152030972Y-86961324D01*
X152033388Y-86960663D01*
X152109578Y-86922568D01*
X152115912Y-86917652D01*
X152122572Y-86913202D01*
X152160667Y-86875108D01*
X152165121Y-86868441D01*
X152170033Y-86862113D01*
X152208129Y-86785922D01*
X152208790Y-86783506D01*
X152209602Y-86782695D01*
X152211165Y-86774833D01*
X152213282Y-86767106D01*
X152212919Y-86766017D01*
X152213408Y-86763561D01*
X152213408Y-86649276D01*
X152212919Y-86646819D01*
X152213282Y-86645731D01*
X152211165Y-86638003D01*
X152209602Y-86630142D01*
X152208790Y-86629330D01*
X152208129Y-86626915D01*
X152170033Y-86550724D01*
X152165121Y-86544395D01*
X152160667Y-86537729D01*
X152122572Y-86499635D01*
X152115912Y-86495184D01*
X152109578Y-86490269D01*
X152033388Y-86452174D01*
X152030972Y-86451512D01*
X152030161Y-86450701D01*
X152022299Y-86449137D01*
X152014572Y-86447021D01*
X152013483Y-86447383D01*
X152011027Y-86446895D01*
X151706265Y-86446895D01*
X151687131Y-86450701D01*
X151660071Y-86477761D01*
X151656265Y-86496895D01*
X151567376Y-86496895D01*
X151567376Y-86358006D01*
X152302297Y-86358006D01*
X152302297Y-87434600D01*
G37*
X152263408Y-89796895D02*
X151996741Y-89415942D01*
X151806265Y-89796895D02*
X151806265Y-88996895D01*
X151806265Y-88996895D02*
X152111027Y-88996895D01*
X152111027Y-88996895D02*
X152187217Y-89034990D01*
X152187217Y-89034990D02*
X152225312Y-89073085D01*
X152225312Y-89073085D02*
X152263408Y-89149276D01*
X152263408Y-89149276D02*
X152263408Y-89263561D01*
X152263408Y-89263561D02*
X152225312Y-89339752D01*
X152225312Y-89339752D02*
X152187217Y-89377847D01*
X152187217Y-89377847D02*
X152111027Y-89415942D01*
X152111027Y-89415942D02*
X151806265Y-89415942D01*
D12*
X137761905Y-89962295D02*
X137838095Y-89962295D01*
X137838095Y-89962295D02*
X137914286Y-90000390D01*
X137914286Y-90000390D02*
X137952381Y-90038485D01*
X137952381Y-90038485D02*
X137990476Y-90114676D01*
X137990476Y-90114676D02*
X138028571Y-90267057D01*
X138028571Y-90267057D02*
X138028571Y-90457533D01*
X138028571Y-90457533D02*
X137990476Y-90609914D01*
X137990476Y-90609914D02*
X137952381Y-90686104D01*
X137952381Y-90686104D02*
X137914286Y-90724200D01*
X137914286Y-90724200D02*
X137838095Y-90762295D01*
X137838095Y-90762295D02*
X137761905Y-90762295D01*
X137761905Y-90762295D02*
X137685714Y-90724200D01*
X137685714Y-90724200D02*
X137647619Y-90686104D01*
X137647619Y-90686104D02*
X137609524Y-90609914D01*
X137609524Y-90609914D02*
X137571428Y-90457533D01*
X137571428Y-90457533D02*
X137571428Y-90267057D01*
X137571428Y-90267057D02*
X137609524Y-90114676D01*
X137609524Y-90114676D02*
X137647619Y-90038485D01*
X137647619Y-90038485D02*
X137685714Y-90000390D01*
X137685714Y-90000390D02*
X137761905Y-89962295D01*
X137761905Y-80962295D02*
X137838095Y-80962295D01*
X137838095Y-80962295D02*
X137914286Y-81000390D01*
X137914286Y-81000390D02*
X137952381Y-81038485D01*
X137952381Y-81038485D02*
X137990476Y-81114676D01*
X137990476Y-81114676D02*
X138028571Y-81267057D01*
X138028571Y-81267057D02*
X138028571Y-81457533D01*
X138028571Y-81457533D02*
X137990476Y-81609914D01*
X137990476Y-81609914D02*
X137952381Y-81686104D01*
X137952381Y-81686104D02*
X137914286Y-81724200D01*
X137914286Y-81724200D02*
X137838095Y-81762295D01*
X137838095Y-81762295D02*
X137761905Y-81762295D01*
X137761905Y-81762295D02*
X137685714Y-81724200D01*
X137685714Y-81724200D02*
X137647619Y-81686104D01*
X137647619Y-81686104D02*
X137609524Y-81609914D01*
X137609524Y-81609914D02*
X137571428Y-81457533D01*
X137571428Y-81457533D02*
X137571428Y-81267057D01*
X137571428Y-81267057D02*
X137609524Y-81114676D01*
X137609524Y-81114676D02*
X137647619Y-81038485D01*
X137647619Y-81038485D02*
X137685714Y-81000390D01*
X137685714Y-81000390D02*
X137761905Y-80962295D01*
X122074405Y-89962295D02*
X122150595Y-89962295D01*
X122150595Y-89962295D02*
X122226786Y-90000390D01*
X122226786Y-90000390D02*
X122264881Y-90038485D01*
X122264881Y-90038485D02*
X122302976Y-90114676D01*
X122302976Y-90114676D02*
X122341071Y-90267057D01*
X122341071Y-90267057D02*
X122341071Y-90457533D01*
X122341071Y-90457533D02*
X122302976Y-90609914D01*
X122302976Y-90609914D02*
X122264881Y-90686104D01*
X122264881Y-90686104D02*
X122226786Y-90724200D01*
X122226786Y-90724200D02*
X122150595Y-90762295D01*
X122150595Y-90762295D02*
X122074405Y-90762295D01*
X122074405Y-90762295D02*
X121998214Y-90724200D01*
X121998214Y-90724200D02*
X121960119Y-90686104D01*
X121960119Y-90686104D02*
X121922024Y-90609914D01*
X121922024Y-90609914D02*
X121883928Y-90457533D01*
X121883928Y-90457533D02*
X121883928Y-90267057D01*
X121883928Y-90267057D02*
X121922024Y-90114676D01*
X121922024Y-90114676D02*
X121960119Y-90038485D01*
X121960119Y-90038485D02*
X121998214Y-90000390D01*
X121998214Y-90000390D02*
X122074405Y-89962295D01*
X124304761Y-83362295D02*
X123847618Y-83362295D01*
X124076190Y-83362295D02*
X124076190Y-82562295D01*
X124076190Y-82562295D02*
X123999999Y-82676580D01*
X123999999Y-82676580D02*
X123923809Y-82752771D01*
X123923809Y-82752771D02*
X123847618Y-82790866D01*
X124647619Y-83362295D02*
X124647619Y-82562295D01*
X124723809Y-83057533D02*
X124952381Y-83362295D01*
X124952381Y-82828961D02*
X124647619Y-83133723D01*
X131702380Y-91257704D02*
X131702380Y-92057704D01*
X131702380Y-92057704D02*
X131397618Y-92057704D01*
X131397618Y-92057704D02*
X131321428Y-92019609D01*
X131321428Y-92019609D02*
X131283333Y-91981514D01*
X131283333Y-91981514D02*
X131245237Y-91905323D01*
X131245237Y-91905323D02*
X131245237Y-91791038D01*
X131245237Y-91791038D02*
X131283333Y-91714847D01*
X131283333Y-91714847D02*
X131321428Y-91676752D01*
X131321428Y-91676752D02*
X131397618Y-91638657D01*
X131397618Y-91638657D02*
X131702380Y-91638657D01*
X130445237Y-91333895D02*
X130483333Y-91295800D01*
X130483333Y-91295800D02*
X130597618Y-91257704D01*
X130597618Y-91257704D02*
X130673809Y-91257704D01*
X130673809Y-91257704D02*
X130788095Y-91295800D01*
X130788095Y-91295800D02*
X130864285Y-91371990D01*
X130864285Y-91371990D02*
X130902380Y-91448180D01*
X130902380Y-91448180D02*
X130940476Y-91600561D01*
X130940476Y-91600561D02*
X130940476Y-91714847D01*
X130940476Y-91714847D02*
X130902380Y-91867228D01*
X130902380Y-91867228D02*
X130864285Y-91943419D01*
X130864285Y-91943419D02*
X130788095Y-92019609D01*
X130788095Y-92019609D02*
X130673809Y-92057704D01*
X130673809Y-92057704D02*
X130597618Y-92057704D01*
X130597618Y-92057704D02*
X130483333Y-92019609D01*
X130483333Y-92019609D02*
X130445237Y-91981514D01*
X129988095Y-91714847D02*
X130064285Y-91752942D01*
X130064285Y-91752942D02*
X130102380Y-91791038D01*
X130102380Y-91791038D02*
X130140476Y-91867228D01*
X130140476Y-91867228D02*
X130140476Y-91905323D01*
X130140476Y-91905323D02*
X130102380Y-91981514D01*
X130102380Y-91981514D02*
X130064285Y-92019609D01*
X130064285Y-92019609D02*
X129988095Y-92057704D01*
X129988095Y-92057704D02*
X129835714Y-92057704D01*
X129835714Y-92057704D02*
X129759523Y-92019609D01*
X129759523Y-92019609D02*
X129721428Y-91981514D01*
X129721428Y-91981514D02*
X129683333Y-91905323D01*
X129683333Y-91905323D02*
X129683333Y-91867228D01*
X129683333Y-91867228D02*
X129721428Y-91791038D01*
X129721428Y-91791038D02*
X129759523Y-91752942D01*
X129759523Y-91752942D02*
X129835714Y-91714847D01*
X129835714Y-91714847D02*
X129988095Y-91714847D01*
X129988095Y-91714847D02*
X130064285Y-91676752D01*
X130064285Y-91676752D02*
X130102380Y-91638657D01*
X130102380Y-91638657D02*
X130140476Y-91562466D01*
X130140476Y-91562466D02*
X130140476Y-91410085D01*
X130140476Y-91410085D02*
X130102380Y-91333895D01*
X130102380Y-91333895D02*
X130064285Y-91295800D01*
X130064285Y-91295800D02*
X129988095Y-91257704D01*
X129988095Y-91257704D02*
X129835714Y-91257704D01*
X129835714Y-91257704D02*
X129759523Y-91295800D01*
X129759523Y-91295800D02*
X129721428Y-91333895D01*
X129721428Y-91333895D02*
X129683333Y-91410085D01*
X129683333Y-91410085D02*
X129683333Y-91562466D01*
X129683333Y-91562466D02*
X129721428Y-91638657D01*
X129721428Y-91638657D02*
X129759523Y-91676752D01*
X129759523Y-91676752D02*
X129835714Y-91714847D01*
X128921428Y-91257704D02*
X129378571Y-91257704D01*
X129149999Y-91257704D02*
X129149999Y-92057704D01*
X129149999Y-92057704D02*
X129226190Y-91943419D01*
X129226190Y-91943419D02*
X129302380Y-91867228D01*
X129302380Y-91867228D02*
X129378571Y-91829133D01*
X128654761Y-92057704D02*
X128121427Y-92057704D01*
X128121427Y-92057704D02*
X128464285Y-91257704D01*
X137954761Y-92762295D02*
X137497618Y-92762295D01*
X137726190Y-92762295D02*
X137726190Y-91962295D01*
X137726190Y-91962295D02*
X137649999Y-92076580D01*
X137649999Y-92076580D02*
X137573809Y-92152771D01*
X137573809Y-92152771D02*
X137497618Y-92190866D01*
X138297619Y-92762295D02*
X138297619Y-91962295D01*
X138373809Y-92457533D02*
X138602381Y-92762295D01*
X138602381Y-92228961D02*
X138297619Y-92533723D01*
X137761905Y-87597066D02*
X137838095Y-87597066D01*
X137838095Y-87597066D02*
X137914286Y-87635161D01*
X137914286Y-87635161D02*
X137952381Y-87673256D01*
X137952381Y-87673256D02*
X137990476Y-87749447D01*
X137990476Y-87749447D02*
X138028571Y-87901828D01*
X138028571Y-87901828D02*
X138028571Y-88092304D01*
X138028571Y-88092304D02*
X137990476Y-88244685D01*
X137990476Y-88244685D02*
X137952381Y-88320875D01*
X137952381Y-88320875D02*
X137914286Y-88358971D01*
X137914286Y-88358971D02*
X137838095Y-88397066D01*
X137838095Y-88397066D02*
X137761905Y-88397066D01*
X137761905Y-88397066D02*
X137685714Y-88358971D01*
X137685714Y-88358971D02*
X137647619Y-88320875D01*
X137647619Y-88320875D02*
X137609524Y-88244685D01*
X137609524Y-88244685D02*
X137571428Y-88092304D01*
X137571428Y-88092304D02*
X137571428Y-87901828D01*
X137571428Y-87901828D02*
X137609524Y-87749447D01*
X137609524Y-87749447D02*
X137647619Y-87673256D01*
X137647619Y-87673256D02*
X137685714Y-87635161D01*
X137685714Y-87635161D02*
X137761905Y-87597066D01*
X122011905Y-91962295D02*
X122088095Y-91962295D01*
X122088095Y-91962295D02*
X122164286Y-92000390D01*
X122164286Y-92000390D02*
X122202381Y-92038485D01*
X122202381Y-92038485D02*
X122240476Y-92114676D01*
X122240476Y-92114676D02*
X122278571Y-92267057D01*
X122278571Y-92267057D02*
X122278571Y-92457533D01*
X122278571Y-92457533D02*
X122240476Y-92609914D01*
X122240476Y-92609914D02*
X122202381Y-92686104D01*
X122202381Y-92686104D02*
X122164286Y-92724200D01*
X122164286Y-92724200D02*
X122088095Y-92762295D01*
X122088095Y-92762295D02*
X122011905Y-92762295D01*
X122011905Y-92762295D02*
X121935714Y-92724200D01*
X121935714Y-92724200D02*
X121897619Y-92686104D01*
X121897619Y-92686104D02*
X121859524Y-92609914D01*
X121859524Y-92609914D02*
X121821428Y-92457533D01*
X121821428Y-92457533D02*
X121821428Y-92267057D01*
X121821428Y-92267057D02*
X121859524Y-92114676D01*
X121859524Y-92114676D02*
X121897619Y-92038485D01*
X121897619Y-92038485D02*
X121935714Y-92000390D01*
X121935714Y-92000390D02*
X122011905Y-91962295D01*
X128197619Y-82592295D02*
X128197619Y-81792295D01*
X128197619Y-81792295D02*
X128502381Y-81792295D01*
X128502381Y-81792295D02*
X128578571Y-81830390D01*
X128578571Y-81830390D02*
X128616666Y-81868485D01*
X128616666Y-81868485D02*
X128654762Y-81944676D01*
X128654762Y-81944676D02*
X128654762Y-82058961D01*
X128654762Y-82058961D02*
X128616666Y-82135152D01*
X128616666Y-82135152D02*
X128578571Y-82173247D01*
X128578571Y-82173247D02*
X128502381Y-82211342D01*
X128502381Y-82211342D02*
X128197619Y-82211342D01*
X129454762Y-82516104D02*
X129416666Y-82554200D01*
X129416666Y-82554200D02*
X129302381Y-82592295D01*
X129302381Y-82592295D02*
X129226190Y-82592295D01*
X129226190Y-82592295D02*
X129111904Y-82554200D01*
X129111904Y-82554200D02*
X129035714Y-82478009D01*
X129035714Y-82478009D02*
X128997619Y-82401819D01*
X128997619Y-82401819D02*
X128959523Y-82249438D01*
X128959523Y-82249438D02*
X128959523Y-82135152D01*
X128959523Y-82135152D02*
X128997619Y-81982771D01*
X128997619Y-81982771D02*
X129035714Y-81906580D01*
X129035714Y-81906580D02*
X129111904Y-81830390D01*
X129111904Y-81830390D02*
X129226190Y-81792295D01*
X129226190Y-81792295D02*
X129302381Y-81792295D01*
X129302381Y-81792295D02*
X129416666Y-81830390D01*
X129416666Y-81830390D02*
X129454762Y-81868485D01*
X129911904Y-82135152D02*
X129835714Y-82097057D01*
X129835714Y-82097057D02*
X129797619Y-82058961D01*
X129797619Y-82058961D02*
X129759523Y-81982771D01*
X129759523Y-81982771D02*
X129759523Y-81944676D01*
X129759523Y-81944676D02*
X129797619Y-81868485D01*
X129797619Y-81868485D02*
X129835714Y-81830390D01*
X129835714Y-81830390D02*
X129911904Y-81792295D01*
X129911904Y-81792295D02*
X130064285Y-81792295D01*
X130064285Y-81792295D02*
X130140476Y-81830390D01*
X130140476Y-81830390D02*
X130178571Y-81868485D01*
X130178571Y-81868485D02*
X130216666Y-81944676D01*
X130216666Y-81944676D02*
X130216666Y-81982771D01*
X130216666Y-81982771D02*
X130178571Y-82058961D01*
X130178571Y-82058961D02*
X130140476Y-82097057D01*
X130140476Y-82097057D02*
X130064285Y-82135152D01*
X130064285Y-82135152D02*
X129911904Y-82135152D01*
X129911904Y-82135152D02*
X129835714Y-82173247D01*
X129835714Y-82173247D02*
X129797619Y-82211342D01*
X129797619Y-82211342D02*
X129759523Y-82287533D01*
X129759523Y-82287533D02*
X129759523Y-82439914D01*
X129759523Y-82439914D02*
X129797619Y-82516104D01*
X129797619Y-82516104D02*
X129835714Y-82554200D01*
X129835714Y-82554200D02*
X129911904Y-82592295D01*
X129911904Y-82592295D02*
X130064285Y-82592295D01*
X130064285Y-82592295D02*
X130140476Y-82554200D01*
X130140476Y-82554200D02*
X130178571Y-82516104D01*
X130178571Y-82516104D02*
X130216666Y-82439914D01*
X130216666Y-82439914D02*
X130216666Y-82287533D01*
X130216666Y-82287533D02*
X130178571Y-82211342D01*
X130178571Y-82211342D02*
X130140476Y-82173247D01*
X130140476Y-82173247D02*
X130064285Y-82135152D01*
X130978571Y-82592295D02*
X130521428Y-82592295D01*
X130750000Y-82592295D02*
X130750000Y-81792295D01*
X130750000Y-81792295D02*
X130673809Y-81906580D01*
X130673809Y-81906580D02*
X130597619Y-81982771D01*
X130597619Y-81982771D02*
X130521428Y-82020866D01*
X131245238Y-81792295D02*
X131778572Y-81792295D01*
X131778572Y-81792295D02*
X131435714Y-82592295D01*
X128197619Y-87312295D02*
X128197619Y-86512295D01*
X128197619Y-86512295D02*
X128502381Y-86512295D01*
X128502381Y-86512295D02*
X128578571Y-86550390D01*
X128578571Y-86550390D02*
X128616666Y-86588485D01*
X128616666Y-86588485D02*
X128654762Y-86664676D01*
X128654762Y-86664676D02*
X128654762Y-86778961D01*
X128654762Y-86778961D02*
X128616666Y-86855152D01*
X128616666Y-86855152D02*
X128578571Y-86893247D01*
X128578571Y-86893247D02*
X128502381Y-86931342D01*
X128502381Y-86931342D02*
X128197619Y-86931342D01*
X129454762Y-87236104D02*
X129416666Y-87274200D01*
X129416666Y-87274200D02*
X129302381Y-87312295D01*
X129302381Y-87312295D02*
X129226190Y-87312295D01*
X129226190Y-87312295D02*
X129111904Y-87274200D01*
X129111904Y-87274200D02*
X129035714Y-87198009D01*
X129035714Y-87198009D02*
X128997619Y-87121819D01*
X128997619Y-87121819D02*
X128959523Y-86969438D01*
X128959523Y-86969438D02*
X128959523Y-86855152D01*
X128959523Y-86855152D02*
X128997619Y-86702771D01*
X128997619Y-86702771D02*
X129035714Y-86626580D01*
X129035714Y-86626580D02*
X129111904Y-86550390D01*
X129111904Y-86550390D02*
X129226190Y-86512295D01*
X129226190Y-86512295D02*
X129302381Y-86512295D01*
X129302381Y-86512295D02*
X129416666Y-86550390D01*
X129416666Y-86550390D02*
X129454762Y-86588485D01*
X129911904Y-86855152D02*
X129835714Y-86817057D01*
X129835714Y-86817057D02*
X129797619Y-86778961D01*
X129797619Y-86778961D02*
X129759523Y-86702771D01*
X129759523Y-86702771D02*
X129759523Y-86664676D01*
X129759523Y-86664676D02*
X129797619Y-86588485D01*
X129797619Y-86588485D02*
X129835714Y-86550390D01*
X129835714Y-86550390D02*
X129911904Y-86512295D01*
X129911904Y-86512295D02*
X130064285Y-86512295D01*
X130064285Y-86512295D02*
X130140476Y-86550390D01*
X130140476Y-86550390D02*
X130178571Y-86588485D01*
X130178571Y-86588485D02*
X130216666Y-86664676D01*
X130216666Y-86664676D02*
X130216666Y-86702771D01*
X130216666Y-86702771D02*
X130178571Y-86778961D01*
X130178571Y-86778961D02*
X130140476Y-86817057D01*
X130140476Y-86817057D02*
X130064285Y-86855152D01*
X130064285Y-86855152D02*
X129911904Y-86855152D01*
X129911904Y-86855152D02*
X129835714Y-86893247D01*
X129835714Y-86893247D02*
X129797619Y-86931342D01*
X129797619Y-86931342D02*
X129759523Y-87007533D01*
X129759523Y-87007533D02*
X129759523Y-87159914D01*
X129759523Y-87159914D02*
X129797619Y-87236104D01*
X129797619Y-87236104D02*
X129835714Y-87274200D01*
X129835714Y-87274200D02*
X129911904Y-87312295D01*
X129911904Y-87312295D02*
X130064285Y-87312295D01*
X130064285Y-87312295D02*
X130140476Y-87274200D01*
X130140476Y-87274200D02*
X130178571Y-87236104D01*
X130178571Y-87236104D02*
X130216666Y-87159914D01*
X130216666Y-87159914D02*
X130216666Y-87007533D01*
X130216666Y-87007533D02*
X130178571Y-86931342D01*
X130178571Y-86931342D02*
X130140476Y-86893247D01*
X130140476Y-86893247D02*
X130064285Y-86855152D01*
X130978571Y-87312295D02*
X130521428Y-87312295D01*
X130750000Y-87312295D02*
X130750000Y-86512295D01*
X130750000Y-86512295D02*
X130673809Y-86626580D01*
X130673809Y-86626580D02*
X130597619Y-86702771D01*
X130597619Y-86702771D02*
X130521428Y-86740866D01*
X131245238Y-86512295D02*
X131778572Y-86512295D01*
X131778572Y-86512295D02*
X131435714Y-87312295D01*
X124304761Y-87762295D02*
X123847618Y-87762295D01*
X124076190Y-87762295D02*
X124076190Y-86962295D01*
X124076190Y-86962295D02*
X123999999Y-87076580D01*
X123999999Y-87076580D02*
X123923809Y-87152771D01*
X123923809Y-87152771D02*
X123847618Y-87190866D01*
X124647619Y-87762295D02*
X124647619Y-86962295D01*
X124723809Y-87457533D02*
X124952381Y-87762295D01*
X124952381Y-87228961D02*
X124647619Y-87533723D01*
X137761905Y-85462295D02*
X137838095Y-85462295D01*
X137838095Y-85462295D02*
X137914286Y-85500390D01*
X137914286Y-85500390D02*
X137952381Y-85538485D01*
X137952381Y-85538485D02*
X137990476Y-85614676D01*
X137990476Y-85614676D02*
X138028571Y-85767057D01*
X138028571Y-85767057D02*
X138028571Y-85957533D01*
X138028571Y-85957533D02*
X137990476Y-86109914D01*
X137990476Y-86109914D02*
X137952381Y-86186104D01*
X137952381Y-86186104D02*
X137914286Y-86224200D01*
X137914286Y-86224200D02*
X137838095Y-86262295D01*
X137838095Y-86262295D02*
X137761905Y-86262295D01*
X137761905Y-86262295D02*
X137685714Y-86224200D01*
X137685714Y-86224200D02*
X137647619Y-86186104D01*
X137647619Y-86186104D02*
X137609524Y-86109914D01*
X137609524Y-86109914D02*
X137571428Y-85957533D01*
X137571428Y-85957533D02*
X137571428Y-85767057D01*
X137571428Y-85767057D02*
X137609524Y-85614676D01*
X137609524Y-85614676D02*
X137647619Y-85538485D01*
X137647619Y-85538485D02*
X137685714Y-85500390D01*
X137685714Y-85500390D02*
X137761905Y-85462295D01*
X137761905Y-82962295D02*
X137838095Y-82962295D01*
X137838095Y-82962295D02*
X137914286Y-83000390D01*
X137914286Y-83000390D02*
X137952381Y-83038485D01*
X137952381Y-83038485D02*
X137990476Y-83114676D01*
X137990476Y-83114676D02*
X138028571Y-83267057D01*
X138028571Y-83267057D02*
X138028571Y-83457533D01*
X138028571Y-83457533D02*
X137990476Y-83609914D01*
X137990476Y-83609914D02*
X137952381Y-83686104D01*
X137952381Y-83686104D02*
X137914286Y-83724200D01*
X137914286Y-83724200D02*
X137838095Y-83762295D01*
X137838095Y-83762295D02*
X137761905Y-83762295D01*
X137761905Y-83762295D02*
X137685714Y-83724200D01*
X137685714Y-83724200D02*
X137647619Y-83686104D01*
X137647619Y-83686104D02*
X137609524Y-83609914D01*
X137609524Y-83609914D02*
X137571428Y-83457533D01*
X137571428Y-83457533D02*
X137571428Y-83267057D01*
X137571428Y-83267057D02*
X137609524Y-83114676D01*
X137609524Y-83114676D02*
X137647619Y-83038485D01*
X137647619Y-83038485D02*
X137685714Y-83000390D01*
X137685714Y-83000390D02*
X137761905Y-82962295D01*
D13*
%TO.C,R6*%
X135827064Y-89665000D02*
X135372936Y-89665000D01*
X135827064Y-91135000D02*
X135372936Y-91135000D01*
%TO.C,R2*%
X135372936Y-80665000D02*
X135827064Y-80665000D01*
X135372936Y-82135000D02*
X135827064Y-82135000D01*
%TO.C,R4*%
X124527064Y-89665000D02*
X124072936Y-89665000D01*
X124527064Y-91135000D02*
X124072936Y-91135000D01*
%TO.C,R1*%
X124072936Y-80665000D02*
X124527064Y-80665000D01*
X124072936Y-82135000D02*
X124527064Y-82135000D01*
%TO.C,U2*%
X127940000Y-89440000D02*
X127940000Y-89795000D01*
X127940000Y-93760000D02*
X127940000Y-93405000D01*
X129950000Y-89440000D02*
X127940000Y-89440000D01*
X129950000Y-89440000D02*
X131960000Y-89440000D01*
X129950000Y-93760000D02*
X127940000Y-93760000D01*
X129950000Y-93760000D02*
X131960000Y-93760000D01*
X131960000Y-89440000D02*
X131960000Y-89795000D01*
X131960000Y-93760000D02*
X131960000Y-93405000D01*
X132877500Y-93735000D02*
X132397500Y-93735000D01*
X132637500Y-93405000D01*
X132877500Y-93735000D01*
G36*
X132877500Y-93735000D02*
G01*
X132397500Y-93735000D01*
X132637500Y-93405000D01*
X132877500Y-93735000D01*
G37*
%TO.C,R7*%
X135827064Y-91665000D02*
X135372936Y-91665000D01*
X135827064Y-93135000D02*
X135372936Y-93135000D01*
%TO.C,J4*%
X147450000Y-81950000D02*
X147450000Y-82950000D01*
X147450000Y-81950000D02*
X148450000Y-81950000D01*
X147740000Y-82240000D02*
X147740000Y-91710000D01*
X147740000Y-91710000D02*
X151160000Y-91710000D01*
X148250000Y-82750000D02*
X149000000Y-82750000D01*
X148250000Y-86975000D02*
X148250000Y-82750000D01*
X148250000Y-86975000D02*
X148250000Y-91200000D01*
X148250000Y-91200000D02*
X149000000Y-91200000D01*
X149000000Y-82550000D02*
X149800000Y-82550000D01*
X149000000Y-82750000D02*
X149000000Y-82550000D01*
X149000000Y-91200000D02*
X149000000Y-91400000D01*
X149000000Y-91400000D02*
X149800000Y-91400000D01*
X149800000Y-82550000D02*
X149800000Y-82750000D01*
X149800000Y-82750000D02*
X150650000Y-82750000D01*
X149800000Y-91200000D02*
X150650000Y-91200000D01*
X149800000Y-91400000D02*
X149800000Y-91200000D01*
X150650000Y-82750000D02*
X150650000Y-86975000D01*
X150650000Y-91200000D02*
X150650000Y-86975000D01*
X151160000Y-82240000D02*
X147740000Y-82240000D01*
X151160000Y-91710000D02*
X151160000Y-82240000D01*
%TO.C,R10*%
X135372936Y-87265000D02*
X135827064Y-87265000D01*
X135372936Y-88735000D02*
X135827064Y-88735000D01*
%TO.C,J2*%
X138340000Y-82190000D02*
X138340000Y-91660000D01*
X138340000Y-91660000D02*
X141760000Y-91660000D01*
X138850000Y-82700000D02*
X138850000Y-86925000D01*
X138850000Y-91150000D02*
X138850000Y-86925000D01*
X139700000Y-82500000D02*
X139700000Y-82700000D01*
X139700000Y-82700000D02*
X138850000Y-82700000D01*
X139700000Y-91150000D02*
X138850000Y-91150000D01*
X139700000Y-91350000D02*
X139700000Y-91150000D01*
X140500000Y-82500000D02*
X139700000Y-82500000D01*
X140500000Y-82700000D02*
X140500000Y-82500000D01*
X140500000Y-91150000D02*
X140500000Y-91350000D01*
X140500000Y-91350000D02*
X139700000Y-91350000D01*
X141250000Y-82700000D02*
X140500000Y-82700000D01*
X141250000Y-86925000D02*
X141250000Y-82700000D01*
X141250000Y-86925000D02*
X141250000Y-91150000D01*
X141250000Y-91150000D02*
X140500000Y-91150000D01*
X141760000Y-82190000D02*
X138340000Y-82190000D01*
X141760000Y-91660000D02*
X141760000Y-82190000D01*
X142050000Y-91950000D02*
X141050000Y-91950000D01*
X142050000Y-91950000D02*
X142050000Y-90950000D01*
%TO.C,R5*%
X124527064Y-91665000D02*
X124072936Y-91665000D01*
X124527064Y-93135000D02*
X124072936Y-93135000D01*
%TO.C,U1*%
X127940000Y-80070000D02*
X127940000Y-80425000D01*
X127940000Y-84390000D02*
X127940000Y-84035000D01*
X129950000Y-80070000D02*
X127940000Y-80070000D01*
X129950000Y-80070000D02*
X131960000Y-80070000D01*
X129950000Y-84390000D02*
X127940000Y-84390000D01*
X129950000Y-84390000D02*
X131960000Y-84390000D01*
X131960000Y-80070000D02*
X131960000Y-80425000D01*
X131960000Y-84390000D02*
X131960000Y-84035000D01*
X127262500Y-80425000D02*
X127022500Y-80095000D01*
X127502500Y-80095000D01*
X127262500Y-80425000D01*
G36*
X127262500Y-80425000D02*
G01*
X127022500Y-80095000D01*
X127502500Y-80095000D01*
X127262500Y-80425000D01*
G37*
%TO.C,U3*%
X127940000Y-84770000D02*
X127940000Y-85125000D01*
X127940000Y-89090000D02*
X127940000Y-88735000D01*
X129950000Y-84770000D02*
X127940000Y-84770000D01*
X129950000Y-84770000D02*
X131960000Y-84770000D01*
X129950000Y-89090000D02*
X127940000Y-89090000D01*
X129950000Y-89090000D02*
X131960000Y-89090000D01*
X131960000Y-84770000D02*
X131960000Y-85125000D01*
X131960000Y-89090000D02*
X131960000Y-88735000D01*
X127262500Y-85125000D02*
X127022500Y-84795000D01*
X127502500Y-84795000D01*
X127262500Y-85125000D01*
G36*
X127262500Y-85125000D02*
G01*
X127022500Y-84795000D01*
X127502500Y-84795000D01*
X127262500Y-85125000D01*
G37*
%TO.C,J1*%
X117950000Y-83050000D02*
X117950000Y-84050000D01*
X117950000Y-83050000D02*
X118950000Y-83050000D01*
X118240000Y-83340000D02*
X118240000Y-90310000D01*
X118240000Y-90310000D02*
X121660000Y-90310000D01*
X118750000Y-83850000D02*
X119500000Y-83850000D01*
X118750000Y-86825000D02*
X118750000Y-83850000D01*
X118750000Y-86825000D02*
X118750000Y-89800000D01*
X118750000Y-89800000D02*
X119500000Y-89800000D01*
X119500000Y-83650000D02*
X120300000Y-83650000D01*
X119500000Y-83850000D02*
X119500000Y-83650000D01*
X119500000Y-89800000D02*
X119500000Y-90000000D01*
X119500000Y-90000000D02*
X120300000Y-90000000D01*
X120300000Y-83650000D02*
X120300000Y-83850000D01*
X120300000Y-83850000D02*
X121150000Y-83850000D01*
X120300000Y-89800000D02*
X121150000Y-89800000D01*
X120300000Y-90000000D02*
X120300000Y-89800000D01*
X121150000Y-83850000D02*
X121150000Y-86825000D01*
X121150000Y-89800000D02*
X121150000Y-86825000D01*
X121660000Y-83340000D02*
X118240000Y-83340000D01*
X121660000Y-90310000D02*
X121660000Y-83340000D01*
%TO.C,R8*%
X124072936Y-85065000D02*
X124527064Y-85065000D01*
X124072936Y-86535000D02*
X124527064Y-86535000D01*
%TO.C,R9*%
X135372936Y-85165000D02*
X135827064Y-85165000D01*
X135372936Y-86635000D02*
X135827064Y-86635000D01*
%TO.C,R3*%
X135372936Y-82665000D02*
X135827064Y-82665000D01*
X135372936Y-84135000D02*
X135827064Y-84135000D01*
%TD*%
M02*
