%TF.GenerationSoftware,KiCad,Pcbnew,10.0.6*%
%TF.CreationDate,2026-09-24T23:22:25+09:00*%
%TF.ProjectId,kvm_switch,6b766d5f-7377-4697-9463-682e6b696361,Rev1*%
%TF.SameCoordinates,Original*%
%TF.FileFunction,Legend,Top*%
%TF.FilePolarity,Positive*%
%FSLAX46Y46*%
G04 Gerber Fmt 4.6, Leading zero omitted, Abs format (unit mm)*
G04 Created by KiCad (PCBNEW 10.0.6) date 2026-09-24 23:22:25*
%MOMM*%
%LPD*%
G01*
G04 APERTURE LIST*
%ADD10C,0.100000*%
%ADD11C,0.300000*%
%ADD12C,0.150000*%
%ADD13C,0.120000*%
G04 APERTURE END LIST*
D10*
X148100000Y-92175000D02*
X147400000Y-92875000D01*
X148800000Y-92875000D01*
X148100000Y-92175000D01*
G36*
X148800000Y-92875000D02*
G01*
X147400000Y-92875000D01*
X148100000Y-92175000D01*
X148800000Y-92875000D01*
G37*
X155825000Y-80225000D02*
X156325000Y-79825000D01*
X155325000Y-79825000D01*
X155825000Y-80225000D01*
G36*
X155825000Y-80225000D02*
G01*
X155325000Y-79825000D01*
X156325000Y-79825000D01*
X155825000Y-80225000D01*
G37*
X121985000Y-81020000D02*
X122745000Y-81025000D01*
X122005000Y-82290000D02*
X122755000Y-83570000D01*
D11*
X128015000Y-79175000D02*
G75*
G02*
X127715000Y-79175000I-150000J0D01*
G01*
X127715000Y-79175000D02*
G75*
G02*
X128015000Y-79175000I150000J0D01*
G01*
X128015000Y-84975000D02*
G75*
G02*
X127715000Y-84975000I-150000J0D01*
G01*
X127715000Y-84975000D02*
G75*
G02*
X128015000Y-84975000I150000J0D01*
G01*
X133715000Y-94375000D02*
G75*
G02*
X133415000Y-94375000I-150000J0D01*
G01*
X133415000Y-94375000D02*
G75*
G02*
X133715000Y-94375000I150000J0D01*
G01*
D10*
X121006265Y-85233030D02*
X121006265Y-84433030D01*
X121006265Y-84433030D02*
X121311027Y-84433030D01*
X121311027Y-84433030D02*
X121387217Y-84471125D01*
X121387217Y-84471125D02*
X121425312Y-84509220D01*
X121425312Y-84509220D02*
X121463408Y-84585411D01*
X121463408Y-84585411D02*
X121463408Y-84699696D01*
X121463408Y-84699696D02*
X121425312Y-84775887D01*
X121425312Y-84775887D02*
X121387217Y-84813982D01*
X121387217Y-84813982D02*
X121311027Y-84852077D01*
X121311027Y-84852077D02*
X121006265Y-84852077D01*
X121463408Y-86520985D02*
X121196741Y-86140032D01*
X121006265Y-86520985D02*
X121006265Y-85720985D01*
X121006265Y-85720985D02*
X121311027Y-85720985D01*
X121311027Y-85720985D02*
X121387217Y-85759080D01*
X121387217Y-85759080D02*
X121425312Y-85797175D01*
X121425312Y-85797175D02*
X121463408Y-85873366D01*
X121463408Y-85873366D02*
X121463408Y-85987651D01*
X121463408Y-85987651D02*
X121425312Y-86063842D01*
X121425312Y-86063842D02*
X121387217Y-86101937D01*
X121387217Y-86101937D02*
X121311027Y-86140032D01*
X121311027Y-86140032D02*
X121006265Y-86140032D01*
X121387217Y-89096895D02*
X121006265Y-89096895D01*
X121006265Y-89096895D02*
X121006265Y-88296895D01*
G36*
X121652297Y-87985784D02*
G01*
X120879280Y-87985784D01*
X120879280Y-87389752D01*
X120968169Y-87389752D01*
X120968169Y-87504038D01*
X120969364Y-87510047D01*
X120969662Y-87516165D01*
X121007758Y-87668546D01*
X121010097Y-87673498D01*
X121011544Y-87678780D01*
X121049639Y-87754970D01*
X121054550Y-87761298D01*
X121059004Y-87767964D01*
X121135195Y-87844155D01*
X121137276Y-87845545D01*
X121137790Y-87846573D01*
X121144755Y-87850543D01*
X121151416Y-87854994D01*
X121152564Y-87854994D01*
X121154739Y-87856234D01*
X121269025Y-87894329D01*
X121276973Y-87895331D01*
X121284836Y-87896895D01*
X121361027Y-87896895D01*
X121368889Y-87895331D01*
X121376838Y-87894329D01*
X121491123Y-87856234D01*
X121493298Y-87854994D01*
X121494446Y-87854994D01*
X121501106Y-87850543D01*
X121508072Y-87846573D01*
X121508585Y-87845545D01*
X121510667Y-87844155D01*
X121548763Y-87806059D01*
X121559602Y-87789838D01*
X121563408Y-87770704D01*
X121563408Y-87504038D01*
X121559602Y-87484904D01*
X121532542Y-87457844D01*
X121513408Y-87454038D01*
X121361027Y-87454038D01*
X121341893Y-87457844D01*
X121314833Y-87484904D01*
X121314833Y-87523172D01*
X121341893Y-87550232D01*
X121361027Y-87554038D01*
X121463408Y-87554038D01*
X121463408Y-87749994D01*
X121448303Y-87765098D01*
X121352914Y-87796895D01*
X121292949Y-87796895D01*
X121197560Y-87765099D01*
X121135452Y-87702990D01*
X121103440Y-87638967D01*
X121068169Y-87497882D01*
X121068169Y-87395907D01*
X121103441Y-87254820D01*
X121135453Y-87190796D01*
X121197558Y-87128691D01*
X121292949Y-87096895D01*
X121387319Y-87096895D01*
X121452951Y-87129711D01*
X121471767Y-87134864D01*
X121508072Y-87122763D01*
X121525186Y-87088535D01*
X121513085Y-87052230D01*
X121497673Y-87040269D01*
X121421483Y-87002174D01*
X121419067Y-87001512D01*
X121418256Y-87000701D01*
X121410394Y-86999137D01*
X121402667Y-86997021D01*
X121401578Y-86997383D01*
X121399122Y-86996895D01*
X121284836Y-86996895D01*
X121276973Y-86998458D01*
X121269025Y-86999461D01*
X121154739Y-87037556D01*
X121152564Y-87038796D01*
X121151416Y-87038796D01*
X121144755Y-87043246D01*
X121137790Y-87047217D01*
X121137276Y-87048244D01*
X121135195Y-87049635D01*
X121059005Y-87125825D01*
X121054552Y-87132487D01*
X121049639Y-87138819D01*
X121011544Y-87215011D01*
X121010098Y-87220289D01*
X121007758Y-87225244D01*
X120969662Y-87377625D01*
X120969364Y-87383742D01*
X120968169Y-87389752D01*
X120879280Y-87389752D01*
X120879280Y-86908006D01*
X121652297Y-86908006D01*
X121652297Y-87985784D01*
G37*
G36*
X141882599Y-84651082D02*
G01*
X141909219Y-84677703D01*
X141938408Y-84736079D01*
X141938408Y-84826757D01*
X141909219Y-84885133D01*
X141882599Y-84911754D01*
X141824224Y-84940942D01*
X141581265Y-84940942D01*
X141581265Y-84621895D01*
X141824224Y-84621895D01*
X141882599Y-84651082D01*
G37*
G36*
X142127297Y-85506978D02*
G01*
X141392376Y-85506978D01*
X141392376Y-84571895D01*
X141481265Y-84571895D01*
X141481265Y-85371895D01*
X141485071Y-85391029D01*
X141512131Y-85418089D01*
X141550399Y-85418089D01*
X141577459Y-85391029D01*
X141581265Y-85371895D01*
X141581265Y-85040942D01*
X141836027Y-85040942D01*
X141838483Y-85040453D01*
X141839572Y-85040816D01*
X141847299Y-85038699D01*
X141855161Y-85037136D01*
X141855972Y-85036324D01*
X141858388Y-85035663D01*
X141934578Y-84997568D01*
X141940912Y-84992652D01*
X141947572Y-84988202D01*
X141985667Y-84950108D01*
X141990121Y-84943441D01*
X141995033Y-84937113D01*
X142033129Y-84860922D01*
X142033790Y-84858506D01*
X142034602Y-84857695D01*
X142036165Y-84849833D01*
X142038282Y-84842106D01*
X142037919Y-84841017D01*
X142038408Y-84838561D01*
X142038408Y-84724276D01*
X142037919Y-84721819D01*
X142038282Y-84720731D01*
X142036165Y-84713003D01*
X142034602Y-84705142D01*
X142033790Y-84704330D01*
X142033129Y-84701915D01*
X141995033Y-84625724D01*
X141990121Y-84619395D01*
X141985667Y-84612729D01*
X141947572Y-84574635D01*
X141940912Y-84570184D01*
X141934578Y-84565269D01*
X141858388Y-84527174D01*
X141855972Y-84526512D01*
X141855161Y-84525701D01*
X141847299Y-84524137D01*
X141839572Y-84522021D01*
X141838483Y-84522383D01*
X141836027Y-84521895D01*
X141531265Y-84521895D01*
X141512131Y-84525701D01*
X141485071Y-84552761D01*
X141481265Y-84571895D01*
X141392376Y-84571895D01*
X141392376Y-84433006D01*
X142127297Y-84433006D01*
X142127297Y-85506978D01*
G37*
G36*
X141907599Y-87151082D02*
G01*
X141934219Y-87177703D01*
X141963408Y-87236079D01*
X141963408Y-87326757D01*
X141934219Y-87385133D01*
X141907599Y-87411754D01*
X141849224Y-87440942D01*
X141606265Y-87440942D01*
X141606265Y-87121895D01*
X141849224Y-87121895D01*
X141907599Y-87151082D01*
G37*
G36*
X142152297Y-88009600D02*
G01*
X141417376Y-88009600D01*
X141417376Y-87071895D01*
X141506265Y-87071895D01*
X141506265Y-87871895D01*
X141510071Y-87891029D01*
X141537131Y-87918089D01*
X141575399Y-87918089D01*
X141602459Y-87891029D01*
X141606265Y-87871895D01*
X141606265Y-87540942D01*
X141720708Y-87540942D01*
X141972446Y-87900568D01*
X141986537Y-87914060D01*
X142024223Y-87920711D01*
X142055574Y-87898766D01*
X142062224Y-87861079D01*
X142054369Y-87843222D01*
X141842774Y-87540942D01*
X141861027Y-87540942D01*
X141863483Y-87540453D01*
X141864572Y-87540816D01*
X141872299Y-87538699D01*
X141880161Y-87537136D01*
X141880972Y-87536324D01*
X141883388Y-87535663D01*
X141959578Y-87497568D01*
X141965912Y-87492652D01*
X141972572Y-87488202D01*
X142010667Y-87450108D01*
X142015121Y-87443441D01*
X142020033Y-87437113D01*
X142058129Y-87360922D01*
X142058790Y-87358506D01*
X142059602Y-87357695D01*
X142061165Y-87349833D01*
X142063282Y-87342106D01*
X142062919Y-87341017D01*
X142063408Y-87338561D01*
X142063408Y-87224276D01*
X142062919Y-87221819D01*
X142063282Y-87220731D01*
X142061165Y-87213003D01*
X142059602Y-87205142D01*
X142058790Y-87204330D01*
X142058129Y-87201915D01*
X142020033Y-87125724D01*
X142015121Y-87119395D01*
X142010667Y-87112729D01*
X141972572Y-87074635D01*
X141965912Y-87070184D01*
X141959578Y-87065269D01*
X141883388Y-87027174D01*
X141880972Y-87026512D01*
X141880161Y-87025701D01*
X141872299Y-87024137D01*
X141864572Y-87022021D01*
X141863483Y-87022383D01*
X141861027Y-87021895D01*
X141556265Y-87021895D01*
X141537131Y-87025701D01*
X141510071Y-87052761D01*
X141506265Y-87071895D01*
X141417376Y-87071895D01*
X141417376Y-86933006D01*
X142152297Y-86933006D01*
X142152297Y-88009600D01*
G37*
X141556265Y-84082120D02*
X141556265Y-83282120D01*
X141556265Y-83282120D02*
X141861027Y-83282120D01*
X141861027Y-83282120D02*
X141937217Y-83320215D01*
X141937217Y-83320215D02*
X141975312Y-83358310D01*
X141975312Y-83358310D02*
X142013408Y-83434501D01*
X142013408Y-83434501D02*
X142013408Y-83548786D01*
X142013408Y-83548786D02*
X141975312Y-83624977D01*
X141975312Y-83624977D02*
X141937217Y-83663072D01*
X141937217Y-83663072D02*
X141861027Y-83701167D01*
X141861027Y-83701167D02*
X141556265Y-83701167D01*
X142013408Y-86658030D02*
X141746741Y-86277077D01*
X141556265Y-86658030D02*
X141556265Y-85858030D01*
X141556265Y-85858030D02*
X141861027Y-85858030D01*
X141861027Y-85858030D02*
X141937217Y-85896125D01*
X141937217Y-85896125D02*
X141975312Y-85934220D01*
X141975312Y-85934220D02*
X142013408Y-86010411D01*
X142013408Y-86010411D02*
X142013408Y-86124696D01*
X142013408Y-86124696D02*
X141975312Y-86200887D01*
X141975312Y-86200887D02*
X141937217Y-86238982D01*
X141937217Y-86238982D02*
X141861027Y-86277077D01*
X141861027Y-86277077D02*
X141556265Y-86277077D01*
X141937217Y-90521895D02*
X141556265Y-90521895D01*
X141556265Y-90521895D02*
X141556265Y-89721895D01*
G36*
X142097300Y-89360784D02*
G01*
X141442376Y-89360784D01*
X141442376Y-88421895D01*
X141531265Y-88421895D01*
X141531265Y-89221895D01*
X141535071Y-89241029D01*
X141562131Y-89268089D01*
X141581265Y-89271895D01*
X141962217Y-89271895D01*
X141981351Y-89268089D01*
X142008411Y-89241029D01*
X142008411Y-89202761D01*
X141981351Y-89175701D01*
X141962217Y-89171895D01*
X141631265Y-89171895D01*
X141631265Y-88421895D01*
X141627459Y-88402761D01*
X141600399Y-88375701D01*
X141562131Y-88375701D01*
X141535071Y-88402761D01*
X141531265Y-88421895D01*
X141442376Y-88421895D01*
X141442376Y-88286812D01*
X142097300Y-88286812D01*
X142097300Y-89360784D01*
G37*
X144755074Y-82421895D02*
X145288408Y-83221895D01*
X145288408Y-82421895D02*
X144755074Y-83221895D01*
G36*
X154507599Y-86551082D02*
G01*
X154534219Y-86577703D01*
X154563408Y-86636079D01*
X154563408Y-86726757D01*
X154534219Y-86785133D01*
X154507599Y-86811754D01*
X154449224Y-86840942D01*
X154206265Y-86840942D01*
X154206265Y-86521895D01*
X154449224Y-86521895D01*
X154507599Y-86551082D01*
G37*
G36*
X154752297Y-87409600D02*
G01*
X154017376Y-87409600D01*
X154017376Y-86471895D01*
X154106265Y-86471895D01*
X154106265Y-87271895D01*
X154110071Y-87291029D01*
X154137131Y-87318089D01*
X154175399Y-87318089D01*
X154202459Y-87291029D01*
X154206265Y-87271895D01*
X154206265Y-86940942D01*
X154320708Y-86940942D01*
X154572446Y-87300568D01*
X154586537Y-87314060D01*
X154624223Y-87320711D01*
X154655574Y-87298766D01*
X154662224Y-87261079D01*
X154654369Y-87243222D01*
X154442774Y-86940942D01*
X154461027Y-86940942D01*
X154463483Y-86940453D01*
X154464572Y-86940816D01*
X154472299Y-86938699D01*
X154480161Y-86937136D01*
X154480972Y-86936324D01*
X154483388Y-86935663D01*
X154559578Y-86897568D01*
X154565912Y-86892652D01*
X154572572Y-86888202D01*
X154610667Y-86850108D01*
X154615121Y-86843441D01*
X154620033Y-86837113D01*
X154658129Y-86760922D01*
X154658790Y-86758506D01*
X154659602Y-86757695D01*
X154661165Y-86749833D01*
X154663282Y-86742106D01*
X154662919Y-86741017D01*
X154663408Y-86738561D01*
X154663408Y-86624276D01*
X154662919Y-86621819D01*
X154663282Y-86620731D01*
X154661165Y-86613003D01*
X154659602Y-86605142D01*
X154658790Y-86604330D01*
X154658129Y-86601915D01*
X154620033Y-86525724D01*
X154615121Y-86519395D01*
X154610667Y-86512729D01*
X154572572Y-86474635D01*
X154565912Y-86470184D01*
X154559578Y-86465269D01*
X154483388Y-86427174D01*
X154480972Y-86426512D01*
X154480161Y-86425701D01*
X154472299Y-86424137D01*
X154464572Y-86422021D01*
X154463483Y-86422383D01*
X154461027Y-86421895D01*
X154156265Y-86421895D01*
X154137131Y-86425701D01*
X154110071Y-86452761D01*
X154106265Y-86471895D01*
X154017376Y-86471895D01*
X154017376Y-86333006D01*
X154752297Y-86333006D01*
X154752297Y-87409600D01*
G37*
X154663408Y-89771895D02*
X154396741Y-89390942D01*
X154206265Y-89771895D02*
X154206265Y-88971895D01*
X154206265Y-88971895D02*
X154511027Y-88971895D01*
X154511027Y-88971895D02*
X154587217Y-89009990D01*
X154587217Y-89009990D02*
X154625312Y-89048085D01*
X154625312Y-89048085D02*
X154663408Y-89124276D01*
X154663408Y-89124276D02*
X154663408Y-89238561D01*
X154663408Y-89238561D02*
X154625312Y-89314752D01*
X154625312Y-89314752D02*
X154587217Y-89352847D01*
X154587217Y-89352847D02*
X154511027Y-89390942D01*
X154511027Y-89390942D02*
X154206265Y-89390942D01*
X159887217Y-82146895D02*
X159506265Y-82146895D01*
X159506265Y-82146895D02*
X159506265Y-81346895D01*
X159506265Y-87246895D02*
X159506265Y-86446895D01*
X159506265Y-86446895D02*
X159811027Y-86446895D01*
X159811027Y-86446895D02*
X159887217Y-86484990D01*
X159887217Y-86484990D02*
X159925312Y-86523085D01*
X159925312Y-86523085D02*
X159963408Y-86599276D01*
X159963408Y-86599276D02*
X159963408Y-86713561D01*
X159963408Y-86713561D02*
X159925312Y-86789752D01*
X159925312Y-86789752D02*
X159887217Y-86827847D01*
X159887217Y-86827847D02*
X159811027Y-86865942D01*
X159811027Y-86865942D02*
X159506265Y-86865942D01*
G36*
X159857599Y-89076082D02*
G01*
X159884219Y-89102703D01*
X159913408Y-89161079D01*
X159913408Y-89251757D01*
X159884219Y-89310133D01*
X159857599Y-89336754D01*
X159799224Y-89365942D01*
X159556265Y-89365942D01*
X159556265Y-89046895D01*
X159799224Y-89046895D01*
X159857599Y-89076082D01*
G37*
G36*
X160102297Y-89931978D02*
G01*
X159367376Y-89931978D01*
X159367376Y-88996895D01*
X159456265Y-88996895D01*
X159456265Y-89796895D01*
X159460071Y-89816029D01*
X159487131Y-89843089D01*
X159525399Y-89843089D01*
X159552459Y-89816029D01*
X159556265Y-89796895D01*
X159556265Y-89465942D01*
X159811027Y-89465942D01*
X159813483Y-89465453D01*
X159814572Y-89465816D01*
X159822299Y-89463699D01*
X159830161Y-89462136D01*
X159830972Y-89461324D01*
X159833388Y-89460663D01*
X159909578Y-89422568D01*
X159915912Y-89417652D01*
X159922572Y-89413202D01*
X159960667Y-89375108D01*
X159965121Y-89368441D01*
X159970033Y-89362113D01*
X160008129Y-89285922D01*
X160008790Y-89283506D01*
X160009602Y-89282695D01*
X160011165Y-89274833D01*
X160013282Y-89267106D01*
X160012919Y-89266017D01*
X160013408Y-89263561D01*
X160013408Y-89149276D01*
X160012919Y-89146819D01*
X160013282Y-89145731D01*
X160011165Y-89138003D01*
X160009602Y-89130142D01*
X160008790Y-89129330D01*
X160008129Y-89126915D01*
X159970033Y-89050724D01*
X159965121Y-89044395D01*
X159960667Y-89037729D01*
X159922572Y-88999635D01*
X159915912Y-88995184D01*
X159909578Y-88990269D01*
X159833388Y-88952174D01*
X159830972Y-88951512D01*
X159830161Y-88950701D01*
X159822299Y-88949137D01*
X159814572Y-88947021D01*
X159813483Y-88947383D01*
X159811027Y-88946895D01*
X159506265Y-88946895D01*
X159487131Y-88950701D01*
X159460071Y-88977761D01*
X159456265Y-88996895D01*
X159367376Y-88996895D01*
X159367376Y-88858006D01*
X160102297Y-88858006D01*
X160102297Y-89931978D01*
G37*
G36*
X160047300Y-84835784D02*
G01*
X159392376Y-84835784D01*
X159392376Y-83896895D01*
X159481265Y-83896895D01*
X159481265Y-84696895D01*
X159485071Y-84716029D01*
X159512131Y-84743089D01*
X159531265Y-84746895D01*
X159912217Y-84746895D01*
X159931351Y-84743089D01*
X159958411Y-84716029D01*
X159958411Y-84677761D01*
X159931351Y-84650701D01*
X159912217Y-84646895D01*
X159581265Y-84646895D01*
X159581265Y-83896895D01*
X159577459Y-83877761D01*
X159550399Y-83850701D01*
X159512131Y-83850701D01*
X159485071Y-83877761D01*
X159481265Y-83896895D01*
X159392376Y-83896895D01*
X159392376Y-83761812D01*
X160047300Y-83761812D01*
X160047300Y-84835784D01*
G37*
X159480074Y-91546895D02*
X160013408Y-92346895D01*
X160013408Y-91546895D02*
X159480074Y-92346895D01*
G36*
X145345719Y-85366993D02*
G01*
X144572702Y-85366993D01*
X144572702Y-84504295D01*
X144661591Y-84504295D01*
X144661591Y-84770961D01*
X144665397Y-84790095D01*
X144692457Y-84817155D01*
X144711591Y-84820961D01*
X144863972Y-84820961D01*
X144883106Y-84817155D01*
X144910166Y-84790095D01*
X144910166Y-84751827D01*
X144883106Y-84724767D01*
X144863972Y-84720961D01*
X144761591Y-84720961D01*
X144761591Y-84525006D01*
X144776696Y-84509901D01*
X144872085Y-84478104D01*
X144932049Y-84478104D01*
X145027440Y-84509901D01*
X145089546Y-84572007D01*
X145121558Y-84636031D01*
X145156830Y-84777116D01*
X145156830Y-84879091D01*
X145121557Y-85020177D01*
X145089546Y-85084201D01*
X145027440Y-85146307D01*
X144932050Y-85178104D01*
X144837680Y-85178104D01*
X144772048Y-85145288D01*
X144753232Y-85140135D01*
X144716927Y-85152236D01*
X144699813Y-85186464D01*
X144711914Y-85222769D01*
X144727326Y-85234730D01*
X144803516Y-85272825D01*
X144805931Y-85273486D01*
X144806743Y-85274298D01*
X144814604Y-85275861D01*
X144822332Y-85277978D01*
X144823420Y-85277615D01*
X144825877Y-85278104D01*
X144940163Y-85278104D01*
X144948025Y-85276540D01*
X144955974Y-85275538D01*
X145070260Y-85237443D01*
X145072435Y-85236203D01*
X145073583Y-85236203D01*
X145080243Y-85231752D01*
X145087209Y-85227782D01*
X145087722Y-85226754D01*
X145089804Y-85225364D01*
X145165994Y-85149174D01*
X145170448Y-85142507D01*
X145175360Y-85136179D01*
X145213456Y-85059988D01*
X145214902Y-85054705D01*
X145217241Y-85049755D01*
X145255337Y-84897374D01*
X145255634Y-84891256D01*
X145256830Y-84885247D01*
X145256830Y-84770961D01*
X145255634Y-84764951D01*
X145255337Y-84758834D01*
X145217241Y-84606453D01*
X145214901Y-84601500D01*
X145213455Y-84596219D01*
X145175360Y-84520029D01*
X145170444Y-84513694D01*
X145165994Y-84507035D01*
X145089804Y-84430845D01*
X145087722Y-84429454D01*
X145087209Y-84428427D01*
X145080243Y-84424456D01*
X145073583Y-84420006D01*
X145072435Y-84420006D01*
X145070260Y-84418766D01*
X144955975Y-84380670D01*
X144948024Y-84379667D01*
X144940163Y-84378104D01*
X144863972Y-84378104D01*
X144856110Y-84379667D01*
X144848160Y-84380670D01*
X144733875Y-84418766D01*
X144731699Y-84420006D01*
X144730553Y-84420006D01*
X144723890Y-84424457D01*
X144716927Y-84428427D01*
X144716414Y-84429452D01*
X144714332Y-84430844D01*
X144676236Y-84468939D01*
X144665397Y-84485160D01*
X144665397Y-84485161D01*
X144661591Y-84504295D01*
X144572702Y-84504295D01*
X144572702Y-84289215D01*
X145345719Y-84289215D01*
X145345719Y-85366993D01*
G37*
X145193734Y-86478104D02*
X145193734Y-87278104D01*
X145193734Y-87278104D02*
X144888972Y-87278104D01*
X144888972Y-87278104D02*
X144812782Y-87240009D01*
X144812782Y-87240009D02*
X144774687Y-87201914D01*
X144774687Y-87201914D02*
X144736591Y-87125723D01*
X144736591Y-87125723D02*
X144736591Y-87011438D01*
X144736591Y-87011438D02*
X144774687Y-86935247D01*
X144774687Y-86935247D02*
X144812782Y-86897152D01*
X144812782Y-86897152D02*
X144888972Y-86859057D01*
X144888972Y-86859057D02*
X145193734Y-86859057D01*
X144812782Y-90453104D02*
X145193734Y-90453104D01*
X145193734Y-90453104D02*
X145193734Y-91253104D01*
X148193734Y-80703104D02*
X148193734Y-81503104D01*
X148193734Y-81503104D02*
X147736591Y-80703104D01*
X147736591Y-80703104D02*
X147736591Y-81503104D01*
X147355639Y-81503104D02*
X147355639Y-80855485D01*
X147355639Y-80855485D02*
X147317544Y-80779295D01*
X147317544Y-80779295D02*
X147279449Y-80741200D01*
X147279449Y-80741200D02*
X147203258Y-80703104D01*
X147203258Y-80703104D02*
X147050877Y-80703104D01*
X147050877Y-80703104D02*
X146974687Y-80741200D01*
X146974687Y-80741200D02*
X146936592Y-80779295D01*
X146936592Y-80779295D02*
X146898496Y-80855485D01*
X146898496Y-80855485D02*
X146898496Y-81503104D01*
X146060401Y-80779295D02*
X146098497Y-80741200D01*
X146098497Y-80741200D02*
X146212782Y-80703104D01*
X146212782Y-80703104D02*
X146288973Y-80703104D01*
X146288973Y-80703104D02*
X146403259Y-80741200D01*
X146403259Y-80741200D02*
X146479449Y-80817390D01*
X146479449Y-80817390D02*
X146517544Y-80893580D01*
X146517544Y-80893580D02*
X146555640Y-81045961D01*
X146555640Y-81045961D02*
X146555640Y-81160247D01*
X146555640Y-81160247D02*
X146517544Y-81312628D01*
X146517544Y-81312628D02*
X146479449Y-81388819D01*
X146479449Y-81388819D02*
X146403259Y-81465009D01*
X146403259Y-81465009D02*
X146288973Y-81503104D01*
X146288973Y-81503104D02*
X146212782Y-81503104D01*
X146212782Y-81503104D02*
X146098497Y-81465009D01*
X146098497Y-81465009D02*
X146060401Y-81426914D01*
X149061591Y-84478104D02*
X149328258Y-84859057D01*
X149518734Y-84478104D02*
X149518734Y-85278104D01*
X149518734Y-85278104D02*
X149213972Y-85278104D01*
X149213972Y-85278104D02*
X149137782Y-85240009D01*
X149137782Y-85240009D02*
X149099687Y-85201914D01*
X149099687Y-85201914D02*
X149061591Y-85125723D01*
X149061591Y-85125723D02*
X149061591Y-85011438D01*
X149061591Y-85011438D02*
X149099687Y-84935247D01*
X149099687Y-84935247D02*
X149137782Y-84897152D01*
X149137782Y-84897152D02*
X149213972Y-84859057D01*
X149213972Y-84859057D02*
X149518734Y-84859057D01*
G36*
X149720719Y-87391993D02*
G01*
X148947702Y-87391993D01*
X148947702Y-86529295D01*
X149036591Y-86529295D01*
X149036591Y-86795961D01*
X149040397Y-86815095D01*
X149067457Y-86842155D01*
X149086591Y-86845961D01*
X149238972Y-86845961D01*
X149258106Y-86842155D01*
X149285166Y-86815095D01*
X149285166Y-86776827D01*
X149258106Y-86749767D01*
X149238972Y-86745961D01*
X149136591Y-86745961D01*
X149136591Y-86550006D01*
X149151696Y-86534901D01*
X149247085Y-86503104D01*
X149307049Y-86503104D01*
X149402440Y-86534901D01*
X149464546Y-86597007D01*
X149496558Y-86661031D01*
X149531830Y-86802116D01*
X149531830Y-86904091D01*
X149496557Y-87045177D01*
X149464546Y-87109201D01*
X149402440Y-87171307D01*
X149307050Y-87203104D01*
X149212680Y-87203104D01*
X149147048Y-87170288D01*
X149128232Y-87165135D01*
X149091927Y-87177236D01*
X149074813Y-87211464D01*
X149086914Y-87247769D01*
X149102326Y-87259730D01*
X149178516Y-87297825D01*
X149180931Y-87298486D01*
X149181743Y-87299298D01*
X149189604Y-87300861D01*
X149197332Y-87302978D01*
X149198420Y-87302615D01*
X149200877Y-87303104D01*
X149315163Y-87303104D01*
X149323025Y-87301540D01*
X149330974Y-87300538D01*
X149445260Y-87262443D01*
X149447435Y-87261203D01*
X149448583Y-87261203D01*
X149455243Y-87256752D01*
X149462209Y-87252782D01*
X149462722Y-87251754D01*
X149464804Y-87250364D01*
X149540994Y-87174174D01*
X149545448Y-87167507D01*
X149550360Y-87161179D01*
X149588456Y-87084988D01*
X149589902Y-87079705D01*
X149592241Y-87074755D01*
X149630337Y-86922374D01*
X149630634Y-86916256D01*
X149631830Y-86910247D01*
X149631830Y-86795961D01*
X149630634Y-86789951D01*
X149630337Y-86783834D01*
X149592241Y-86631453D01*
X149589901Y-86626500D01*
X149588455Y-86621219D01*
X149550360Y-86545029D01*
X149545444Y-86538694D01*
X149540994Y-86532035D01*
X149464804Y-86455845D01*
X149462722Y-86454454D01*
X149462209Y-86453427D01*
X149455243Y-86449456D01*
X149448583Y-86445006D01*
X149447435Y-86445006D01*
X149445260Y-86443766D01*
X149330975Y-86405670D01*
X149323024Y-86404667D01*
X149315163Y-86403104D01*
X149238972Y-86403104D01*
X149231110Y-86404667D01*
X149223160Y-86405670D01*
X149108875Y-86443766D01*
X149106699Y-86445006D01*
X149105553Y-86445006D01*
X149098890Y-86449457D01*
X149091927Y-86453427D01*
X149091414Y-86454452D01*
X149089332Y-86455844D01*
X149051236Y-86493939D01*
X149040397Y-86510160D01*
X149040397Y-86510161D01*
X149036591Y-86529295D01*
X148947702Y-86529295D01*
X148947702Y-86314215D01*
X149720719Y-86314215D01*
X149720719Y-87391993D01*
G37*
X156031265Y-94411704D02*
X156507455Y-94411704D01*
X155936027Y-94697419D02*
X156269360Y-93697419D01*
X156269360Y-93697419D02*
X156602693Y-94697419D01*
X156793170Y-93697419D02*
X157364598Y-93697419D01*
X157078884Y-94697419D02*
X157078884Y-93697419D01*
X157602694Y-93697419D02*
X158269360Y-94697419D01*
X158269360Y-93697419D02*
X157602694Y-94697419D01*
D12*
X138386905Y-89987295D02*
X138463095Y-89987295D01*
X138463095Y-89987295D02*
X138539286Y-90025390D01*
X138539286Y-90025390D02*
X138577381Y-90063485D01*
X138577381Y-90063485D02*
X138615476Y-90139676D01*
X138615476Y-90139676D02*
X138653571Y-90292057D01*
X138653571Y-90292057D02*
X138653571Y-90482533D01*
X138653571Y-90482533D02*
X138615476Y-90634914D01*
X138615476Y-90634914D02*
X138577381Y-90711104D01*
X138577381Y-90711104D02*
X138539286Y-90749200D01*
X138539286Y-90749200D02*
X138463095Y-90787295D01*
X138463095Y-90787295D02*
X138386905Y-90787295D01*
X138386905Y-90787295D02*
X138310714Y-90749200D01*
X138310714Y-90749200D02*
X138272619Y-90711104D01*
X138272619Y-90711104D02*
X138234524Y-90634914D01*
X138234524Y-90634914D02*
X138196428Y-90482533D01*
X138196428Y-90482533D02*
X138196428Y-90292057D01*
X138196428Y-90292057D02*
X138234524Y-90139676D01*
X138234524Y-90139676D02*
X138272619Y-90063485D01*
X138272619Y-90063485D02*
X138310714Y-90025390D01*
X138310714Y-90025390D02*
X138386905Y-89987295D01*
X138386905Y-80837295D02*
X138463095Y-80837295D01*
X138463095Y-80837295D02*
X138539286Y-80875390D01*
X138539286Y-80875390D02*
X138577381Y-80913485D01*
X138577381Y-80913485D02*
X138615476Y-80989676D01*
X138615476Y-80989676D02*
X138653571Y-81142057D01*
X138653571Y-81142057D02*
X138653571Y-81332533D01*
X138653571Y-81332533D02*
X138615476Y-81484914D01*
X138615476Y-81484914D02*
X138577381Y-81561104D01*
X138577381Y-81561104D02*
X138539286Y-81599200D01*
X138539286Y-81599200D02*
X138463095Y-81637295D01*
X138463095Y-81637295D02*
X138386905Y-81637295D01*
X138386905Y-81637295D02*
X138310714Y-81599200D01*
X138310714Y-81599200D02*
X138272619Y-81561104D01*
X138272619Y-81561104D02*
X138234524Y-81484914D01*
X138234524Y-81484914D02*
X138196428Y-81332533D01*
X138196428Y-81332533D02*
X138196428Y-81142057D01*
X138196428Y-81142057D02*
X138234524Y-80989676D01*
X138234524Y-80989676D02*
X138272619Y-80913485D01*
X138272619Y-80913485D02*
X138310714Y-80875390D01*
X138310714Y-80875390D02*
X138386905Y-80837295D01*
X123287295Y-88713094D02*
X123287295Y-88636904D01*
X123287295Y-88636904D02*
X123325390Y-88560713D01*
X123325390Y-88560713D02*
X123363485Y-88522618D01*
X123363485Y-88522618D02*
X123439676Y-88484523D01*
X123439676Y-88484523D02*
X123592057Y-88446428D01*
X123592057Y-88446428D02*
X123782533Y-88446428D01*
X123782533Y-88446428D02*
X123934914Y-88484523D01*
X123934914Y-88484523D02*
X124011104Y-88522618D01*
X124011104Y-88522618D02*
X124049200Y-88560713D01*
X124049200Y-88560713D02*
X124087295Y-88636904D01*
X124087295Y-88636904D02*
X124087295Y-88713094D01*
X124087295Y-88713094D02*
X124049200Y-88789285D01*
X124049200Y-88789285D02*
X124011104Y-88827380D01*
X124011104Y-88827380D02*
X123934914Y-88865475D01*
X123934914Y-88865475D02*
X123782533Y-88903571D01*
X123782533Y-88903571D02*
X123592057Y-88903571D01*
X123592057Y-88903571D02*
X123439676Y-88865475D01*
X123439676Y-88865475D02*
X123363485Y-88827380D01*
X123363485Y-88827380D02*
X123325390Y-88789285D01*
X123325390Y-88789285D02*
X123287295Y-88713094D01*
X121767295Y-81675238D02*
X121767295Y-82132381D01*
X121767295Y-81903809D02*
X120967295Y-81903809D01*
X120967295Y-81903809D02*
X121081580Y-81980000D01*
X121081580Y-81980000D02*
X121157771Y-82056190D01*
X121157771Y-82056190D02*
X121195866Y-82132381D01*
X121767295Y-81332380D02*
X120967295Y-81332380D01*
X121462533Y-81256190D02*
X121767295Y-81027618D01*
X121233961Y-81027618D02*
X121538723Y-81332380D01*
X138404761Y-94212295D02*
X137947618Y-94212295D01*
X138176190Y-94212295D02*
X138176190Y-93412295D01*
X138176190Y-93412295D02*
X138099999Y-93526580D01*
X138099999Y-93526580D02*
X138023809Y-93602771D01*
X138023809Y-93602771D02*
X137947618Y-93640866D01*
X138747619Y-94212295D02*
X138747619Y-93412295D01*
X138823809Y-93907533D02*
X139052381Y-94212295D01*
X139052381Y-93678961D02*
X138747619Y-93983723D01*
X138386905Y-87562295D02*
X138463095Y-87562295D01*
X138463095Y-87562295D02*
X138539286Y-87600390D01*
X138539286Y-87600390D02*
X138577381Y-87638485D01*
X138577381Y-87638485D02*
X138615476Y-87714676D01*
X138615476Y-87714676D02*
X138653571Y-87867057D01*
X138653571Y-87867057D02*
X138653571Y-88057533D01*
X138653571Y-88057533D02*
X138615476Y-88209914D01*
X138615476Y-88209914D02*
X138577381Y-88286104D01*
X138577381Y-88286104D02*
X138539286Y-88324200D01*
X138539286Y-88324200D02*
X138463095Y-88362295D01*
X138463095Y-88362295D02*
X138386905Y-88362295D01*
X138386905Y-88362295D02*
X138310714Y-88324200D01*
X138310714Y-88324200D02*
X138272619Y-88286104D01*
X138272619Y-88286104D02*
X138234524Y-88209914D01*
X138234524Y-88209914D02*
X138196428Y-88057533D01*
X138196428Y-88057533D02*
X138196428Y-87867057D01*
X138196428Y-87867057D02*
X138234524Y-87714676D01*
X138234524Y-87714676D02*
X138272619Y-87638485D01*
X138272619Y-87638485D02*
X138310714Y-87600390D01*
X138310714Y-87600390D02*
X138386905Y-87562295D01*
X123262295Y-92538094D02*
X123262295Y-92461904D01*
X123262295Y-92461904D02*
X123300390Y-92385713D01*
X123300390Y-92385713D02*
X123338485Y-92347618D01*
X123338485Y-92347618D02*
X123414676Y-92309523D01*
X123414676Y-92309523D02*
X123567057Y-92271428D01*
X123567057Y-92271428D02*
X123757533Y-92271428D01*
X123757533Y-92271428D02*
X123909914Y-92309523D01*
X123909914Y-92309523D02*
X123986104Y-92347618D01*
X123986104Y-92347618D02*
X124024200Y-92385713D01*
X124024200Y-92385713D02*
X124062295Y-92461904D01*
X124062295Y-92461904D02*
X124062295Y-92538094D01*
X124062295Y-92538094D02*
X124024200Y-92614285D01*
X124024200Y-92614285D02*
X123986104Y-92652380D01*
X123986104Y-92652380D02*
X123909914Y-92690475D01*
X123909914Y-92690475D02*
X123757533Y-92728571D01*
X123757533Y-92728571D02*
X123567057Y-92728571D01*
X123567057Y-92728571D02*
X123414676Y-92690475D01*
X123414676Y-92690475D02*
X123338485Y-92652380D01*
X123338485Y-92652380D02*
X123300390Y-92614285D01*
X123300390Y-92614285D02*
X123262295Y-92538094D01*
X138436905Y-85487295D02*
X138513095Y-85487295D01*
X138513095Y-85487295D02*
X138589286Y-85525390D01*
X138589286Y-85525390D02*
X138627381Y-85563485D01*
X138627381Y-85563485D02*
X138665476Y-85639676D01*
X138665476Y-85639676D02*
X138703571Y-85792057D01*
X138703571Y-85792057D02*
X138703571Y-85982533D01*
X138703571Y-85982533D02*
X138665476Y-86134914D01*
X138665476Y-86134914D02*
X138627381Y-86211104D01*
X138627381Y-86211104D02*
X138589286Y-86249200D01*
X138589286Y-86249200D02*
X138513095Y-86287295D01*
X138513095Y-86287295D02*
X138436905Y-86287295D01*
X138436905Y-86287295D02*
X138360714Y-86249200D01*
X138360714Y-86249200D02*
X138322619Y-86211104D01*
X138322619Y-86211104D02*
X138284524Y-86134914D01*
X138284524Y-86134914D02*
X138246428Y-85982533D01*
X138246428Y-85982533D02*
X138246428Y-85792057D01*
X138246428Y-85792057D02*
X138284524Y-85639676D01*
X138284524Y-85639676D02*
X138322619Y-85563485D01*
X138322619Y-85563485D02*
X138360714Y-85525390D01*
X138360714Y-85525390D02*
X138436905Y-85487295D01*
X138411905Y-82962295D02*
X138488095Y-82962295D01*
X138488095Y-82962295D02*
X138564286Y-83000390D01*
X138564286Y-83000390D02*
X138602381Y-83038485D01*
X138602381Y-83038485D02*
X138640476Y-83114676D01*
X138640476Y-83114676D02*
X138678571Y-83267057D01*
X138678571Y-83267057D02*
X138678571Y-83457533D01*
X138678571Y-83457533D02*
X138640476Y-83609914D01*
X138640476Y-83609914D02*
X138602381Y-83686104D01*
X138602381Y-83686104D02*
X138564286Y-83724200D01*
X138564286Y-83724200D02*
X138488095Y-83762295D01*
X138488095Y-83762295D02*
X138411905Y-83762295D01*
X138411905Y-83762295D02*
X138335714Y-83724200D01*
X138335714Y-83724200D02*
X138297619Y-83686104D01*
X138297619Y-83686104D02*
X138259524Y-83609914D01*
X138259524Y-83609914D02*
X138221428Y-83457533D01*
X138221428Y-83457533D02*
X138221428Y-83267057D01*
X138221428Y-83267057D02*
X138259524Y-83114676D01*
X138259524Y-83114676D02*
X138297619Y-83038485D01*
X138297619Y-83038485D02*
X138335714Y-83000390D01*
X138335714Y-83000390D02*
X138411905Y-82962295D01*
%TO.C,R6*%
D13*
X138681053Y-89619832D02*
X138226925Y-89619832D01*
X138681053Y-91089832D02*
X138226925Y-91089832D01*
%TO.C,R2*%
X138216925Y-80519832D02*
X138671053Y-80519832D01*
X138216925Y-81989832D02*
X138671053Y-81989832D01*
%TO.C,R4*%
X122955000Y-88902064D02*
X122955000Y-88447936D01*
X124425000Y-88902064D02*
X124425000Y-88447936D01*
%TO.C,R1*%
X122965000Y-81252064D02*
X122965000Y-80797936D01*
X124435000Y-81252064D02*
X124435000Y-80797936D01*
%TO.C,U2*%
X127155000Y-90445000D02*
X127155000Y-89775000D01*
X127155000Y-95115000D02*
X127155000Y-94445000D01*
X127155000Y-95115000D02*
X134175000Y-95115000D01*
X134095000Y-89775000D02*
X127155000Y-89775000D01*
X134095000Y-90445000D02*
X134095000Y-89775000D01*
X134175000Y-95115000D02*
X134175000Y-94445000D01*
X135220000Y-94745000D02*
X135460000Y-95075000D01*
X134980000Y-95075000D01*
X135220000Y-94745000D01*
G36*
X135460000Y-95075000D02*
G01*
X134980000Y-95075000D01*
X135220000Y-94745000D01*
X135460000Y-95075000D01*
G37*
%TO.C,R7*%
X138681053Y-91719832D02*
X138226925Y-91719832D01*
X138681053Y-93189832D02*
X138226925Y-93189832D01*
%TO.C,J4*%
X149850298Y-81890057D02*
X149850298Y-82890057D01*
X149850298Y-81890057D02*
X150850298Y-81890057D01*
X150140298Y-82180057D02*
X150140298Y-91650057D01*
X150140298Y-91650057D02*
X153560298Y-91650057D01*
X150650298Y-82690057D02*
X151400298Y-82690057D01*
X150650298Y-86915057D02*
X150650298Y-82690057D01*
X150650298Y-86915057D02*
X150650298Y-91140057D01*
X150650298Y-91140057D02*
X151400298Y-91140057D01*
X151400298Y-82490057D02*
X152200298Y-82490057D01*
X151400298Y-82690057D02*
X151400298Y-82490057D01*
X151400298Y-91140057D02*
X151400298Y-91340057D01*
X151400298Y-91340057D02*
X152200298Y-91340057D01*
X152200298Y-82490057D02*
X152200298Y-82690057D01*
X152200298Y-82690057D02*
X153050298Y-82690057D01*
X152200298Y-91140057D02*
X153050298Y-91140057D01*
X152200298Y-91340057D02*
X152200298Y-91140057D01*
X153050298Y-82690057D02*
X153050298Y-86915057D01*
X153050298Y-91140057D02*
X153050298Y-86915057D01*
X153560298Y-82180057D02*
X150140298Y-82180057D01*
X153560298Y-91650057D02*
X153560298Y-82180057D01*
%TO.C,R10*%
X138226925Y-87219832D02*
X138681053Y-87219832D01*
X138226925Y-88689832D02*
X138681053Y-88689832D01*
%TO.C,J2*%
X140740298Y-82130057D02*
X140740298Y-91600057D01*
X140740298Y-91600057D02*
X144160298Y-91600057D01*
X141250298Y-82640057D02*
X141250298Y-86865057D01*
X141250298Y-91090057D02*
X141250298Y-86865057D01*
X142100298Y-82440057D02*
X142100298Y-82640057D01*
X142100298Y-82640057D02*
X141250298Y-82640057D01*
X142100298Y-91090057D02*
X141250298Y-91090057D01*
X142100298Y-91290057D02*
X142100298Y-91090057D01*
X142900298Y-82440057D02*
X142100298Y-82440057D01*
X142900298Y-82640057D02*
X142900298Y-82440057D01*
X142900298Y-91090057D02*
X142900298Y-91290057D01*
X142900298Y-91290057D02*
X142100298Y-91290057D01*
X143650298Y-82640057D02*
X142900298Y-82640057D01*
X143650298Y-86865057D02*
X143650298Y-82640057D01*
X143650298Y-86865057D02*
X143650298Y-91090057D01*
X143650298Y-91090057D02*
X142900298Y-91090057D01*
X144160298Y-82130057D02*
X140740298Y-82130057D01*
X144160298Y-91600057D02*
X144160298Y-82130057D01*
X144450298Y-91890057D02*
X143450298Y-91890057D01*
X144450298Y-91890057D02*
X144450298Y-90890057D01*
%TO.C,R5*%
X122955000Y-92752064D02*
X122955000Y-92297936D01*
X124425000Y-92752064D02*
X124425000Y-92297936D01*
%TO.C,U1*%
X127075000Y-78555000D02*
X127075000Y-79225000D01*
X127155000Y-83225000D02*
X127155000Y-83895000D01*
X127155000Y-83895000D02*
X134095000Y-83895000D01*
X134095000Y-78555000D02*
X127075000Y-78555000D01*
X134095000Y-78555000D02*
X134095000Y-79225000D01*
X134095000Y-83225000D02*
X134095000Y-83895000D01*
X126030000Y-78925000D02*
X125790000Y-78595000D01*
X126270000Y-78595000D01*
X126030000Y-78925000D01*
G36*
X126030000Y-78925000D02*
G01*
X125790000Y-78595000D01*
X126270000Y-78595000D01*
X126030000Y-78925000D01*
G37*
%TO.C,U3*%
X127075000Y-84175000D02*
X127075000Y-84845000D01*
X127155000Y-88845000D02*
X127155000Y-89515000D01*
X127155000Y-89515000D02*
X134095000Y-89515000D01*
X134095000Y-84175000D02*
X127075000Y-84175000D01*
X134095000Y-84175000D02*
X134095000Y-84845000D01*
X134095000Y-88845000D02*
X134095000Y-89515000D01*
X126030000Y-84545000D02*
X125790000Y-84215000D01*
X126270000Y-84215000D01*
X126030000Y-84545000D01*
G36*
X126030000Y-84545000D02*
G01*
X125790000Y-84215000D01*
X126270000Y-84215000D01*
X126030000Y-84545000D01*
G37*
%TO.C,J1*%
X118525000Y-83025000D02*
X118525000Y-84025000D01*
X118525000Y-83025000D02*
X119525000Y-83025000D01*
X118815000Y-83315000D02*
X118815000Y-90285000D01*
X118815000Y-90285000D02*
X122235000Y-90285000D01*
X119325000Y-83825000D02*
X120075000Y-83825000D01*
X119325000Y-86800000D02*
X119325000Y-83825000D01*
X119325000Y-86800000D02*
X119325000Y-89775000D01*
X119325000Y-89775000D02*
X120075000Y-89775000D01*
X120075000Y-83625000D02*
X120875000Y-83625000D01*
X120075000Y-83825000D02*
X120075000Y-83625000D01*
X120075000Y-89775000D02*
X120075000Y-89975000D01*
X120075000Y-89975000D02*
X120875000Y-89975000D01*
X120875000Y-83625000D02*
X120875000Y-83825000D01*
X120875000Y-83825000D02*
X121725000Y-83825000D01*
X120875000Y-89775000D02*
X121725000Y-89775000D01*
X120875000Y-89975000D02*
X120875000Y-89775000D01*
X121725000Y-83825000D02*
X121725000Y-86800000D01*
X121725000Y-89775000D02*
X121725000Y-86800000D01*
X122235000Y-83315000D02*
X118815000Y-83315000D01*
X122235000Y-90285000D02*
X122235000Y-83315000D01*
%TO.C,R8*%
X122965000Y-85077064D02*
X122965000Y-84622936D01*
X124435000Y-85077064D02*
X124435000Y-84622936D01*
%TO.C,R9*%
X138226925Y-85119832D02*
X138681053Y-85119832D01*
X138226925Y-86589832D02*
X138681053Y-86589832D01*
%TO.C,R3*%
X138226925Y-82619832D02*
X138681053Y-82619832D01*
X138226925Y-84089832D02*
X138681053Y-84089832D01*
%TD*%
M02*
