%TF.GenerationSoftware,KiCad,Pcbnew,9.0.2*%
%TF.CreationDate,2025-05-13T01:40:48+09:00*%
%TF.ProjectId,kvm_switch,6b766d5f-7377-4697-9463-682e6b696361,rev?*%
%TF.SameCoordinates,Original*%
%TF.FileFunction,Soldermask,Top*%
%TF.FilePolarity,Negative*%
%FSLAX46Y46*%
G04 Gerber Fmt 4.6, Leading zero omitted, Abs format (unit mm)*
G04 Created by KiCad (PCBNEW 9.0.2) date 2025-05-13 01:40:48*
%MOMM*%
%LPD*%
G01*
G04 APERTURE LIST*
G04 Aperture macros list*
%AMRoundRect*
0 Rectangle with rounded corners*
0 $1 Rounding radius*
0 $2 $3 $4 $5 $6 $7 $8 $9 X,Y pos of 4 corners*
0 Add a 4 corners polygon primitive as box body*
4,1,4,$2,$3,$4,$5,$6,$7,$8,$9,$2,$3,0*
0 Add four circle primitives for the rounded corners*
1,1,$1+$1,$2,$3*
1,1,$1+$1,$4,$5*
1,1,$1+$1,$6,$7*
1,1,$1+$1,$8,$9*
0 Add four rect primitives between the rounded corners*
20,1,$1+$1,$2,$3,$4,$5,0*
20,1,$1+$1,$4,$5,$6,$7,0*
20,1,$1+$1,$6,$7,$8,$9,0*
20,1,$1+$1,$8,$9,$2,$3,0*%
G04 Aperture macros list end*
%ADD10R,1.350000X1.350000*%
%ADD11C,1.350000*%
%ADD12R,1.700000X1.700000*%
%ADD13C,1.700000*%
%ADD14RoundRect,0.200000X-0.450000X0.200000X-0.450000X-0.200000X0.450000X-0.200000X0.450000X0.200000X0*%
%ADD15O,1.300000X0.800000*%
%ADD16RoundRect,0.250000X0.350000X0.450000X-0.350000X0.450000X-0.350000X-0.450000X0.350000X-0.450000X0*%
%ADD17RoundRect,0.250000X-0.350000X-0.450000X0.350000X-0.450000X0.350000X0.450000X-0.350000X0.450000X0*%
%ADD18RoundRect,0.137500X0.587500X0.137500X-0.587500X0.137500X-0.587500X-0.137500X0.587500X-0.137500X0*%
%ADD19RoundRect,0.200000X0.450000X-0.200000X0.450000X0.200000X-0.450000X0.200000X-0.450000X-0.200000X0*%
%ADD20RoundRect,0.137500X-0.587500X-0.137500X0.587500X-0.137500X0.587500X0.137500X-0.587500X0.137500X0*%
G04 APERTURE END LIST*
D10*
%TO.C,J3*%
X145700000Y-90900000D03*
D11*
X143700000Y-90900000D03*
X145700000Y-88900000D03*
X143700000Y-88900000D03*
X145700000Y-86900000D03*
X143700000Y-86900000D03*
X145700000Y-84900000D03*
X143700000Y-84900000D03*
X145700000Y-82900000D03*
X143700000Y-82900000D03*
%TD*%
D12*
%TO.C,J5*%
X156040000Y-91900000D03*
D13*
X153500000Y-91900000D03*
X156040000Y-89360000D03*
X153500000Y-89360000D03*
X156040000Y-86820000D03*
X153500000Y-86820000D03*
X156040000Y-84280000D03*
X153500000Y-84280000D03*
X156040000Y-81740000D03*
X153500000Y-81740000D03*
%TD*%
D14*
%TO.C,J4*%
X149000000Y-83850000D03*
D15*
X149000000Y-85100000D03*
X149000000Y-86350000D03*
X149000000Y-87600000D03*
X149000000Y-88850000D03*
X149000000Y-90100000D03*
%TD*%
D16*
%TO.C,R6*%
X136600000Y-90400000D03*
X134600000Y-90400000D03*
%TD*%
D17*
%TO.C,R2*%
X134600000Y-81400000D03*
X136600000Y-81400000D03*
%TD*%
D16*
%TO.C,R4*%
X125300000Y-90400000D03*
X123300000Y-90400000D03*
%TD*%
D17*
%TO.C,R1*%
X123300000Y-81400000D03*
X125300000Y-81400000D03*
%TD*%
D18*
%TO.C,U2*%
X132700000Y-92870000D03*
X132700000Y-90330000D03*
X127200000Y-90330000D03*
X127200000Y-92870000D03*
%TD*%
D16*
%TO.C,R7*%
X136600000Y-92400000D03*
X134600000Y-92400000D03*
%TD*%
D17*
%TO.C,R10*%
X134600000Y-88000000D03*
X136600000Y-88000000D03*
%TD*%
D19*
%TO.C,J2*%
X140500000Y-90050000D03*
D15*
X140500000Y-88800000D03*
X140500000Y-87550000D03*
X140500000Y-86300000D03*
X140500000Y-85050000D03*
X140500000Y-83800000D03*
%TD*%
D16*
%TO.C,R5*%
X125300000Y-92400000D03*
X123300000Y-92400000D03*
%TD*%
D20*
%TO.C,U1*%
X127200000Y-80960000D03*
X127200000Y-83500000D03*
X132700000Y-83500000D03*
X132700000Y-80960000D03*
%TD*%
%TO.C,U3*%
X127200000Y-85660000D03*
X127200000Y-88200000D03*
X132700000Y-88200000D03*
X132700000Y-85660000D03*
%TD*%
D14*
%TO.C,J1*%
X119500000Y-84950000D03*
D15*
X119500000Y-86200000D03*
X119500000Y-87450000D03*
X119500000Y-88700000D03*
%TD*%
D17*
%TO.C,R8*%
X123300000Y-85800000D03*
X125300000Y-85800000D03*
%TD*%
%TO.C,R9*%
X134600000Y-85900000D03*
X136600000Y-85900000D03*
%TD*%
%TO.C,R3*%
X134600000Y-83400000D03*
X136600000Y-83400000D03*
%TD*%
M02*
