M48
; DRILL file {KiCad 9.0.2} date 2025-05-13T01:40:50+0900
; FORMAT={-:-/ absolute / metric / decimal}
; #@! TF.CreationDate,2025-05-13T01:40:50+09:00
; #@! TF.GenerationSoftware,Kicad,Pcbnew,9.0.2
; #@! TF.FileFunction,Plated,1,2,PTH
FMAT,2
METRIC
; #@! TA.AperFunction,Plated,PTH,ComponentDrill
T1C0.500
; #@! TA.AperFunction,Plated,PTH,ComponentDrill
T2C0.800
; #@! TA.AperFunction,Plated,PTH,ComponentDrill
T3C1.000
%
G90
G05
T1
X119.5Y-84.95
X119.5Y-86.2
X119.5Y-87.45
X119.5Y-88.7
X140.5Y-83.8
X140.5Y-85.05
X140.5Y-86.3
X140.5Y-87.55
X140.5Y-88.8
X140.5Y-90.05
X149.0Y-83.85
X149.0Y-85.1
X149.0Y-86.35
X149.0Y-87.6
X149.0Y-88.85
X149.0Y-90.1
T2
X143.7Y-82.9
X143.7Y-84.9
X143.7Y-86.9
X143.7Y-88.9
X143.7Y-90.9
X145.7Y-82.9
X145.7Y-84.9
X145.7Y-86.9
X145.7Y-88.9
X145.7Y-90.9
T3
X153.5Y-81.74
X153.5Y-84.28
X153.5Y-86.82
X153.5Y-89.36
X153.5Y-91.9
X156.04Y-81.74
X156.04Y-84.28
X156.04Y-86.82
X156.04Y-89.36
X156.04Y-91.9
M30
