M48
; DRILL file {KiCad 9.0.2} date 2025-05-16T01:53:44+0900
; FORMAT={-:-/ absolute / metric / decimal}
; #@! TF.CreationDate,2025-05-16T01:53:44+09:00
; #@! TF.GenerationSoftware,Kicad,Pcbnew,9.0.2
; #@! TF.FileFunction,Plated,1,2,PTH
FMAT,2
METRIC
; #@! TA.AperFunction,Plated,PTH,ComponentDrill
T1C0.500
; #@! TA.AperFunction,Plated,PTH,ComponentDrill
T2C0.800
; #@! TA.AperFunction,Plated,PTH,ComponentDrill
T3C1.000
%
G90
G05
T1
X119.5Y-84.95
X119.5Y-86.2
X119.5Y-87.45
X119.5Y-88.7
X140.5Y-83.8
X140.5Y-85.05
X140.5Y-86.3
X140.5Y-87.55
X140.5Y-88.8
X140.5Y-90.05
X149.0Y-83.85
X149.0Y-85.1
X149.0Y-86.35
X149.0Y-87.6
X149.0Y-88.85
X149.0Y-90.1
T2
X143.7Y-82.9
X143.7Y-84.9
X143.7Y-86.9
X143.7Y-88.9
X143.7Y-90.9
X145.7Y-82.9
X145.7Y-84.9
X145.7Y-86.9
X145.7Y-88.9
X145.7Y-90.9
T3
X153.4Y-81.85
X153.4Y-84.39
X153.4Y-86.93
X153.4Y-89.47
X153.4Y-92.01
X155.94Y-81.85
X155.94Y-84.39
X155.94Y-86.93
X155.94Y-89.47
X155.94Y-92.01
M30
