M48
; DRILL file KiCad 10.0.6 date 2026-09-24T23:22:28
; FORMAT={-:-/ absolute / metric / decimal}
; #@! TF.CreationDate,2026-09-24T23:22:28+09:00
; #@! TF.GenerationSoftware,Kicad,Pcbnew,10.0.6
; #@! TF.FileFunction,Plated,1,2,PTH
FMAT,2
METRIC
; #@! TA.AperFunction,Plated,PTH,ComponentDrill
T1C0.500
; #@! TA.AperFunction,Plated,PTH,ComponentDrill
T2C0.800
; #@! TA.AperFunction,Plated,PTH,ComponentDrill
T3C1.000
%
G90
G05
T1
X120.075Y-84.925
X120.075Y-86.175
X120.075Y-87.425
X120.075Y-88.675
X142.9Y-83.74
X142.9Y-84.99
X142.9Y-86.24
X142.9Y-87.49
X142.9Y-88.74
X142.9Y-89.99
X151.4Y-83.79
X151.4Y-85.04
X151.4Y-86.29
X151.4Y-87.54
X151.4Y-88.79
X151.4Y-90.04
T2
X146.1Y-82.84
X146.1Y-84.84
X146.1Y-86.84
X146.1Y-88.84
X146.1Y-90.84
X148.1Y-82.84
X148.1Y-84.84
X148.1Y-86.84
X148.1Y-88.84
X148.1Y-90.84
T3
X155.8Y-81.79
X155.8Y-84.33
X155.8Y-86.87
X155.8Y-89.41
X155.8Y-91.95
X158.34Y-81.79
X158.34Y-84.33
X158.34Y-86.87
X158.34Y-89.41
X158.34Y-91.95
M30
